<?xml version="1.0" encoding="UTF-8"?><svg xmlns="http://www.w3.org/2000/svg" xmlns:xlink="http://www.w3.org/1999/xlink" height="297.5" preserveAspectRatio="xMidYMid meet" version="1.0" viewBox="-1.9 0.0 428.2 297.5" width="428.2" zoomAndPan="magnify"><g><g><g><g id="change1_4"><path d="M212.21,165.71c-1.41,0-2.49-0.54-3.2-0.95c-1.32-0.77-2.14-1.82-2.74-2.59 c-0.13-0.16-0.25-0.32-0.38-0.47c-4.33-5.05-6.4-11.23-5.84-17.38c0.59-6.45,4.02-12.52,9.65-17.08l2.52-2.04l2.52,2.04 c5.64,4.56,9.06,10.63,9.65,17.08c0.56,6.15-1.51,12.32-5.84,17.38c-0.13,0.15-0.25,0.31-0.38,0.46 c-0.58,0.72-1.38,1.72-2.66,2.52c-0.39,0.25-1.6,1-3.2,1.03C212.27,165.71,212.24,165.71,212.21,165.71z M213.12,157.91 L213.12,157.91L213.12,157.91z M212.22,135.85c-2.44,2.74-3.91,5.92-4.21,9.2c-0.37,4.04,1,8,3.95,11.45 c0.08,0.1,0.17,0.2,0.25,0.3c0.08-0.1,0.17-0.2,0.25-0.3c2.96-3.45,4.32-7.41,3.95-11.45 C216.12,141.77,214.66,138.59,212.22,135.85z" fill="#CBA35C"/></g></g><g id="change1_2"><path d="M126.33,294.44c-24.19,0-48.11-7.01-68.51-20.25l-9.17-5.95c-1.85-1.2-2.38-3.68-1.18-5.53 s3.68-2.38,5.53-1.18l9.17,5.95c46.28,30.04,108.19,23.54,147.21-15.46l59.46-59.46l2.75-2.79l11.46-11.46 c15.6-15.6,15.6-40.98,0-56.57c-7.56-7.56-17.6-11.72-28.29-11.72s-20.73,4.16-28.29,11.72l-11.46,11.46 c-1.56,1.56-4.09,1.56-5.66,0c-1.56-1.56-1.56-4.09,0-5.66l11.46-11.46c9.07-9.07,21.12-14.06,33.94-14.06 s24.88,4.99,33.94,14.06s14.06,21.12,14.06,33.94c0,12.82-4.99,24.88-14.06,33.94l-73.67,73.72 c-20.29,20.27-47.17,33.09-75.69,36.08C135.02,294.22,130.67,294.44,126.33,294.44z" fill="#CBA35C"/></g><g id="change1_5"><path d="M298.07,294.44c-4.34,0-8.69-0.23-13.03-0.68c-28.52-3-55.4-15.81-75.69-36.08l-65-65l0.02-0.02l-8.7-8.7 c-18.72-18.72-18.72-49.17,0-67.89c9.07-9.07,21.12-14.06,33.94-14.06c12.82,0,24.88,4.99,33.94,14.06l11.46,11.46 c1.56,1.56,1.56,4.09,0,5.66c-1.56,1.56-4.09,1.56-5.66,0l-11.46-11.46c-7.56-7.56-17.6-11.72-28.29-11.72 s-20.73,4.16-28.29,11.72c-7.56,7.56-11.72,17.6-11.72,28.29c0,10.69,4.16,20.73,11.72,28.29l14.23,14.23l-0.02,0.02l59.46,59.47 c39.03,39,100.94,45.5,147.21,15.46l9.17-5.95c1.85-1.2,4.33-0.67,5.53,1.18s0.68,4.33-1.18,5.53l-9.17,5.95 C346.18,287.43,322.26,294.44,298.07,294.44z" fill="#CBA35C"/></g></g><g id="change1_1"><path d="M389.44,253.13c-1.02,0-2.05-0.39-2.83-1.17c-1.56-1.56-1.56-4.09,0-5.66c39.7-39.7,39.7-104.3,0-144 c-19.23-19.23-44.8-29.82-72-29.82c-27.2,0-52.77,10.59-72,29.82l-30.4,30.4l-30.4-30.4c-19.23-19.23-44.8-29.82-72-29.82 s-52.77,10.59-72,29.82c-39.7,39.7-39.7,104.3,0,144c1.56,1.56,1.56,4.09,0,5.66c-1.56,1.56-4.09,1.56-5.66,0 C11.42,231.22,0,203.64,0,174.3c0-29.33,11.42-56.91,32.17-77.66s48.32-32.17,77.66-32.17s56.91,11.42,77.66,32.17l24.74,24.74 l24.74-24.74c20.74-20.74,48.32-32.17,77.66-32.17c29.33,0,56.91,11.42,77.66,32.17c20.74,20.74,32.17,48.32,32.17,77.66 c0,29.33-11.42,56.91-32.17,77.66C391.49,252.74,390.46,253.13,389.44,253.13z" fill="#CBA35C"/></g></g><g><g id="change1_3"><path d="M106.21,49.06L72.54,25.5L83.44,0h45.54l10.9,25.5L106.21,49.06z M82.45,22.67l23.76,16.62l23.76-16.62 L123.7,8H88.72L82.45,22.67z" fill="#CBA35C"/></g><g id="change1_6"><path d="M318.23,49.06L284.56,25.5L295.46,0H341l10.9,25.5L318.23,49.06z M294.47,22.67l23.76,16.62l23.76-16.62 L335.72,8h-34.98L294.47,22.67z" fill="#CBA35C"/></g></g></svg>