<?xml version="1.0" encoding="UTF-8"?>
<!DOCTYPE svg PUBLIC "-//W3C//DTD SVG 1.1//EN" "http://www.w3.org/Graphics/SVG/1.1/DTD/svg11.dtd">
<!-- Creator: CorelDRAW -->
<svg xmlns="http://www.w3.org/2000/svg" xml:space="preserve" width="547.874mm" height="66.2158mm" version="1.1" style="shape-rendering:geometricPrecision; text-rendering:geometricPrecision; image-rendering:optimizeQuality; fill-rule:evenodd; clip-rule:evenodd"
viewBox="0 0 54787.4 6621.58"
 xmlns:xlink="http://www.w3.org/1999/xlink"
 xmlns:xodm="http://www.corel.com/coreldraw/odm/2003"
 zoomAndPan="magnify">
 <defs>
  <style type="text/css">
   <![CDATA[
    .fil0 {fill:#FEFEFE;fill-rule:nonzero}
   ]]>
  </style>
 </defs>
 <g id="Capa_x0020_1">
  <metadata id="CorelCorpID_0Corel-Layer"/>
  <g id="_2518033059040" data-name="Layer 2">
   <g id="change1_1" data-name="Layer 1">
    <path class="fil0" d="M0.07 4123.85c99.83,-109.13 208.92,-210.84 325.07,-302.48 117.18,-91.65 241.25,-174.72 370.67,-247.45 261.57,-143.8 541.32,-254.43 830.82,-327.32 289.38,-72.59 586.52,-117.05 884.78,-132.24 101.65,-5.18 206.1,-8.1 308.35,-8.1 195.74,0 392.21,9.49 586.49,28.48 148.7,14.02 296.86,34.13 444.5,58.47 74.08,11.11 146.31,26.46 219.6,40.48 73.29,14.02 145.79,29.37 218.28,45.24 291.04,63.5 576.53,137.58 860.69,215.64 567.8,156.37 1127.65,324.91 1690.16,451.64 281.25,62.44 562.77,115.62 845.08,150.02 173.43,25.35 349,38.24 524.14,38.24 101.35,0 203.58,-4.45 304.48,-12.89 130.7,-11.67 261.11,-36.86 387.31,-73.91 120.14,-35.66 235.71,-87.73 342.06,-153.97 200.72,-128.68 354.02,-320.21 435.38,-544.52 28.54,-80.32 43.09,-165.03 43.09,-250.29 0,-23.51 -1.19,-47.39 -3.39,-70.71l-3.97 -38.36 -8.73 -37.04c-5.25,-24.51 -12.63,-48.76 -21.65,-72.19l-5.82 -17.73c-2.12,-5.56 -4.76,-9.79 -6.88,-14.82l-6.35 -14.29 -8.2 -14.02c-10.73,-18.6 -23.14,-36.38 -36.78,-52.93 -63.41,-74.41 -145.69,-130.68 -238.09,-162.73 -47.53,-17.3 -97.09,-28.95 -147.4,-34.38 -17.51,-1.76 -35.34,-2.66 -52.98,-2.66 -29.59,0 -59.18,2.52 -88.31,7.43 -40.08,6.49 -78.8,20.32 -114.04,40.49 -29.84,17.49 -55.95,40.95 -76.47,68.78 -39.23,58.63 -60.22,127.74 -60.22,198.32 0,9.84 0.43,19.68 1.22,29.48 6.9,97.14 37.97,191.13 90.22,273.3 6.88,10.32 13.23,21.17 20.37,30.96l22.23 29.1 23.55 26.46c7.94,9 18.52,18.52 26.46,26.46 39.04,37.65 81.75,71.84 127.04,101.61 99.76,64.24 208.48,114.63 321.98,149.44 59.53,19.31 121.44,35.98 185.21,50.01 63.77,14.03 129.65,23.28 194.73,34.13 147.29,21.7 297.58,32.89 446.75,32.89 115.23,0 231.21,-7.09 345.7,-19.76 264.39,-28.61 525.33,-91.71 774.59,-185.18 249.22,-92.8 487.69,-216.07 707.57,-365.62l80.96 -57.68c27.22,-18.51 54.03,-38.55 79.32,-59.65 50.54,-42.33 102.13,-83.61 152.14,-126.47l142.61 -136.53c45.51,-47.1 88.11,-97.37 132.29,-145.52 10.85,-12.44 22.75,-23.81 32.54,-36.78l29.63 -39.16 59.8 -77.52c40.03,-50.67 77.71,-103.89 111.77,-158.81 67.43,-105.35 126.26,-217.41 173.62,-333.28 44.46,-108.44 75.41,-222.42 91.74,-338.46l5.03 -41.8c1.59,-13.76 1.85,-26.46 2.65,-41.28 2.91,-26.46 1.32,-54.5 1.85,-81.76 0,-13.49 -1.59,-26.46 -2.12,-40.22 -0.53,-13.76 0,-26.46 -3.18,-39.16l-5.03 -36.51c0,-12.17 -5.03,-24.34 -7.14,-36.78 -20.72,-99.27 -60.54,-194.05 -116.75,-278.35 -6.47,-10.54 -13.7,-20.76 -21.39,-30.43l-22.49 -29.37 -24.08 -26.46 -11.91 -13.49 -12.96 -11.91 -26.46 -24.61 -26.46 -21.17 -12.98 -12.43 -13.76 -9 -26.46 -18.26c-66.01,-41.59 -142.7,-63.78 -220.8,-63.78 -82.4,0 -163.08,24.67 -231.38,70.67 -81.37,52.38 -151.63,120.71 -206.09,200.81 -58.64,84.17 -102.18,178.56 -128.08,277.83 -12.38,47.67 -20.24,96.66 -23.24,145.74l0 35.72 0 34.93c0,11.64 2.12,22.75 2.91,34.4 0.79,11.65 3.97,26.46 5.82,38.36 16.3,108.17 49.1,213.57 96.84,311.96 97.1,203.99 256.91,396.88 449.79,560.65 97.06,83.73 200.72,161.83 308.24,231.87l41.28 26.46 42.86 26.46 85.99 50.54c28.31,17.73 57.94,32.81 87.58,47.89l88.64 46.04c239.04,118.64 490.41,212.49 748.38,278.99 326,85.12 662.9,128.92 999.81,128.92 197.33,0 395.62,-14.92 590.55,-44.28l196.32 -35.19 193.94 -45.77c128.85,-35.98 257.44,-74.08 383.91,-122.77 256.37,-95.69 507.23,-212.8 746.12,-345.89 244.21,-132.29 483.66,-284.16 721.25,-442.65 237.59,-158.49 473.34,-326.5 714.38,-495.56 479.43,-337.61 972.08,-685.27 1515.8,-976.31 274.16,-147.78 561.4,-276.6 854.57,-380.99 37.04,-13.76 74.88,-26.46 112.71,-37.57l113.51 -35.98 115.36 -31.22c38.36,-10.32 76.46,-20.9 115.62,-29.1 77.79,-17.46 155.31,-35.72 234.42,-48.42 39.42,-6.61 79.38,-14.82 118.27,-20.11l119.06 -15.88c155.64,-19.84 312.51,-30.18 469.38,-30.18 167.66,0 335.31,11.69 501.17,34.16 40.48,4.5 81.23,12.44 121.71,20.11 40.48,7.67 80.96,14.82 121.44,23.28l120.39 30.43 60.33 15.61 59.53 18.79 118.53 38.89c39.42,14.02 77.79,30.43 116.68,45.77 79.38,29.1 152.93,68.26 228.34,105.83 151.6,77.96 295.17,172.73 425.97,281.68 130.84,107.62 250.83,229.14 357.31,361.09 215,264.44 373.42,571.04 464.08,899.63 45.71,167.59 71.22,341.5 74.87,515.16 0.31,14.64 0.54,29.66 0.54,44.46 0,342.36 -94.47,678.79 -272.7,971.06 -90.76,149.5 -201.77,286.83 -329.14,406.85 -123.45,117.12 -260.6,220.06 -407.33,306.29 -142.13,83.76 -292.47,155.51 -447.25,212.92 -302.76,110.13 -620.29,177.87 -941.63,200.31 -91.63,6.72 -184.64,10.31 -276.76,10.31 -66.05,0 -133.91,-2.25 -199.51,-5.39 -39.95,-2.12 -79.38,-4.23 -119.33,-8.2l-59.53 -5.03 -61.38 -7.14c-82.02,-10.32 -162.72,-24.34 -242.89,-41.8 -160.5,-35.05 -318.59,-85.3 -469.63,-149.62 -157,-65.55 -305.63,-151.12 -441.49,-253.45 -146.91,-109.35 -271.45,-247.14 -365.07,-404.65 -97.89,-167.89 -149.63,-359.04 -149.63,-553.41 0,-97.99 13.14,-195.58 39.01,-290.09 25.61,-92.61 63.36,-181.68 111.67,-264.58 91.71,-153.88 212.24,-289.76 354.22,-399.12 130.59,-101.68 273.09,-189.11 423.35,-258.89 144.55,-67.53 295.86,-123.56 449.68,-166.39 38.1,-10.85 77.52,-21.43 114.83,-29.63l112.18 -24.08c74.61,-15.88 149.23,-32.54 224.1,-47.36l226.22 -34.4 113.24 -17.2 113.77 -10.32 227.54 -20.64c75.94,-3.7 151.87,-5.56 228.07,-8.2l113.77 -3.7c38.1,-1.32 75.94,0 114.04,1.59l227.54 5.82c301.91,14.6 606.09,53.27 902.09,112.77l111.39 22.49 55.56 11.38 54.77 14.02 219.6 57.15c73.55,17.2 144.73,43.13 216.69,65.35l107.95 34.66c35.72,11.91 72.23,21.96 105.83,36.51l211.67 81.23c35.19,14.02 70.91,26.46 105.83,41.8l103.19 46.3c68.53,31.49 137.85,61.38 205.58,93.93l200.55 105.83 99.75 52.92 97.1 57.94 193.41 115.89 185.21 127 93.13 63.76c30.69,21.43 59.8,45.51 89.69,68.26 241.95,178.6 467.2,381.94 669.97,604.38 205.61,223.27 379.13,475.42 513.15,748.1 66.13,137.43 119.58,281.15 158.78,428.14 39.33,148.17 60.17,300.9 62.23,453.86 0.12,10.46 0.34,21.24 0.34,31.81 0,141.55 -16.73,283.1 -49.75,420.68 -34.65,146.78 -87.53,289.34 -156.91,423.21 -69.16,133.77 -158.93,256.33 -265.18,362.76 -106.67,105.61 -231.2,192.23 -367.45,255.21l-18.79 -37.84c257.92,-133.92 465.12,-349.09 589.44,-611.7 62.62,-130.38 109.28,-268.43 137.96,-410.12 23.56,-114.73 35.77,-232.41 35.77,-349.66 0,-27.16 -0.63,-54.94 -1.89,-81.89 -5.94,-144.44 -29.88,-288.31 -70,-427.09 -41.13,-138.71 -95.71,-274.3 -161.94,-403.06 -135.53,-257.51 -307.8,-495.13 -510.88,-703.78 -201.33,-210.19 -423.95,-401 -661.63,-568.38 -29.63,-21.43 -58.21,-44.19 -88.37,-64.56l-91.81 -59.53 -183.36 -119.33 -190.24 -108.21 -94.99 -52.92 -97.9 -48.68 -196.06 -97.1c-66.41,-29.9 -133.88,-57.41 -200.82,-86.25l-102.39 -42.97c-33.34,-14.82 -68.26,-26.46 -102.39,-38.1l-205.85 -74.08c-33.87,-13.23 -69.32,-21.96 -104.25,-32.81l-105.83 -31.22c-70.11,-20.11 -139.17,-43.66 -211.67,-58.47l-211.67 -50.54 -52.92 -12.44 -52.92 -9.79 -107.69 -19.05 -107.69 -19.31 -52.92 -9.53c-17.99,-2.91 -36.25,-4.76 -52.92,-7.14l-217.22 -26.46c-71.97,-10.58 -144.99,-12.96 -217.75,-18.26l-109.01 -7.14c-36.51,-1.85 -72.76,-6.09 -109.27,-5.56l-218.55 -1.85c-36.51,0 -73.03,-1.59 -109.27,0l-109.27 5.29c-72.76,3.97 -145.52,6.61 -218.28,11.38l-217.22 23.28 -108.74 11.91 -107.69 17.99 -215.64 36.25c-71.17,15.35 -142.08,32.81 -212.99,48.95 -70.91,16.14 -142.35,31.75 -211.67,52.92 -276.49,83.61 -545.31,205.85 -768.88,386.82 -111.73,88.47 -206.55,197.34 -278.62,320.4 -69.26,121.9 -105.78,260.17 -105.78,400.51 0,0.99 0,1.98 0,2.97 0.29,141.39 39.03,280.32 111.93,401.41 74.33,121.49 172.41,227.06 287.83,310.31 115.79,84.98 241.96,155.8 375.14,209.88 133.52,54.48 272.24,97.23 413.5,126.39 70.62,14.49 141.92,25.97 213.88,34.44 35.98,3.97 71.97,7.14 108.21,9.53 36.24,2.39 72.23,4.76 108.48,6.35 46.05,1.65 94.33,2.9 140.95,2.9 97.81,0 196.45,-4.58 293.84,-12.9 289.7,-22.83 575.19,-87.08 847.01,-189.34 134.58,-51.18 265.34,-115.37 388.67,-189.96 123.06,-74.04 238.01,-162.32 341.23,-262.32 102.02,-99.1 190.81,-211.92 263.7,-334.07 140.49,-233.26 215.06,-501.31 215.06,-773.93 0,-15.39 -0.37,-30.96 -0.73,-46.17 -4.35,-142.97 -26.06,-285.49 -64.76,-423.28 -78.9,-277.68 -214.91,-536.69 -398.64,-759.46 -181.82,-224.23 -409.14,-408.6 -666,-539.93 -65.35,-30.69 -129.12,-64.56 -197.38,-88.9 -33.6,-12.96 -66.68,-26.46 -100.81,-38.89l-103.19 -32.81 -51.59 -16.14 -52.92 -12.96 -105.83 -26.46c-35.45,-7.14 -70.91,-13.23 -105.83,-19.84 -34.92,-6.61 -70.91,-13.49 -107.16,-16.67 -140.24,-17.91 -282.23,-27.51 -423.43,-27.51 -148,0 -296.79,10 -443.19,30 -287.89,37.57 -571.31,107.05 -844.74,204.53 -272.8,98.47 -538.68,219.32 -793.52,358.83 -515.17,276.01 -993.27,615.74 -1470.58,954.41 -477.31,338.67 -956.73,682.1 -1473.46,966.79 -257.05,143.36 -526.68,269.56 -802.05,372.82 -137.85,52.92 -279.93,95.78 -423.33,135.73l-216.16 51.33 -218.28 39.69c-213.99,31.9 -431.65,48.4 -648.24,48.4 -375.18,0 -750.36,-49.49 -1112.77,-144.75 -286.18,-74.48 -564.9,-180.11 -829.51,-312.4l-98.43 -51.33c-33.07,-16.93 -65.62,-33.87 -97.37,-52.92l-95.51 -56.36 -47.89 -28.31 -46.57 -30.16c-124.23,-80.29 -244.33,-170.26 -356.22,-266.89 -224.1,-194.2 -421.48,-426.51 -550.07,-698.76 -64.85,-135.71 -109.21,-281.26 -130.84,-430.3 -8.06,-54.11 -12.31,-108.8 -12.31,-163.5 0,-97.18 13.14,-194.36 38.77,-287.96 39.33,-146.53 105,-285.32 193.17,-408.73 86.76,-125.06 198.41,-231.65 327.58,-312.24 130.74,-83.68 282.91,-128.32 438.26,-128.32 154.45,0 305.93,44.14 436.18,126.97 16.14,10.32 31.49,21.43 47.36,32.28l23.55 16.14c7.67,5.82 14.82,12.17 22.23,17.99l42.85 35.49 40.75 39.69c28.31,26.46 51.06,56.36 76.73,84.4 11.64,14.82 22.75,30.43 34.13,45.51 11.63,14.91 22.52,30.66 32.31,46.82 83.35,127.2 141.66,269.48 171.39,418.58 15.59,82.32 23.74,166.54 23.74,250.43 0,66.62 -5.05,133.58 -14.99,199.39 -22.09,148 -63.04,293.44 -120.82,431.57 -57.46,136.75 -127.99,269.31 -209.1,393.71 -39.56,61.88 -82.92,122.74 -128.64,180.21l-68.53 87.58 -34.4 43.66c-11.11,14.82 -24.61,27.78 -36.78,41.54 -50.54,54.5 -99.22,110.33 -151.08,163.25l-161.93 152.4c-56.62,47.63 -114.83,93.66 -171.98,140.49 -28.05,24.34 -59.27,44.45 -89.43,65.88l-91.02 63.5c-245.7,164.34 -511.65,300.02 -789.78,401.45 -277.82,102.21 -568.61,169.58 -863.24,198.57 -113.45,10.97 -228,17.2 -342.14,17.2 -181.79,0 -363.99,-14.94 -543.29,-43.58 -146.72,-21.25 -292.41,-56 -432.95,-103.16 -142.57,-46.11 -278.27,-112.56 -402.8,-195.78 -62.23,-42.43 -120.74,-91.04 -174.07,-144.38 -163.08,-163.42 -260.09,-381.61 -271.96,-612.25 -0.61,-11.66 -0.94,-23.69 -0.94,-35.47 0,-143.79 45.98,-283.87 131.1,-399.73 47.9,-61.78 107.94,-113.4 176.24,-151.37 67.72,-36.95 141.7,-61.74 218,-73.02 41.62,-6.01 83.87,-9.11 126.01,-9.11 110.8,0 220.85,21.18 323.74,62.03 143.9,53.31 270.88,144.94 366.97,264.56 47.54,60.6 84.33,129.06 108.51,202.16 13.22,35.71 23.55,72.78 30.66,110.1l11.11 55.83c2.12,19.05 3.44,37.84 5.29,56.89 1.86,25.43 2.88,51.38 2.88,76.94 0,125.9 -22.75,251.15 -67.11,368.87 -108.14,283.09 -307.53,522.58 -566.41,680.18 -128.55,76.45 -267.12,135.86 -411.25,175.75 -142.95,39.28 -290.61,65.57 -438.56,76.48 -85.54,5.12 -172.03,8.46 -258.03,8.46 -209.28,0 -419.04,-17.2 -625.45,-50.17 -290.7,-41.52 -582.04,-99.16 -866.03,-170.42 -569.95,-143.24 -1129.01,-325.54 -1688.87,-493.55 -280.72,-83.87 -562.24,-163.51 -846.67,-232.3 -71.17,-17.46 -142.08,-34.93 -213.78,-49.48 -71.7,-14.55 -142.61,-32.01 -214.31,-44.98 -143.4,-26.46 -287.6,-51.06 -432.33,-68.79 -578.64,-70.38 -1171.05,-66.15 -1740.43,61.65 -284.47,62.1 -561.08,161.74 -820.32,294.46 -258.02,133.91 -494.06,308.74 -697.98,515.69l-30.57 -29.64z"/>
    <path class="fil0" d="M54757.17 4153.49c-210.25,-199.34 -450.79,-365.65 -711.6,-491.76 -260.02,-123.61 -536.67,-214.33 -819.88,-267.68 -564.89,-111.65 -1149.09,-101.86 -1717.15,-18.26 -142.35,20.9 -283.9,47.63 -423.33,79.38 -35.19,7.41 -70.38,15.35 -105.83,24.34l-105.83 24.87c-70.38,15.88 -140.23,34.66 -211.67,52.92 -279.93,73.55 -557.74,158.75 -835.55,247.39 -555.63,178.33 -1111.25,372.27 -1687.25,527.84 -289.48,78.18 -584.82,142.29 -880.16,188.54 -234.3,41.11 -473.93,62.08 -712.06,62.08 -70.89,0 -142.28,-2 -212.67,-5.49 -317.5,-20.64 -645.58,-94.19 -941.92,-267.23 -149.52,-88.77 -283.82,-201.59 -396.84,-333.76 -114.88,-133.3 -206.55,-285.71 -270.52,-449.7 -57.27,-147.34 -86.83,-304.29 -86.83,-462.5 0,-26.45 0.93,-53.36 2.49,-79.65 1.85,-23.81 3.44,-47.36 6.09,-71.17l12.96 -70.64c3.65,-23.65 8.99,-47.33 15.59,-70.37l21.43 -69.06 11.38 -34.4c3.97,-11.64 9.79,-23.81 14.55,-35.72l15.88 -35.98 17.99 -34.4c24.09,-45.23 52.25,-89.02 83.4,-129.71 121.39,-154.81 283.1,-273.87 466.92,-343.93 132.17,-53.21 274.01,-80.82 416.66,-80.82 52.77,0 105.8,3.81 158.02,11.29 105.09,14.97 207.11,48.64 300.38,99.16 98.57,53.85 185.47,127.42 254.96,215.64 122.16,161.63 188.33,358.9 188.33,561.52 0,12.05 -0.23,24.22 -0.68,36.16 -2.46,99.14 -18.62,197.82 -47.6,292.63 -28.23,92.34 -67.63,181.44 -116.73,264.56 -12.7,20.64 -24.87,41.54 -38.63,61.65l-39.95 59.86 -47.1 57.15c-15.88,18.79 -32.01,34.66 -48.15,52.92 -64.72,65.74 -135.94,126.03 -211.71,178.68 -143.76,98.29 -301.02,177.27 -466.17,233.01 -79.38,27.78 -158.75,51.06 -238.13,70.64 -79.38,19.58 -158.75,33.07 -238.13,48.15 -207.04,35.64 -418.26,54.07 -628.59,54.07 -110.11,0 -221.56,-4.94 -331.22,-14.83 -318.65,-28.84 -633.81,-100.1 -934.35,-208.8 -301.44,-107.27 -589.85,-252.2 -856.93,-428.64l-99.22 -68.26c-32.81,-23.28 -66.68,-44.98 -97.63,-70.91 -62.71,-50.54 -125.94,-100.28 -187.85,-151.87l-177.54 -165.1c-56.89,-57.15 -110.86,-118 -166.16,-177.01 -13.23,-15.08 -28.05,-29.37 -40.48,-45.24l-37.84 -47.63 -75.67 -95.51c-50.96,-63.41 -99.4,-130.6 -143.52,-198.94 -92.42,-139.83 -172.16,-288 -237.86,-441.99 -68.79,-162.06 -117.52,-332.34 -144.22,-506.26 -12.84,-83.82 -19.63,-168.69 -19.63,-253.56 0,-101.84 9.79,-203.88 28.56,-303.93 36.93,-188.44 110.09,-368.12 214.58,-529.18 12.44,-20.64 26.46,-40.22 41.01,-59.8 14.55,-19.58 28.58,-39.42 43.66,-58.47l47.89 -56.09c8.2,-9.26 15.88,-18.52 24.34,-26.46l26.46 -26.46c17.73,-17.46 35.19,-35.19 52.92,-52.92l57.94 -48.68c9.79,-8.2 19.31,-16.4 29.63,-24.08l31.49 -22.23c20.9,-14.55 41.8,-29.37 63.5,-43.39 182.39,-113.95 393.22,-175.74 608.49,-177.89 2.95,0.03 5.92,0.03 8.89,0.03 105.7,0 210.85,15.12 312.23,44.95 100.2,29.93 196.63,73.02 285.79,127.55 167.63,103.64 312.59,240.79 425.65,402.23 110.39,155.82 192.59,330.25 241.95,514.51 25.11,93.84 41.23,190.76 47.64,287.68l2.91 74.08c0,24.87 0,50.01 0,74.88 0,24.87 -3.44,50.27 -5.29,75.41 -1.85,25.14 -6.09,46.83 -9.26,70.38 -26.35,182.03 -80.08,359.57 -158.89,525.69 -74.95,159.13 -169.07,309.29 -279.23,446.38 -105.62,131.35 -223.63,253.8 -351.19,363.97 -123.64,107.15 -256.46,206.76 -393.9,295.44l-51.33 33.07 -52.92 30.69 -103.45 61.12c-34.13,20.9 -69.59,39.69 -105.83,57.94l-105.83 55.56c-285.12,142.98 -585.57,257.06 -893.93,337.82 -393.02,104.13 -798.38,157.38 -1204.89,157.38 -231.88,0 -464.34,-17.75 -693.35,-51.53l-236.27 -43.13 -233.63 -55.56c-153.46,-43.13 -306.12,-89.16 -453.23,-145.79 -290.78,-109.5 -576.12,-242.3 -847.03,-394.07 -269.88,-148.43 -526.52,-311.15 -776.02,-478.37 -249.5,-167.22 -491.33,-339.73 -729.19,-510.38 -476.25,-341.05 -942.18,-672.84 -1431.13,-939.01 -238.51,-132.53 -490.67,-247.15 -747.41,-340.81 -251.27,-91.3 -512.23,-156.42 -776.96,-193.7 -140.14,-19.73 -282.53,-30.26 -424.19,-30.26 -119.5,0 -240.1,7.63 -358.51,21.79 -32.28,2.65 -63.5,8.73 -95.25,14.29l-94.72 16.67 -92.87 22.23 -46.3 10.85 -45.51 14.02 -90.75 28.05c-29.9,10.05 -58.74,22.49 -88.37,33.34 -59.8,20.64 -115.09,50.01 -172.24,75.94 -433.12,211.67 -784.23,635 -917.84,1102.52 -33.39,114.11 -52.79,232.65 -57.03,351.72 -0.31,13.9 -0.62,28.42 -0.62,42.49 0,101.55 12.37,202.94 36.48,301.55 29.28,111.83 74.1,219.81 132.25,319.8 60,101.65 133.33,195.69 217.02,278.86 169.33,171.19 390,303.48 629.97,400.58 246.73,95.84 505.94,157.59 769.32,182.01 101.1,9.68 204.09,15.32 305.96,15.32 31.58,0 64.28,-0.75 95.48,-1.5 33.34,0 66.94,-1.85 100.28,-4.5l50.01 -2.91 47.89 -4.5c63.81,-6.51 127.47,-15.85 190.97,-28.02 126.34,-24.3 250.84,-60.74 370.53,-107.81 114.57,-44.29 224.05,-103.37 324.32,-174.73 90.56,-63.11 168.09,-143.51 227.72,-236.35 52.96,-83.69 81.87,-180.64 83.38,-279.62 0.06,-3.92 0.13,-8.2 0.13,-12.2 0,-97.37 -24.34,-193.32 -70.74,-278.84 -56.16,-99.71 -130.67,-188.36 -219.32,-260.85 -187.33,-158.75 -432.86,-278.08 -687.92,-359.3 -32.28,-10.05 -63.5,-19.84 -97.37,-28.31l-102.13 -26.46c-68,-16.67 -136,-34.4 -204.52,-50.54l-207.17 -38.36 -103.72 -19.31 -105.83 -12.96 -209.55 -26.46c-70.38,-5.82 -140.76,-9.53 -211.67,-14.55l-105.83 -6.88c-35.19,-2.38 -70.64,0 -105.83,-1.85l-211.67 -1.85c-35.45,0 -70.64,2.65 -105.83,3.7l-105.83 5.03c-70.64,3.97 -141.55,5.03 -211.67,14.29l-211.67 22.23c-17.46,2.12 -35.19,3.18 -52.92,5.82l-52.92 8.2 -105.83 16.67 -105.83 16.67 -52.92 8.2 -52.92 11.11 -208.23 44.98c-69.85,12.96 -137.58,34.66 -206.11,52.92l-98.2 29.58c-34.13,9.79 -69.06,17.73 -102.39,29.9l-202.14 68.26c-33.6,11.91 -68,21.43 -100.81,35.19l-99.22 39.69c-65.88,26.46 -132.29,52.92 -197.91,79.38l-193.41 91.02 -96.84 45.51 -93.93 51.06 -188.12 102.13 -181.77 112.98 -91.02 56.62c-30.16,19.31 -58.47,41.01 -87.84,61.38 -235.89,158.9 -458.93,340.82 -661.7,540.77 -202.12,197.75 -375.48,424.56 -513.45,671.6 -67.14,123.39 -123.26,253.4 -166.59,387.02 -42.25,133.39 -69.4,272.22 -79.4,411.92 -2.96,42.57 -4.81,85.47 -4.81,128.16 0,98.31 8.83,196.62 25.86,293.29 24.04,139.87 65.59,276.61 123.2,406.26 115.96,263.35 314.62,482.5 565.46,623.62l-18.52 37.84c-267.01,-137.45 -481.93,-358.74 -611.29,-629.7 -64.35,-133.77 -112.62,-275.29 -142.52,-420.79 -25.21,-120.23 -37.88,-243.21 -37.88,-366.18 0,-25.34 0.66,-51.33 1.53,-76.45 6.1,-148.27 30.02,-296.06 70.78,-438.62 41.55,-142.14 96.89,-280.35 163.94,-412.12 136.75,-262.26 311.06,-504.33 516.61,-717.04 203.43,-212.71 428.8,-406.43 668.85,-576.45 29.63,-21.43 58.47,-44.71 89.16,-65.09l92.34 -60.59 185.21 -120.91 191.56 -109.8 95.78 -55.03 98.69 -49.48 197.91 -98.43c66.94,-30.43 135.2,-58.47 202.67,-87.84l101.6 -43.39c33.6,-15.08 68.79,-26.46 103.19,-38.89l207.7 -75.41c34.4,-13.49 70.11,-22.49 105.83,-33.6l105.83 -31.75c70.64,-20.37 140.49,-44.45 211.67,-59.8l214.84 -51.59 52.92 -12.7 52.92 -10.05 108.74 -19.58c289.05,-53.03 583.64,-85.44 877.49,-95.75l220.93 -2.12c36.78,0 73.82,-1.85 110.6,0l110.33 5.29c73.55,3.7 147.11,6.61 220.66,11.11l219.87 23.55 109.8 11.91 109.01 18.26 222.04 37.61c71.97,15.35 143.67,32.54 215.64,48.95 71.97,16.41 143.67,32.01 214.84,52.92 283.1,85.46 558.8,209.81 793.75,396.88 118.23,93.82 218.45,208.95 294.81,339.15 75.46,132.1 115.29,281.93 115.29,434.21 0,0.85 0,1.82 0,2.67 0,153.4 -41.82,304.14 -120.61,435.72 -78.84,129.24 -182.86,241.8 -305.35,330.7 -120.15,88.68 -251.78,162.33 -390.03,218.55 -137.49,56.6 -280.41,100.76 -425.95,130.68 -72.68,15.04 -146.07,26.89 -220.15,35.53 -37.04,4.23 -73.82,7.67 -110.86,10.05 -37.04,2.38 -73.82,4.76 -110.86,6.61 -49.39,2 -100.29,3.26 -149.93,3.26 -97.59,0 -196.45,-4.63 -293.62,-12.62 -295.28,-23.88 -587.32,-89.08 -864.92,-192.93 -138.76,-53.1 -273.08,-119.04 -400.35,-195.71 -128.03,-76.45 -247.4,-168.11 -354.45,-271.84 -107.8,-103.68 -202.1,-221.71 -279.07,-350.06 -148.91,-245.69 -228.1,-527.75 -228.1,-815.17 0,-13.61 0.38,-27.61 0.58,-41.03 3.98,-149.38 26.64,-298.79 66.57,-442.81 81.49,-287.73 222.18,-556.15 412.32,-786.75 188.12,-232.57 423.07,-423.83 689.43,-560.15 67.2,-31.75 132.29,-66.68 203.46,-91.81 34.66,-13.49 68.79,-28.05 103.98,-40.48l105.83 -33.6 52.92 -16.93 52.92 -13.23 108.21 -26.46c36.25,-7.14 73.03,-13.49 109.54,-20.11 36.51,-6.62 73.03,-14.02 109.8,-17.46 144.43,-18.73 291.39,-28.58 437.52,-28.58 150.24,0 300.89,10.26 449.49,29.97 292.99,38.3 582.63,108.79 861.02,207.89 277.79,98.72 549.98,220.85 808.9,361.13 519.38,279.93 1000.65,620.45 1478.23,959.64 477.58,339.19 955.15,679.19 1466.59,960.17 253.55,141.21 519.54,266.42 791.18,368.28 135.73,52.92 274.9,93.66 414.6,132.29l211.67 50.01 214.05 38.63c210.86,31.54 424.95,47.73 638.51,47.73 367.08,0 733.63,-48.04 1088.18,-140.98 280.66,-72.94 554.15,-175.75 813.76,-305.29l96.57 -50.27c32.28,-16.4 64.56,-33.34 95.25,-52.92l93.93 -55.03 46.83 -26.46 45.51 -29.37c121.15,-77.82 238.51,-165.56 347.51,-259.37 218.02,-188.65 408.52,-413.01 531.02,-672.04 61.35,-128.74 103.25,-266.28 123.94,-407.47 7.94,-50.96 11.99,-102.76 11.99,-154.31 0,-89.73 -12.03,-179.09 -35.72,-265.62 -36.53,-137.34 -97.15,-267.41 -178.81,-383.64 -80.45,-116.38 -184.24,-215.7 -304,-290.98 -118.73,-76.67 -257.22,-117.63 -398.58,-117.63 -140.01,0 -277.25,40.16 -395.21,115.45 -238.13,149.75 -402.7,409.31 -458.26,686.06 -14.81,77.34 -22.43,156.57 -22.43,235.5 0,62.78 4.72,125.86 14.17,187.87 21.13,141.58 59.94,280.92 115.08,413.05 55.93,132.65 123.94,261.24 202.34,382.11 39.02,60.8 81.19,120.31 125.95,176.71l66.68 85.46 33.6 42.86c10.85,14.29 24.08,26.46 35.98,40.75 49.21,52.92 96.57,107.69 147.37,158.75l158.75 148.96c55.3,46.83 112.18,91.81 168.28,137.85 26.46,23.81 57.94,43.39 87.31,64.56l89.16 62.44c241.21,161.7 502.9,295.85 775.63,395.59 272.95,100.54 557.46,166.84 846.58,195.8 109.81,10.77 221.74,16.47 332.44,16.47 178.67,0 357.76,-14.65 533.99,-43.14 143.38,-20.53 284.74,-54.38 421.95,-99.82 136.35,-44.08 266.43,-107.02 385.8,-186.6 118.44,-78.15 218.67,-181.37 293.57,-301.89 73.67,-120.58 115.97,-257.94 122.54,-398.99 0.5,-10.88 0.87,-21.84 0.87,-32.73 0,-128.58 -41.03,-254.05 -116.8,-357.82 -42.24,-53.99 -95.1,-99.07 -155.04,-132.3 -60.75,-33.39 -127.15,-55.91 -195.78,-66.19 -38.91,-5.69 -78.64,-8.65 -118.07,-8.65 -101.34,0 -202,19.13 -296.25,56.29 -132.38,48.88 -249.26,132.86 -337.93,242.66 -43.15,54.71 -76.4,116.84 -98.1,183.11 -12.11,32.85 -21.72,66.91 -28.28,101.27l-10.58 52.92 -4.76 52.92c-1.81,24.14 -2.77,48.76 -2.77,73.02 0,117.48 21.27,234.24 62.51,344.2 102.33,268.62 290.92,496.18 535.82,646.45 123.32,73.56 256.36,130.67 394.9,168.93 138.94,38.84 282.24,64.13 426.09,75 85.04,5.18 170.81,8.48 256.11,8.48 205.01,0 410.96,-16.49 613.14,-49.01 288.61,-40.01 577.87,-98.72 859.66,-168.1 567.8,-139.7 1125.54,-320.15 1688.04,-486.83 281.25,-83.08 564.09,-162.19 849.84,-230.72 71.44,-16.93 142.88,-34.4 214.84,-48.95 71.96,-14.55 143.67,-31.75 216.16,-44.71 144.46,-26.46 291.04,-50.54 436.03,-68 583.67,-69.32 1181.36,-63.24 1757.36,67.73 287.55,63.45 567.33,165.27 829.45,299.9 262.25,136.69 502.03,314.64 708.84,525.91l-30.29 29.72z"/>
   </g>
  </g>
 </g>
</svg>
