<?xml version="1.0" encoding="UTF-8"?>
<!DOCTYPE svg PUBLIC "-//W3C//DTD SVG 1.1//EN" "http://www.w3.org/Graphics/SVG/1.1/DTD/svg11.dtd">
<!-- Creator: CorelDRAW -->
<svg xmlns="http://www.w3.org/2000/svg" xml:space="preserve" width="270.716mm" height="33.7938mm" version="1.1" style="shape-rendering:geometricPrecision; text-rendering:geometricPrecision; image-rendering:optimizeQuality; fill-rule:evenodd; clip-rule:evenodd"
viewBox="0 0 27071.6 3379.38"
 xmlns:xlink="http://www.w3.org/1999/xlink"
 xmlns:xodm="http://www.corel.com/coreldraw/odm/2003">
 <defs>
  <style type="text/css">
   <![CDATA[
    .fil0 {fill:#FEFEFE}
    .fil1 {fill:#DFE3E3}
   ]]>
  </style>
 </defs>
 <g id="Capa_x0020_1">
  <metadata id="CorelCorpID_0Corel-Layer"/>
  <g id="_2684213386512">
   <path class="fil0" d="M27071.58 0.01l-27071.56 0 0 3316.87c59.9,20.78 118.04,55.38 217.26,62.48 53.13,-33.33 20.13,-34.24 78.26,-60.21 28.06,-12.55 66.21,-16.31 99.44,-25.03 152.63,-40.01 136.68,-255.86 503.83,-190.6 355.2,63.15 184.1,-47.53 592.64,-80.3 191.2,-15.34 106.25,-27.85 177.4,-62.61 51.39,25.95 53.92,37.92 94.66,65.05 207.82,138.37 262.69,9.06 334.35,132.67 267.11,3.99 87.25,-49.67 418.09,-64.34 74.95,-3.33 139.61,-23.82 211.19,-20.32 120.79,5.9 70.42,-12.08 163.41,-23.83 95.23,109.92 159.77,118.61 364.81,82.1 35,-54.88 36.17,-71.07 41.94,-155.57 106.43,52.09 77.81,78.94 226,64.98 97.53,-9.19 73.3,60.51 190.17,78.32 6.67,-14.24 17.96,-54.29 29.87,-71.11 26.38,-37.27 13.54,-11.31 49.83,-42.25 47.81,-40.74 33.68,-70.66 83.28,-119.19 29.3,16.79 5.48,0.49 28.04,21.89 59.77,56.71 5.94,39.2 125.38,88.33 76.17,31.33 86.57,60.77 179.23,64.7 31.11,-54.77 5.6,-72.51 50.17,-103.15l93.66 -28.95c2.26,-5.05 8.55,-2.38 12.72,-4.54l13.19 -118.41c95.42,-19.56 197.74,2.69 288.14,-30.86 101.9,-37.81 106.9,-72.76 169.82,-132.67 176.48,-168.03 307.44,-56.91 395.79,-220.69 158.49,49.9 152.07,-4.56 337.15,-14.32 409.79,-21.6 139.09,-4 314.35,-93.3 59.39,-30.26 105.52,-24.24 168.9,-12.27 65.35,12.34 94.99,-7.99 166.63,1.17 122.9,15.71 183.47,105 272.68,137.3 57.98,-47.44 53.02,-75.11 151.2,-44.19l3.82 -17.92c0.19,-2.32 0.76,-7.39 0.86,-9.97l-3.9 -48.72c54.54,1.34 118.65,-0.09 159.29,20.14 65.04,32.36 35.48,52.26 130.93,53.91 34.8,-68.35 34.38,-108.14 106.95,-127.67 155.47,-41.84 59.69,-15.59 136.25,-106.42 194.2,53.42 229.62,-66.7 380.9,43.2 140.02,101.72 51.24,43.86 201.91,60.25 90.77,9.88 92.87,51.64 199.39,12.3 111.5,-41.18 115.57,-44.15 219.23,1.58 42.68,18.83 139.58,31.11 198.18,47.84 325.31,92.92 267.38,-57.21 383.17,22.44 57.87,39.81 12.2,33.93 104.98,36.27 109.79,2.77 219.21,-46.98 317.64,-45.08 126.08,2.43 333.75,33.81 422.81,-52.36 163.06,-157.78 163.25,-96.43 352.27,-33.8 276.61,91.64 261.19,47.32 389.85,35.75 47.99,44.27 30.69,55.59 90.72,80.66 1.89,-3.57 2.08,-9.27 2.54,-11.85 25.32,-140.25 18.08,8.42 60.72,-140.32 78.14,-272.57 114.51,-128.1 211.2,-170.25 33.53,-14.61 43.68,-42.15 103.55,-64.65 74.91,47.42 20.34,72.27 242.6,80.76 418.63,15.99 559.67,-291.6 685.4,-99.66l643.46 -152.86c76.13,3.86 118.6,47.25 203.27,58.21 54.73,-113.04 186.33,-96.77 251.78,-105.75 49.46,-6.8 10.11,6.85 48.99,-14.95 123.17,-69.09 -1.27,-88.49 329.08,-90.23 208.23,-1.1 213.45,123.37 384.32,-73.9l89.38 -94.91c1.62,-2.03 5.34,-4.58 6.47,-10.08 1.15,-5.59 4.51,-6.77 6.25,-10.42l24.69 -89.12 134.31 -50.87 15.32 -96.34c67.48,14.28 97.04,41.83 171.37,29.03 -27.25,-42.67 -20.14,-29.4 -31.06,-90.27 234.98,-3.47 146.68,-36.52 315,-98.08 31.98,-11.7 54.57,-12.84 81.69,-25.33 16.52,-7.62 36.3,-26.43 61.38,-41.18 211.28,-124.22 76.16,123.43 328.29,-213.36 77.42,-103.42 111.98,-54.52 211.59,-117.95l16.84 -17.09 298.52 -59.82c149.79,-26.43 127.23,-65.88 304.1,10.26 110.98,47.79 63.49,-68.26 257.95,-19.87 161.79,40.26 104.04,76.01 202.41,142.35 16.83,-13.67 54.98,-80.31 210.43,-95.59 124.09,-12.2 191.42,182.61 312.45,205.53l31.74 -73.99c81.34,-7.71 102.5,11.57 149.78,9.05 23.61,-35.51 6.53,-50.82 31.31,-97.85 240.68,-13.34 220.02,131.02 477.02,-0.87 83.17,-42.68 132.02,-56.44 245.22,-41.14 194.26,26.24 164.73,-10.22 244.33,-38.77 201.76,103.29 118.82,35.99 350.08,95.83 53.68,13.88 107.57,40.41 159.88,52.87 135.94,32.39 112.25,-100.51 338.85,11.98 84.6,42 165.18,6.53 300.36,138.91 41.79,40.93 61.15,92.23 106.55,123.75 79.11,5.61 56.29,-71.35 169.97,19.04 16.14,-39.31 -23.42,-2.71 10.76,-73.67 182.86,28.41 155.08,108.01 272.17,161.51 75.53,-43.83 33.02,-86.41 146.72,-77.64 39.41,3.04 37.75,17.49 83.65,1.03 56.98,-20.44 11.45,-24.27 87.08,-59.16 74.44,94.14 248.64,19.7 373.14,167.09 88.83,105.15 0.09,53.07 158.44,109.15 106.44,37.71 73.25,87.16 209.05,89.69 106.98,1.98 158.84,7.74 212.36,60.49l338.13 197.61c64.47,25.71 192.66,22.46 235.84,52.39 36.84,25.54 14.34,35.69 68.05,67.19 75.05,44.01 246.58,59.98 331.42,73.47 49.31,7.85 350.35,134.32 445.28,115.53 70.88,-14.04 91.85,-77.02 227.12,-46.3l332.63 214.16c182.64,110 162.19,-21.03 257.22,122.89 28.96,43.86 -2.87,23.67 47.19,47.37 16.84,-41.39 7.03,-23.59 0.14,-81.84 76.69,39.74 61.76,-15.6 152.3,-132.63 41.48,-53.64 -10.93,-31.86 82.59,-39.47l37.06 21.16 -4.05 -0.48 39.91 25.65c51.9,14.21 44.34,-14.03 173.41,-21.58 27.19,109.96 69.35,92.28 177.36,137.55 96.27,40.34 155.38,39.49 256.17,66.48 106.3,28.46 149.9,-21.93 267.46,-14.29 42.6,2.77 112.96,2.78 149.77,16.39 39.67,14.65 23.96,8.36 45.47,31.17l42.46 53.13c28.42,-4.45 9.84,-18 66.44,-10.93 40.26,5.03 69.92,16.73 116.18,18.63 258.33,10.67 123.36,18.68 243.17,33.85 228.51,28.94 175.42,-25.35 356.88,108.88 40.5,29.95 11,12.57 50.24,32.79 133.98,-45.02 154.84,-66.32 332.65,3.38 0.19,-0.08 95.32,-79.33 221.91,-38.72 47.67,15.28 197.64,63.97 238.39,83.39 72.53,34.56 73.32,151.67 324.94,20.61 39.6,-20.63 61.13,-37.34 106.87,-55.1l7.83 -37.54c1.31,-4.01 2.54,-8.67 4.1,-12.98 1.62,-4.44 3.57,-8.85 5.25,-13.03l179.41 -25.03c15.24,-36.05 -0.16,-5.87 19.32,-38.09l12.55 -43.99c81.76,27.88 82.59,61.11 184.36,92.73l-12.84 -67c0.15,-3.54 1.3,-8.29 1.67,-11.42l6.6 -21.91c37.48,7.62 71.25,26.54 100.12,34.99 7.28,2.13 14.26,3.76 21.11,4.92l0 -2382.27z"/>
   <path class="fil1" d="M0.02 3316.88c59.9,20.78 118.04,55.38 217.26,62.48 53.13,-33.33 20.13,-34.24 78.26,-60.21 28.06,-12.55 66.21,-16.31 99.44,-25.03 152.63,-40.01 136.68,-255.86 503.83,-190.6 355.2,63.15 184.1,-47.53 592.64,-80.3 191.2,-15.34 106.25,-27.85 177.4,-62.61 51.39,25.95 53.92,37.92 94.66,65.05 207.82,138.37 262.69,9.06 334.35,132.67 267.11,3.99 87.25,-49.67 418.09,-64.34 74.95,-3.33 139.61,-23.82 211.19,-20.32 120.79,5.9 70.42,-12.08 163.41,-23.83 95.23,109.92 159.77,118.61 364.81,82.1 35,-54.88 36.17,-71.07 41.94,-155.57 106.43,52.09 77.81,78.94 226,64.98 97.53,-9.19 73.3,60.51 190.17,78.32 6.67,-14.24 17.96,-54.29 29.87,-71.11 26.38,-37.27 13.54,-11.31 49.83,-42.25 47.81,-40.74 33.68,-70.66 83.28,-119.19 29.3,16.79 5.48,0.49 28.04,21.89 59.77,56.71 5.94,39.2 125.38,88.33 76.17,31.33 86.57,60.77 179.23,64.7 31.11,-54.77 5.6,-72.51 50.17,-103.15l93.66 -28.95c2.26,-5.05 8.55,-2.38 12.72,-4.54l13.19 -118.41c95.42,-19.56 197.74,2.69 288.14,-30.86 101.9,-37.81 106.9,-72.76 169.82,-132.67 176.48,-168.03 307.44,-56.91 395.79,-220.69 158.49,49.9 152.07,-4.56 337.15,-14.32 409.79,-21.6 139.09,-4 314.35,-93.3 59.39,-30.26 105.52,-24.24 168.9,-12.27 65.35,12.34 94.99,-7.99 166.63,1.17 122.9,15.71 183.47,105 272.68,137.3 57.98,-47.44 53.02,-75.11 151.2,-44.19l3.82 -17.92c0.19,-2.32 0.76,-7.39 0.86,-9.97l-3.9 -48.72c54.54,1.34 118.65,-0.09 159.29,20.14 65.04,32.36 35.48,52.26 130.93,53.91 34.8,-68.35 34.38,-108.14 106.95,-127.67 155.47,-41.84 59.69,-15.59 136.25,-106.42 194.2,53.42 229.62,-66.7 380.9,43.2 140.02,101.72 51.24,43.86 201.91,60.25 90.77,9.88 92.87,51.64 199.39,12.3 111.5,-41.18 115.57,-44.15 219.23,1.58 42.68,18.83 139.58,31.11 198.18,47.84 325.31,92.92 267.38,-57.21 383.17,22.44 57.87,39.81 12.2,33.93 104.98,36.27 109.79,2.77 219.21,-46.98 317.64,-45.08 126.08,2.43 333.75,33.81 422.81,-52.36 163.06,-157.78 163.25,-96.43 352.27,-33.8 276.61,91.64 261.19,47.32 389.85,35.75 47.99,44.27 30.69,55.59 90.72,80.66 1.89,-3.57 2.08,-9.27 2.54,-11.85 25.32,-140.25 18.08,8.42 60.72,-140.32 78.14,-272.57 114.51,-128.1 211.2,-170.25 33.53,-14.61 43.68,-42.15 103.55,-64.65 74.91,47.42 20.34,72.27 242.6,80.76 418.63,15.99 559.67,-291.6 685.4,-99.66l643.46 -152.86c76.13,3.86 118.6,47.25 203.27,58.21 54.73,-113.04 186.33,-96.77 251.78,-105.75 49.46,-6.8 10.11,6.85 48.99,-14.95 123.17,-69.09 -1.27,-88.49 329.08,-90.23 208.23,-1.1 213.45,123.37 384.32,-73.9l89.38 -94.91c1.62,-2.03 5.34,-4.58 6.47,-10.08 1.15,-5.59 4.51,-6.77 6.25,-10.42 -57.43,33.88 -63.64,71.03 -167.9,51.28 -69.28,-13.12 -137.2,-15.37 -213.4,-10.27 -133.06,8.91 -216.67,71.47 -338.31,105.22 -135.23,37.52 -215.38,89.18 -378.56,70.99 -132.97,-14.82 -263.94,25.43 -388.61,51.45 -306.66,63.98 -106.06,71.66 -391.15,46.66 -148.97,-13.07 -231.49,64.51 -358.94,101.01 -424.99,121.73 -414.48,-75.8 -561.32,-5.1 -99.9,48.09 -86.37,25.67 -201.53,27.29l-49.74 117.03c-134.13,-9.02 -233.11,25.18 -389.38,-9.04 -93.64,-20.5 -239.7,-89.04 -329.44,-83.47 -116.83,7.25 -153.62,94.1 -293.59,122.13 -113.43,22.72 -258.71,16.9 -375.39,27.83 -136.32,12.78 -662.68,-8.07 -770.22,-34.57 -129.4,-31.89 -214.41,-61.22 -360.89,-55.49 -132.01,5.16 -188.11,-65.93 -247.62,-150.04 -81.5,-115.19 -74.44,-49.12 -289.24,-121.29 -154.6,-51.96 -547.6,-115.97 -714.28,-97.32 -112.9,12.63 -240.81,28.94 -364.71,44.01 -193.68,23.56 -289.19,144.96 -665.9,146.71 -449.85,2.1 -695.19,163.89 -965.86,247.46 -153.72,47.46 -167.82,36.97 -294,115.99 -157.76,98.8 -369.53,194.29 -596.79,219.21 -267.7,29.35 -381.55,135.22 -636.69,178.57 -124.76,21.19 -263.85,2.8 -394.31,15.26 -210.64,20.11 -553.21,187.51 -1049.54,-7.23 -161.69,-63.44 -133.99,-57.73 -316.66,-8.04 -111.96,30.46 -231.85,45.87 -358.46,51.08 -184.19,7.58 -336.06,92.12 -695.11,120.92 -86.12,6.91 -135.56,-14.73 -194.6,-10.33 -32.4,2.41 -112.93,32.28 -150.18,42.76 -92.22,25.95 -141.03,32.73 -205.42,38.11l0 499.4z"/>
   <path class="fil1" d="M15037.18 658.14c-23.77,-4.29 -16.84,-8.46 -16.84,17.09l16.84 -17.09 298.52 -59.82c149.79,-26.43 127.23,-65.88 304.1,10.26 110.98,47.79 63.49,-68.26 257.95,-19.87 161.79,40.26 104.04,76.01 202.41,142.35 16.83,-13.67 54.98,-80.31 210.43,-95.59 124.09,-12.2 191.42,182.61 312.45,205.53l31.74 -73.99c81.34,-7.71 102.5,11.57 149.78,9.05 23.61,-35.51 6.53,-50.82 31.31,-97.85 240.68,-13.34 220.02,131.02 477.02,-0.87 83.17,-42.68 132.02,-56.44 245.22,-41.14 194.26,26.24 164.73,-10.22 244.33,-38.77 201.76,103.29 118.82,35.99 350.08,95.83 53.68,13.88 107.57,40.41 159.88,52.87 135.94,32.39 112.25,-100.51 338.85,11.98 84.6,42 165.18,6.53 300.36,138.91 41.79,40.93 61.15,92.23 106.55,123.75 79.11,5.61 56.29,-71.35 169.97,19.04 16.14,-39.31 -23.42,-2.71 10.76,-73.67 182.86,28.41 155.08,108.01 272.17,161.51 75.53,-43.83 33.02,-86.41 146.72,-77.64 39.41,3.04 37.75,17.49 83.65,1.03 56.98,-20.44 11.45,-24.27 87.08,-59.16 74.44,94.14 248.64,19.7 373.14,167.09 88.83,105.15 0.09,53.07 158.44,109.15 106.44,37.71 73.25,87.16 209.05,89.69 106.98,1.98 158.84,7.74 212.36,60.49l338.13 197.61c64.47,25.71 192.66,22.46 235.84,52.39 36.84,25.54 14.34,35.69 68.05,67.19 75.05,44.01 246.58,59.98 331.42,73.47 49.31,7.85 350.35,134.32 445.28,115.53 70.88,-14.04 91.85,-77.02 227.12,-46.3l332.63 214.16c182.64,110 162.19,-21.03 257.22,122.89 28.96,43.86 -2.87,23.67 47.19,47.37 16.84,-41.39 7.03,-23.59 0.14,-81.84 76.69,39.74 61.76,-15.6 152.3,-132.63 41.48,-53.64 -10.93,-31.86 82.59,-39.47l37.06 21.16c-18.61,-24.98 27.98,-28.15 -37.06,-21.16l-357.48 -233.84c-85.91,-50.48 -156.58,-54.58 -252.85,-13.66 -132.75,56.43 -290.86,-26.43 -456.88,-80.13 -79.52,-25.72 -169.52,-27.79 -254.09,-47.96 -122.51,-29.21 -117.76,-48.39 -194.23,-105.42 -61.09,-45.57 -156.71,-22.4 -247.29,-57.14l-367.82 -220.53c-91.21,-54.55 -148.44,-34.12 -248.51,-54.66 -44.22,-9.07 -157.65,-67.48 -212.56,-89.95 -182.13,-74.56 -50.44,-136.44 -377.46,-210.24 -40.4,-9.12 -93.99,-38.04 -113.19,-40.75 -58.62,-8.26 -49.18,19.37 -106.8,35.08 -57.66,15.71 -80.67,-0.72 -135.16,18.29 -37.82,13.19 -54.03,35.73 -101.14,51.79 -99.13,-43.44 -88.11,-108.08 -257.05,-143.95 -35.97,30.31 -1.03,-0.33 -17.46,23.79l-26.24 38.47c-1.72,-2.71 -5.04,-9.89 -6.04,-7.51 -1.56,3.73 9.77,0.59 -13.95,-13.84 -18.06,-10.98 -12.83,-12.48 -41.13,-13.97 -57.11,-3.02 -25.5,12.45 -96.69,27.35 -47.92,-67.7 -106.8,-132.47 -177.66,-183.71 -71.94,-52.01 -161.19,-60.36 -260.22,-103.11 -171.43,-73.99 -192.85,23.03 -309.53,6.97 -66.74,-9.18 -188.2,-60.24 -283.62,-79.09 -54.45,-10.76 -109.93,-11.13 -157.78,-24.62 -51.55,-14.53 -65.8,-44.39 -125.08,-32.97 -67.44,12.99 -73.81,27.94 -162.71,23.92 -66.44,-3.01 -110.55,-12.73 -178.59,-1.79 -112.95,18.17 -156.72,83.79 -275.27,89.84 -134.13,6.84 -191.35,-50.07 -322.5,-46.92l-59.18 100.32c-76.96,-6.43 -66.13,-31.19 -142.48,10.97 -36.11,19.94 -58.33,47.25 -114.43,12.14 -39.4,-24.66 -163.88,-137.47 -185.8,-173.93 -61.15,1.72 -111.85,14.33 -162.05,30.51 -76.48,24.65 -64.77,38.93 -117.38,71.97 -102.09,-78.42 -76.94,-158.31 -287.93,-151.25 -99.35,3.32 -75.5,57.78 -170.62,31.29 -83.68,-23.29 -97.32,-48.6 -206.5,-37.05 -316.8,33.51 -330.07,68.72 -538.3,140.93 -60.87,21.1 -64.89,27.34 -117.64,79.63l-22.94 24.2z"/>
   <path class="fil1" d="M23332.42 2029.35l39.91 25.65c51.9,14.21 44.34,-14.03 173.41,-21.58 27.19,109.96 69.35,92.28 177.36,137.55 96.27,40.34 155.38,39.49 256.17,66.48 106.3,28.46 149.9,-21.93 267.46,-14.29 42.6,2.77 112.96,2.78 149.77,16.39 39.67,14.65 23.96,8.36 45.47,31.17l42.46 53.13c28.42,-4.45 9.84,-18 66.44,-10.93 40.26,5.03 69.92,16.73 116.18,18.63 258.33,10.67 123.36,18.68 243.17,33.85 228.51,28.94 175.42,-25.35 356.88,108.88 40.5,29.95 11,12.57 50.24,32.79 133.98,-45.02 154.84,-66.32 332.65,3.38 0.19,-0.08 95.32,-79.33 221.91,-38.72 47.67,15.28 197.64,63.97 238.39,83.39 72.53,34.56 73.32,151.67 324.94,20.61 39.6,-20.63 61.13,-37.34 106.87,-55.1l7.83 -37.54c1.31,-4.01 2.54,-8.67 4.1,-12.98 1.62,-4.44 3.57,-8.85 5.25,-13.03l179.41 -25.03c15.24,-36.05 -0.16,-5.87 19.32,-38.09 -96.15,67.29 -243.64,-23.12 -334.18,-48.17 -77.21,-21.37 -107.71,-16.44 -182.2,4.73 -101.69,28.9 -90.6,6.56 -184.4,-3.81 -88.56,-9.8 -132.51,16.76 -194.67,13.8 -52.19,-2.49 -89.77,-44.16 -137.35,-73.14 -135.7,-82.64 -629.78,-74.5 -730.35,-116.02 -57.01,-23.53 -50.64,-57.11 -136.59,-76.46 -149.44,-33.63 -668.94,73.9 -835.29,-190.34 -67.66,-4.75 -113.72,12.92 -170.27,4.38 -108.87,-16.45 -121.22,-104.17 -262.48,132.95 -58.03,-8.73 -53.66,-28.21 -119.22,-17.47 -67.07,10.99 -72.55,21.46 -138.59,4.94z"/>
  </g>
 </g>
</svg>
