<?xml version="1.0" encoding="UTF-8"?>
<!DOCTYPE svg PUBLIC "-//W3C//DTD SVG 1.1//EN" "http://www.w3.org/Graphics/SVG/1.1/DTD/svg11.dtd">
<!-- Creator: CorelDRAW -->
<svg xmlns="http://www.w3.org/2000/svg" xml:space="preserve" width="4.233mm" height="4.233mm" version="1.1" style="shape-rendering:geometricPrecision; text-rendering:geometricPrecision; image-rendering:optimizeQuality; fill-rule:evenodd; clip-rule:evenodd"
viewBox="0 0 423.3 423.3"
 xmlns:xlink="http://www.w3.org/1999/xlink"
 xmlns:xodm="http://www.corel.com/coreldraw/odm/2003">
 <defs>
  <style type="text/css">
   <![CDATA[
    .fil0 {fill:#B7A46C}
   ]]>
  </style>
 </defs>
 <g id="Capa_x0020_1">
  <metadata id="CorelCorpID_0Corel-Layer"/>
  <path class="fil0" d="M157.01 40.92c0,5.36 14.6,15.85 18.48,20.52 12.17,14.61 21.78,32.71 26.99,51.41 1.57,5.64 3.62,30.05 12.03,25.76 0.8,-0.9 7.83,-29.37 9.57,-34.16 8.04,-22.1 16.21,-37.92 33.91,-53.95 3,-2.72 12.14,-7.65 6.13,-11.89 -3.68,-2.59 -13.71,-3.68 -18.13,-3.27 -21.42,1.97 -10.83,12.43 -22,-13.73 -2.64,-6.18 -8.18,-32.8 -18.16,-15.78 -4.2,7.18 -11.92,30.09 -12.69,31.06 -2.88,3.63 -28.02,-5.78 -36.13,4.03zm146.98 189.39c13.99,4.38 29.27,12.57 39.51,20.22 3.98,2.97 37.43,27.4 20.8,30.23 -16.6,2.82 -30.12,-9.23 -39.99,-18.92 -5.13,-5.03 -9.82,-9.56 -14.72,-15.22 -1.08,-1.25 -16.49,-19.71 -5.6,-16.31zm59.2 -88.34c18.96,3.27 -15.42,28.02 -19.34,31.27 -7.81,6.49 -29.02,18.57 -40.25,21.76 -17.58,4.98 17.44,-30.57 18.93,-32.05 10.33,-10.24 24.96,-23.68 40.66,-20.98zm19.52 16.3c6.26,2.69 5.72,19.87 4.22,24.96 -4.19,14.24 -3.06,8.91 11.15,14.69 14.55,5.92 42.54,10.48 10.44,24.24 -3.69,1.58 -21.41,6.84 -22.22,9.32 -1.46,4.47 3.75,17.53 0.58,28.13 -4.29,14.32 -9.77,2.02 -14.9,-3.29 -16.42,-16.98 -37.01,-27.98 -60.08,-34.46 -3.52,-0.99 -24.72,-5.49 -25.46,-6.09 -8.43,-6.9 13.89,-9.75 17.52,-10.71 22.29,-5.92 45.74,-16.36 62.3,-32.26 3.25,-3.13 12.34,-16.31 16.45,-14.53zm-130.56 42.95c-14.59,5.53 -7.91,24.89 6.27,21.49 14.45,-3.46 6.88,-26.47 -6.27,-21.49zm-48.47 -43.77c-10.59,4.41 0.95,30.52 13.39,19.57 3.09,-2.72 7.94,-11.35 5.12,-16.11 -1.5,-2.54 -17.07,-4.06 -18.51,-3.46zm-38.21 43.76c-16.03,6.27 -8.55,26.03 5.53,23.14 16.6,-3.41 8.02,-28.43 -5.53,-23.14zm41.37 40.99c-3.59,1.83 -18.32,31.47 7.13,24.71 19.22,-5.1 2.43,-29.6 -7.13,-24.71zm-87.53 -11.89c-13.99,4.38 -29.27,12.57 -39.51,20.22 -3.98,2.97 -37.43,27.4 -20.8,30.23 16.6,2.82 30.12,-9.23 39.99,-18.92 5.13,-5.03 9.82,-9.56 14.72,-15.22 1.08,-1.25 16.49,-19.71 5.6,-16.31zm110.56 69.12c-12.64,6.2 40.02,75.68 51.2,67.71 10.99,-7.84 -38.76,-73.82 -51.2,-67.71zm43.46 -243.65c-17.98,4.47 -59.23,84.21 -39.29,68.51 12.29,-9.68 23.39,-18.68 32.1,-29.39 3.42,-4.22 10.43,-12.03 12.67,-18.06 1.94,-5.21 5.39,-23.77 -5.48,-21.06zm-120.23 312.17c4.56,-3.46 23.46,-30.96 27.71,-37.29 1.95,-2.89 29.67,-49.66 4.19,-29.69 -11.22,8.78 -23.35,23.17 -31.49,33.52 -19.61,24.93 -18.08,20.78 -10.26,26.7 2.27,1.71 7.22,6.41 9.85,6.76zm-92.99 -225.98c-18.96,3.27 15.42,28.02 19.34,31.27 7.81,6.49 29.02,18.57 40.25,21.76 17.58,4.98 -17.44,-30.57 -18.93,-32.05 -10.33,-10.24 -24.96,-23.68 -40.66,-20.98zm134.64 -16.02c3.76,-7.43 -16.77,-37.45 -20.62,-43.45 -4,-6.22 -8.9,-12.16 -13.79,-18.91 -8.25,-11.39 -5.9,-9.22 -17.37,-0.85 -9.81,7.16 -4.29,8.42 2.6,17.59 4.75,6.32 9.18,11.9 14.43,18.26 4.61,5.58 26.94,34.56 34.75,27.36zm129.07 -29.18c-19.84,8.82 -44.38,25.18 -57.74,40.22 -1.33,1.5 -50.35,64.07 -31.63,57.54 18.39,-6.4 45.9,-26.28 58.2,-40.02 8.56,-9.58 14.15,-16.15 21.51,-27.74 1.26,-1.97 21.76,-35.38 9.66,-30zm-92.86 132.87c-7.76,4.27 30.37,53.33 36.44,59.4 6.73,6.73 52.51,41.95 59.8,38.32 9.38,-4.66 -31.71,-54.4 -36.29,-59.47 -5.84,-6.47 -52.23,-42.5 -59.95,-38.25zm-34.34 -3.56c-13.3,5.88 -52.06,32.7 -62.17,42.86 -9.3,9.34 -16.77,17.67 -23.92,28.86 -1.87,2.93 -21.76,34.41 -12.77,33.7 4,-0.32 27.34,-15.81 32.86,-19.52 10.38,-6.99 19.77,-16.49 28.06,-24.72 4.45,-4.42 51.17,-67.04 37.94,-61.18zm-2.58 -29.93c2.7,-11.13 -26.87,-49.93 -37.72,-60.78 -8.31,-8.32 -53.76,-43.33 -61.01,-38.33 -6.93,4.78 30.87,53.49 37.21,60.16 10.51,11.07 49.41,38.95 61.52,38.95zm-2.09 188.87c5.87,5.22 8.98,38.32 18.21,38.05 9.74,-0.29 16.82,-33.94 20.11,-36.25 1.19,-0.49 17.81,1.62 21.71,1.62 4.21,0 18.46,-2.98 11.48,-9.15 -9.29,-8.22 -16.89,-14.57 -23.47,-25.02 -7.17,-11.37 -10.96,-19.3 -16.08,-32.38 -2.29,-5.85 -3.89,-12.61 -5.31,-18.72 -1.14,-4.89 -1.26,-17.97 -7.49,-16.76 -2.99,0.58 -10.52,31.04 -12.32,36.23 -3.69,10.65 -9.84,22.9 -16.35,32.11 -11.45,16.19 -20.5,20.02 -24.01,24.49 -4.88,6.23 8.59,9.03 12.74,9.19 7.2,0.26 19,-3.78 20.78,-3.41zm-151.36 -226.75c-6.26,2.69 -5.72,19.87 -4.22,24.96 4.19,14.24 3.06,8.91 -11.15,14.69 -14.55,5.92 -42.54,10.48 -10.44,24.24 3.69,1.58 21.41,6.84 22.22,9.32 1.46,4.47 -3.75,17.53 -0.58,28.13 4.29,14.32 9.77,2.02 14.9,-3.29 16.42,-16.98 37.01,-27.98 60.08,-34.46 3.52,-0.99 24.72,-5.49 25.46,-6.09 8.43,-6.9 -13.89,-9.75 -17.52,-10.71 -22.29,-5.92 -45.74,-16.36 -62.3,-32.26 -3.25,-3.13 -12.34,-16.31 -16.45,-14.53z"/>
 </g>
</svg>
