<?xml version="1.0" encoding="UTF-8"?>
<!DOCTYPE svg PUBLIC "-//W3C//DTD SVG 1.1//EN" "http://www.w3.org/Graphics/SVG/1.1/DTD/svg11.dtd">
<!-- Creator: CorelDRAW -->
<svg xmlns="http://www.w3.org/2000/svg" xml:space="preserve" width="12.107mm" height="12.111mm" version="1.1" style="shape-rendering:geometricPrecision; text-rendering:geometricPrecision; image-rendering:optimizeQuality; fill-rule:evenodd; clip-rule:evenodd"
viewBox="0 0 1210.7 1211.1"
 xmlns:xlink="http://www.w3.org/1999/xlink"
 xmlns:xodm="http://www.corel.com/coreldraw/odm/2003">
 <defs>
  <style type="text/css">
   <![CDATA[
    .fil0 {fill:#FEFEFE}
   ]]>
  </style>
 </defs>
 <g id="Capa_x0020_1">
  <metadata id="CorelCorpID_0Corel-Layer"/>
  <path class="fil0" d="M480.97 662.89c-18.74,-8.64 -106,10.28 -111.73,-10.19 -2.97,-10.65 -2.43,-112.42 1.6,-118.68 9.6,-14.9 107.18,3.18 111.56,-10.07 1.94,-5.85 0.83,-102.87 0.83,-118.33 0,-80.57 12.21,-118.86 74.88,-168.95 25.42,-20.33 61.81,-28.14 93.69,-28.21 24.88,-0.06 100.99,-3.19 120.2,0.83 24.72,5.17 12.92,88.05 13.01,109 0.12,28.15 -14.15,24.34 -36.62,24.34 -19.88,-0.01 -41.22,-0.75 -60.92,0.03 -90.63,3.61 -70.55,101.93 -71.3,171.82 -0.24,21.3 28.47,14.07 46.88,14.07 20.32,0 40.64,0 60.96,0 53.9,0 67.38,-3.5 58.57,57.56 -5.98,41.44 3.31,75.63 -46.38,75.54 -22.18,-0.04 -103.73,-3.18 -118.69,2.2l-2.7 333.96c-9.61,6.9 -97.55,1.81 -112.05,-2.14 -29.11,-7.92 -18.83,-8.43 -19.47,-39.45 -0.96,-46.97 2.77,-284.19 -2.32,-293.33zm-479.4 -29.9c4.09,22.48 4.43,46.15 7.69,68.82 2.8,19.5 10.58,42.59 13.56,61.62 5.3,33.81 30.68,79.46 41.83,109.55 19.22,51.88 87.27,133.36 129.19,173.57 47.38,45.44 120.73,94.35 184.84,117.91 71.73,26.36 177.22,54.72 254.58,44.47 17.55,-2.32 57.12,-2.46 69.06,-7.13 11.15,-4.37 51.2,-7.15 62.54,-12.64 31.04,-15 74.04,-23.73 109.6,-41.78 60.83,-30.87 124.75,-75.23 172.7,-129.04 105.52,-118.4 173.62,-263.44 162.32,-441.89 -10.67,-168.55 -72.28,-302.76 -191.34,-414.18 -242.42,-226.85 -622.47,-214.74 -853.38,29.51 -25.38,26.86 -48.67,57.05 -65.8,85.58 -9.44,15.71 -20.12,30.16 -28.09,48.11 -5.15,11.57 -17.96,40.23 -24.2,50.98 -24.89,42.83 -53.78,208.74 -45.1,256.54z"/>
 </g>
</svg>
