<?xml version="1.0" encoding="UTF-8"?>
<!DOCTYPE svg PUBLIC "-//W3C//DTD SVG 1.1//EN" "http://www.w3.org/Graphics/SVG/1.1/DTD/svg11.dtd">
<!-- Creator: CorelDRAW -->
<svg xmlns="http://www.w3.org/2000/svg" xml:space="preserve" width="110.744mm" height="203.2mm" version="1.1" style="shape-rendering:geometricPrecision; text-rendering:geometricPrecision; image-rendering:optimizeQuality; fill-rule:evenodd; clip-rule:evenodd"
viewBox="0 0 11074.4 20320"
 xmlns:xlink="http://www.w3.org/1999/xlink"
 xmlns:xodm="http://www.corel.com/coreldraw/odm/2003">
 <defs>
  <style type="text/css">
   <![CDATA[
    .fil0 {fill:#FEFEFE}
   ]]>
  </style>
 </defs>
 <g id="Capa_x0020_1">
  <metadata id="CorelCorpID_0Corel-Layer"/>
  <g id="_1424508356784">
   <g id="_2235528183504">
    <g>
     <path class="fil0" d="M844.07 272.16c-10.53,-7.72 -9.47,-34.62 -62.49,-75.12 -25.94,-19.82 -40.3,-19.68 -75.12,-19.68 -21.96,0 16.92,31.82 33.28,76.81 25.04,68.89 31.54,143.81 39.85,217.03 2.38,20.95 6.39,37.17 8.96,55.26 7.67,53.94 17.15,110.65 33.74,161.97 10.49,32.47 18.78,67.18 32.96,98.54 7.35,16.25 11.99,29.82 19.44,44.78 13.75,27.66 26,59.67 42.18,86.25 8.09,13.28 18.94,28.53 18.94,48.34 -17.7,-0.4 -28.28,-11.13 -42.81,-18.35 -122.63,-60.99 -192.07,-88.91 -329.07,-120.47 -70.29,-16.18 -148.14,-19.41 -223.52,-30.29 -52.26,-7.54 -103.08,-23 -150.37,-42.29 -14.09,-5.74 -28.67,-16.49 -46.26,-17.96 0,30.9 10.84,60.14 31.25,81.9 37.53,39.99 24.49,27.08 49.16,36.46 17.73,6.74 23.18,23.71 -4.35,34.16 -23.79,9.02 -44.58,24.35 -65.69,38.28 -56.11,37.03 -97.29,91.43 -129.05,149.23 -27.03,49.2 -28.78,131.37 -21.23,191.31 4.84,38.46 28.72,76.37 55.05,103.97 35.04,36.74 39.31,45.32 87.73,74.34 69,41.34 114.49,33.46 192.84,33.46 43.36,0 111.88,-40.02 135.5,-72.46l39.87 -64.1c40.61,-81.02 18.46,-173.17 -34.62,-242.71 -39.12,-51.25 -144.2,-72 -209.11,-40.77 -50.62,24.36 -93.71,65.91 -93.71,126.47 0,23.33 3.05,34.1 3.05,58.1 14.84,-3.96 21.29,-25.37 28.58,-38.71 12.09,-22.12 17.3,-19.67 17.3,-53.03 12.28,3.28 8.85,0.83 9.17,15.29 20.29,-10.74 37.08,-32.35 54.59,-46.33 29.14,-23.26 39.68,-36.24 83.02,-36.24 39.52,0 82.05,23.01 101.56,54.4 17.17,27.62 42.17,75.18 42.17,116.85 0,45.47 -42.8,116.48 -65.11,142.84 -24.45,28.9 -59.96,49.11 -97.48,58.48 -52.04,12.99 -114.76,2.16 -160.45,-12.83 -36.27,-11.91 -62.27,-24.66 -87.49,-47.07 -104.02,-92.46 -111.59,-234.41 -41.94,-349.25 39.76,-65.58 94.17,-102.72 158.29,-141.4 66.02,-39.83 249.86,-81.44 312.53,-51.37 -1.23,14.71 -6.33,13.72 -15.72,20.97 -7.16,5.54 -12.06,11.33 -18.73,17.97 -24.31,24.21 -23.65,40.52 -23.65,74.2 0,15.24 11.87,39.22 19.15,48.13 11.16,13.62 23.42,23.17 38.95,31.39 0,-64.16 -11.12,-108.76 38.98,-153.68 42.38,-38 94.29,-11.44 140.8,1.42l88.02 31.24c42.97,17.24 78.4,36.06 118.47,55.84 18.89,9.33 29.62,5.76 29.62,31.54 -18.45,4.3 -8.68,0.57 -25.88,-4.62 -22.31,-6.73 -75.74,-19.85 -96.44,-19.85 -22.9,0 -34.66,1.59 -56.27,7.95 -12.41,3.66 -20,3.86 -33.76,5.99 -25.2,3.91 -42.38,4.44 -53.7,25.82 8.84,10.16 10.23,12.46 27.12,15.69 44.68,8.56 92.89,14.89 141.08,14.89 89.59,0 88.29,-19.13 172.39,11.09 9.72,3.49 38.49,19.12 29.76,-1.46 -9.37,-22.07 -24.79,-38.73 -24.79,-67.73l0 -67.28c0,-41.95 6.12,-71.78 6.12,-113.15 0,-13.36 -9.94,-6.48 -15.87,-20.83 -10.87,-26.31 -4.84,-67.89 -17.77,-92.32 -20.38,13.65 -25.19,60.89 -29.41,86.79 -6.74,41.35 -4.73,99.36 7.63,139.88 18.91,61.95 -10.1,49.92 -30.22,5.76 -3.74,-8.2 -6.6,-10.81 -11.22,-19.37 -23.3,-43.21 -41.69,-93.45 -58.71,-140.05 -20.9,-57.18 -62.73,-155.73 6.94,-197.17 84.27,-50.13 68.58,-16.51 139.46,-16.51 -1.51,-18.07 -21.48,-34.6 -33.55,-42.9 -27.28,-18.78 -97.09,-20.57 -121.63,-2.18 -11.67,8.75 -24.01,29.79 -43.6,29.79 -22.61,0 -10.26,-57.76 -9.17,-67.28 1.57,-13.83 1.96,-23.56 3.5,-39.3 1.09,-11.07 4.1,-24.11 5.84,-36.98 7.59,-56.42 28.04,-113.49 55.43,-158.63 21.31,-35.12 46.42,-67.4 73.72,-97.53 35.07,-38.7 81.92,-65.13 129.62,-84.44 18.94,-7.67 93.45,-15.62 113.87,-14.27 49.53,3.28 86.94,19.31 123.06,48.44l44.53 41.09c42.94,51.87 74.27,112.31 74.27,188.72 0,11.62 -1.04,9.27 -3.38,18.03 -1.75,6.55 -1.8,8.9 -3.59,17.81 -1.79,8.94 -6.46,25.03 -10.14,35.74 -14.5,42.22 -47.11,76.22 -83.14,100.34 -18.66,12.49 -39.15,21.46 -64.2,27.54 -51.78,12.57 -108.89,7.36 -149.29,-17.21 -10.18,-6.19 -18.06,-11.57 -26.71,-19.16 -0.78,-0.68 -4.77,-4.29 -4.83,-4.35 -0.45,-0.44 -1.09,-1.08 -1.54,-1.52 -48.58,-49.11 -61.53,-102.72 -11.71,-157.96l58.84 -51.24c-12.03,-16.43 -12.23,-2.55 -12.23,-27.53 0,-18.52 47.02,-15.36 63.64,-18.92 9.9,-2.12 11.79,-2.42 12.81,-14.72 -61.02,-14.21 -112.19,-4.5 -153.65,42.07 -64.92,72.93 -54.15,198.43 28.82,254.02 40.82,27.35 96.96,52.53 149.29,52.53 24.47,0 69.12,-12.92 89.74,-23.41 30.17,-15.34 45.81,-24.98 68.52,-47.69 20.59,-20.59 33.87,-37.76 47.67,-65.47 22.29,-44.8 26.49,-72.1 26.49,-123.36 0,-31.79 -19.77,-91.24 -30.52,-113.22 -11.02,-22.55 -25.58,-45.73 -43.63,-63.4 -18.35,-17.95 -33.61,-36.82 -53.81,-53.22 -36.86,-29.93 -109.87,-61.15 -161.26,-56.35 -69.82,6.52 -156.25,36.27 -205.48,85.06 -51,50.54 -59.44,64.89 -99.46,117.67 -9.3,12.27 -21.99,43.37 -26.63,46.76zm-397.55 207.95c-5.62,5.62 -2.98,5.72 0.12,14.72 2.71,7.88 4,7.41 6.69,18.23 8.37,33.64 4.33,38.57 64.51,52.23 13.31,3.03 22.93,8.53 18.11,-39.81 -2.97,-29.78 -1.45,-26.21 -51.37,-40.61 -9.28,-2.68 -9.99,-3.29 -19.78,-5.04 -10.39,-1.86 -13.58,-4.42 -18.28,0.28zm-403.66 162.07l0 9.18c41.9,0 102.13,-39.58 135.03,-63.74 19.63,-14.42 36.55,-28.21 58.64,-39.23l51.58 -21.81c12.02,-4.74 11.59,-1.25 14.69,-12.83 -61.49,0 -59.63,-7.94 -123.91,10.64 -11.4,3.29 -26.09,10.11 -36.61,15.38 -33.79,16.93 -99.42,66.22 -99.42,102.41zm434.25 -302.74c16.39,-10.98 29.87,-48.03 39.68,-67.35l42.87 -67.22c14.37,-20.24 32.93,-44.94 42.79,-67.3 6.95,-15.79 10.79,-22.67 18.38,-36.66 7.02,-12.93 15.29,-19.48 15.29,-39.75 -17.61,1.46 -54.58,28.72 -68.18,38.85 -83.93,62.5 -73.89,143.81 -82.03,165.66 -8.07,21.63 -8.8,48.74 -8.8,73.77zm-363.91 1259.91c18.63,27.83 40.04,34.67 58.59,48.44 21.05,15.64 39.87,30.14 58.38,48.65 153.51,153.5 21,260.7 -28.29,260.7 -17.61,0 -37.78,-0.38 -49.17,-15.04 -6.59,-8.48 -9.16,-25.92 -11.15,-37.78 -2.24,-13.3 -2.92,-33.69 -11.25,-40.74 -8.41,-7.11 -29.34,-6.02 -29.34,-19.59 0,-28.49 30.6,-46.29 55.04,-51.98l0 -12.23c-9.57,-0.8 -10.86,-3.06 -21.41,-3.06 -34.06,0 -104.84,57.42 -64.32,134.66 9.35,17.82 40.02,49.02 54.13,55.96 56.81,27.89 150.91,3.49 178.42,-56.03 19.51,-42.2 15.26,-37.73 15.26,-88.72 0,-55.22 -56.03,-121.85 -58.11,-146.79 17.69,1.47 10.37,1.9 27.97,0.46l60.54 5.51c10.58,-0.3 12.88,-2.73 27.68,-2.93 45.31,-0.59 71.86,-16.24 107.05,-24.44l0 -9.18c-9.24,-2.15 -14.57,-5.8 -24.53,-6.08l-176.83 27.07c-29.43,-1.76 -47.15,-7.83 -71.26,-20.53l-97.4 -46.33zm140.67 -1366.94c-17.33,-4.63 -18.09,-16.07 -34.41,-20.64 -30.23,-8.47 -74.48,-38.46 -46.45,31.16 10.85,26.94 21.72,35.21 22.75,47.58 -9.79,2.62 -91.49,61.98 -27.72,61.37 36.29,-0.35 71.52,5.94 104.91,14.35 24.93,6.28 82.32,36.69 109.36,49.66 -0.31,-13.8 -15.1,-42.26 -21.44,-55.01l-33.45 -85.82 -11.02 -68.49c-3.88,-23.32 -3.53,-26.15 -19.72,-26.15 -15.52,0 -26.51,41.07 -42.81,51.99zm-15.29 470.93c29.53,14.18 60.1,10.36 100.95,12.2 50.35,2.26 27.12,30.62 85.59,30.62 27.17,0 49.12,-11.91 75.93,-8.8 8.75,1.01 28.99,1.86 39.18,3.78 20.44,3.84 8.92,7.27 34.64,8.17 68.83,2.39 111.74,30.56 137.71,36.6 -4.06,-15.19 -24.98,-31.79 -37.94,-41.57 -59.17,-44.62 -167.63,-108.27 -243.4,-108.27 -58.53,0 -112.04,9.66 -162.72,39.12 -15.79,9.18 -25.52,9.16 -29.94,28.15zm373.08 -287.45l0 64.22c0,62.44 54.55,163.43 92.13,210.61 8.82,11.07 14.32,16.77 22.82,29.17 4.96,7.22 6.08,7.7 10.74,13.73 5.6,7.26 4.64,9.78 14.98,12.54 -0.58,-25.86 -40.65,-89.23 -39.76,-238.53 0.26,-43.16 -5.78,-87.08 -13.99,-123.62 -11.11,-49.43 -5.99,-70.14 -31.88,-108.79 -14.95,7.91 -15.4,10.39 -23.97,24.96 -19.29,32.81 -31.07,73.21 -31.07,115.71zm1131.48 -241.59c0,15.37 2.75,13.7 3.06,27.53 18.54,-4.95 33.46,-42.61 61.16,-61.16 26.29,6.12 17.2,27.12 69.05,37.97 17.72,3.71 28.28,3.1 41.09,10.9 49.46,30.12 -5.84,92.73 -24.49,107.12 -13.16,10.17 -17.77,14.72 -35.38,22.71 -21.3,9.67 -33.14,13.95 -56.39,13.95 -24.78,0 -71.09,-24.35 -86.09,-36.22 -11.61,-9.2 -22.88,-17.31 -33.96,-27.21 -16.73,-14.94 -29.74,-24.32 -44.15,-47.59l-37.62 -54.13c-8.82,-13.42 -46.79,-57.3 -61.17,-61.14 2.08,7.79 8.83,15.14 14.06,22.64l43.94 66.14c7.64,13.16 45.97,87.3 45.97,100.82 0,85.7 -5.29,53.43 -27.53,131.48 -3.45,12.11 -9.9,36.41 -8.07,50.88 2.4,18.96 10.45,33.17 29.49,34.76 28.21,-53.32 27.52,-149.95 27.52,-217.12 23.05,0.51 81.62,58.1 128.44,58.1 52.09,0 73.34,-3.25 118.02,-37.94 23.69,-18.39 42.37,-49.77 49.51,-79.01 8.47,-34.77 -8.64,-74.16 -24.59,-96.33 -37.26,-51.77 -60.52,-49.71 -115.42,-49.71 -27.1,0 -76.45,39.57 -76.45,82.56z"/>
     <path class="fil0" d="M4712.51 223.23c0,52.99 35.91,129.97 71.56,157.79 17.49,13.65 32.51,30.78 51.31,43.49 95.38,64.49 33.09,33.35 33.09,132.05 0,24.68 43.39,-17.45 80.74,-32.4 47.23,-18.9 103.18,-27.32 152.1,-43.62 17.33,-5.78 31.36,-11.19 49.68,-17.6l47.38 -16.84c8.15,-3.34 13.95,-6.74 22.78,-10.85 83.32,-38.83 150.72,-77.42 216.88,-143.97 12.12,-12.19 21.5,-22.7 32.79,-34.5 12.29,-12.84 61.44,-62.96 70.42,-64.13 16.92,3.95 24.87,17.23 35.93,28.29 43.54,43.54 82.57,91.31 133.49,126.44 14.34,9.9 24.59,18.18 39.82,27.46 14.71,8.98 24.97,15.72 39.74,24.48 14.37,8.52 29.61,15.49 44.13,23.14 103.25,54.37 287.01,80.21 356.04,133.25 8.02,6.17 10.33,9.73 23.62,10.03l3.06 -30.59c0,-40.75 -38.03,-57.12 -12.83,-80.1 47.94,-43.71 96.58,-34.62 146.4,-141.05 37.27,-79.65 22.49,-146.64 -26.94,-212.69 -23.47,-31.35 -62.81,-63.62 -115.72,-64.71 -82.24,-1.69 -141.2,0.43 -180.6,79.52 -35.09,70.44 -0.27,220.26 97.95,220.26 36.37,0 82.42,3.3 104.07,-27.42 14.09,-19.98 32.93,-59.75 18.18,-85.66 -7.16,-12.59 -25.63,-38.2 -41.3,-41.53 -25.06,-5.32 1.61,39.41 1.61,44.52 0,12.54 -21.94,52.59 -29.92,58.76 -41.91,32.45 -147.44,5.42 -147.44,-92.4 0,-113.05 109.13,-160.39 171.28,-143.77 65.19,17.44 126.07,73.05 145.32,139.09 5.25,17.98 4.49,40.4 4.49,59.73 0,17.68 -9.62,30.35 -14.86,43.24 -17.61,43.33 -36.25,72.99 -74.22,103.15 -55.75,44.3 -120.83,61.56 -195.32,61.56 -30.55,0 -65.69,-1.69 -85.62,-12.24 8.76,-13.09 22.13,-14.47 32.36,-25.74 35.72,-39.36 3.57,-113.79 -47.65,-114.93 0.83,37.42 24.2,28.56 -0.98,78.53 -10.3,20.43 -22.66,52.97 -51.01,52.97 -33.39,0 -115.16,-48.47 -145.55,-68.52l-74.69 -53.74c-32.36,-24.56 -61.28,-52.53 -89.45,-81.81l-40.06 -45.56c-10.58,-15.59 5.23,-63.28 -23.91,-63.88 -27.22,-0.55 13.61,33.22 -59.76,109.44 -29.16,30.3 -57.48,57.44 -88.77,85.54 -15.99,14.37 -33.49,21.12 -51.43,34.19 -17.29,12.6 -32.48,23.41 -52.22,33.41 -34.39,17.45 -87.19,50.93 -126.44,50.93 -26.7,0 -55.05,-70 -55.05,-94.8 0,-21.79 8.41,-20.29 12.23,-36.7 -37.16,0.83 -58.85,31.16 -67.94,63.75 -9.64,34.58 44.05,59.22 49.6,79.98 -28.95,13.89 -88.68,9.18 -125.38,9.18 -62.36,0 -120.86,-31.73 -164.24,-68.18 -20.59,-17.31 -38.69,-41.14 -50.91,-65.29 -34.63,-68.41 -43.83,-130.53 7.89,-193.05 21.54,-26.05 38.55,-47.85 70.57,-63.99 46.53,-23.46 79.19,-21.91 127.2,-6.73 111.18,35.17 115.25,223.5 12.12,237.83 -26,3.61 -52.51,2.31 -70.52,-11.23 -12.99,-9.77 -29.97,-39.9 -29.97,-61.78 0,-9.68 3.08,-11.59 5.47,-19 2.86,-8.92 3.71,-12.81 3.71,-23.81 -17.49,1.46 -22.9,12.25 -32.89,22.16 -18.35,18.22 -22.16,25.08 -22.16,51.23 0,25.25 18.53,49.32 32.81,61.99 25.92,22.98 109.84,29.76 141.96,8.81 29.83,-19.45 47.84,-56.5 57.11,-89.68 6.22,-22.26 4.65,-42.21 3.65,-63.67 -4.59,-99.38 -70.73,-137.63 -165.2,-137.63 -89.28,0 -135.23,47.72 -169.23,115.17 -9.75,19.34 -20.36,46.88 -20.36,74.43zm828.73 529.04c25.26,0 19.2,-49.56 33.39,-67.51 11.28,-14.28 62.79,-15.05 82.81,-15.05 -1.2,-14.44 1.58,-4.45 -6.65,-14.76 -27.38,-34.3 -35.55,-59.67 -54.92,-91.86 -0.9,-1.5 -3.53,-5.94 -4.84,-7.39 -4.7,-5.18 0.35,-2.6 -6.98,-5.26 0,40.6 7.84,73.43 -12.15,79.59 -11.93,3.68 -70.42,11.39 -70.42,-21.48 0,-10.63 2.77,-55.4 0,-61.16 -21.06,14.1 -31.57,65.96 -55.79,90.98 -4.76,4.92 -7.09,8.34 -11.34,13.45 -6.17,7.39 -11.61,8.31 -5.7,14.09 12.45,12.21 62.42,-0.03 80.93,17.1 14.52,13.44 9.07,69.26 31.66,69.26zm272.16 -495.4c40.56,0 73.84,-34.9 89.78,-66.18 51.7,-101.47 -39.61,-16.39 -126.47,-16.39 -88.92,0 -185.18,-73.91 -122.85,3.59 11.34,14.1 62.57,50.94 87.28,59.5 18.47,6.41 42.56,19.48 72.26,19.48zm-547.39 0c67.49,0 182.36,-65.73 183.48,-116.2 -45.08,3.75 -111.46,67.7 -241.49,9.08 -38.88,-17.53 -49.04,-13.6 -33.77,24.59 10.49,26.26 25.13,50.77 49.46,66.75 8.12,5.34 30.29,15.78 42.32,15.78zm-24.46 324.15c0,19.26 5.66,33.87 9.17,48.93 31.89,2.66 38.13,8.6 79.55,-12.19 48.95,-24.58 42.91,-30.4 65.5,-47.65l34.18 -39.21c68.14,-103.53 56.66,-127.68 78.98,-223.77 3.11,-13.4 7.5,-16.56 7.84,-31.91 -12.47,8.36 -22.72,24.79 -31.79,38.54 -87.34,132.4 -243.43,188.9 -243.43,267.26zm571.85 51.99l9.18 0c22.23,0 33.55,-69.41 -6.83,-112.43l-141.11 -121.89c-4.4,-4.76 -5.78,-6.58 -10.29,-11.12 -34.47,-34.7 -48.3,-49.85 -75.39,-89.73 -7.44,-10.95 -8.19,-18.31 -23.26,-19.56 2.25,9.66 6.51,16.56 9.62,27.07l19.14 94.01c11.33,45.13 23.78,70.34 43.67,106.18 12.35,22.25 16.65,26.29 30.63,42.76 34.06,40.14 83.81,84.71 144.64,84.71z"/>
     <path class="fil0" d="M4165.11 116.2c-106.37,0 -115.67,-65.59 -198.16,-14.67 -36.51,22.54 -138.76,17.73 -184.09,17.73 -89.7,0 -179.41,0 -269.11,0 -89.1,0 -174.16,-3.06 -266.05,-3.06l-1137.59 0c-13.43,0 -11.27,9.4 -9.18,18.35l1709.45 0c40.97,0 89.65,0.79 125.56,5.94 41.06,5.88 74.9,12.02 115.96,9.43 33.96,-2.15 70.14,-15.37 119.33,-15.37 63.84,0 111.72,22.54 152.75,46.02 20.06,11.48 42,25.54 59.09,41.82l23.21 26.08c15.41,10.65 24.88,0.45 24.88,-22.18 0,-22.28 -12.23,-28.22 -12.23,-55.04 0,-10.24 10.01,-10.29 20.19,-13.46 26.36,-8.21 24.59,-6.25 49.1,-18.18 9.57,-4.66 16.95,-6.65 25.51,-11.17 -6.63,-12.54 -7.74,-11.71 -20.12,-19.64 -33.26,-21.29 -74.68,-30.91 -74.68,-44.58 0,-23.2 9.18,-10.8 9.18,-64.22 -22.53,0 -39.61,17.74 -63.8,37.11 -8.63,6.92 -16.69,13.24 -26.97,18.9 -50.19,27.62 -112.08,60.19 -172.23,60.19z"/>
    </g>
    <g>
     <path class="fil0" d="M10230.32 272.16c10.53,-7.72 9.47,-34.62 62.49,-75.12 25.94,-19.82 40.3,-19.68 75.12,-19.68 21.96,0 -16.92,31.82 -33.28,76.81 -25.05,68.89 -31.54,143.81 -39.85,217.03 -2.38,20.95 -6.39,37.17 -8.96,55.26 -7.67,53.94 -17.15,110.65 -33.74,161.97 -10.49,32.47 -18.78,67.18 -32.96,98.54 -7.35,16.25 -11.99,29.82 -19.44,44.78 -13.75,27.66 -26,59.67 -42.18,86.25 -8.09,13.28 -18.95,28.53 -18.95,48.34 17.71,-0.4 28.29,-11.13 42.82,-18.35 122.63,-60.99 192.06,-88.91 329.07,-120.47 70.29,-16.18 148.14,-19.41 223.52,-30.29 52.26,-7.54 103.08,-23 150.37,-42.29 14.09,-5.74 28.66,-16.49 46.26,-17.96 0,30.9 -10.84,60.14 -31.26,81.9 -37.52,39.99 -24.48,27.08 -49.15,36.46 -17.73,6.74 -23.18,23.71 4.35,34.16 23.79,9.02 44.58,24.35 65.69,38.28 56.1,37.03 97.29,91.43 129.05,149.23 27.02,49.2 28.78,131.37 21.23,191.31 -4.84,38.46 -28.72,76.37 -55.05,103.97 -35.04,36.74 -39.31,45.32 -87.73,74.34 -69,41.34 -114.49,33.46 -192.85,33.46 -43.35,0 -111.87,-40.02 -135.49,-72.46l-39.87 -64.1c-40.61,-81.02 -18.46,-173.17 34.62,-242.71 39.12,-51.25 144.2,-72 209.11,-40.77 50.62,24.36 93.71,65.91 93.71,126.47 0,23.33 -3.06,34.1 -3.06,58.1 -14.83,-3.96 -21.28,-25.37 -28.57,-38.71 -12.09,-22.12 -17.3,-19.67 -17.3,-53.03 -12.28,3.28 -8.85,0.83 -9.17,15.29 -20.29,-10.74 -37.08,-32.35 -54.59,-46.33 -29.14,-23.26 -39.68,-36.24 -83.02,-36.24 -39.52,0 -82.05,23.01 -101.57,54.4 -17.16,27.62 -42.16,75.18 -42.16,116.85 0,45.47 42.8,116.48 65.11,142.84 24.45,28.9 59.96,49.11 97.48,58.48 52.04,12.99 114.76,2.16 160.45,-12.83 36.27,-11.91 62.27,-24.66 87.49,-47.07 104.02,-92.46 111.58,-234.41 41.94,-349.25 -39.76,-65.58 -94.17,-102.72 -158.29,-141.4 -66.02,-39.83 -249.86,-81.44 -312.53,-51.37 1.23,14.71 6.33,13.72 15.72,20.97 7.16,5.54 12.06,11.33 18.73,17.97 24.31,24.21 23.65,40.52 23.65,74.2 0,15.24 -11.87,39.22 -19.16,48.13 -11.15,13.62 -23.41,23.17 -38.94,31.39 0,-64.16 11.12,-108.76 -38.98,-153.68 -42.38,-38 -94.29,-11.44 -140.8,1.42l-88.02 31.24c-42.97,17.24 -78.4,36.06 -118.47,55.84 -18.89,9.33 -29.62,5.76 -29.62,31.54 18.45,4.3 8.67,0.57 25.88,-4.62 22.31,-6.73 75.74,-19.85 96.44,-19.85 22.89,0 34.66,1.59 56.26,7.95 12.41,3.66 20.01,3.86 33.77,5.99 25.2,3.91 42.38,4.44 53.7,25.82 -8.84,10.16 -10.23,12.46 -27.12,15.69 -44.68,8.56 -92.89,14.89 -141.08,14.89 -89.59,0 -88.29,-19.13 -172.39,11.09 -9.73,3.49 -38.49,19.12 -29.76,-1.46 9.37,-22.07 24.79,-38.73 24.79,-67.73l0 -67.28c0,-41.95 -6.12,-71.78 -6.12,-113.15 0,-13.36 9.94,-6.48 15.87,-20.83 10.87,-26.31 4.84,-67.89 17.77,-92.32 20.38,13.65 25.19,60.89 29.41,86.79 6.74,41.35 4.73,99.36 -7.63,139.88 -18.91,61.95 10.1,49.92 30.22,5.76 3.73,-8.2 6.6,-10.81 11.21,-19.37 23.31,-43.21 41.7,-93.45 58.72,-140.05 20.89,-57.18 62.73,-155.73 -6.94,-197.17 -84.27,-50.13 -68.58,-16.51 -139.46,-16.51 1.51,-18.07 21.48,-34.6 33.55,-42.9 27.28,-18.78 97.09,-20.57 121.63,-2.18 11.67,8.75 24.01,29.79 43.6,29.79 22.61,0 10.26,-57.76 9.17,-67.28 -1.58,-13.83 -1.96,-23.56 -3.5,-39.3 -1.09,-11.07 -4.1,-24.11 -5.84,-36.98 -7.59,-56.42 -28.04,-113.49 -55.43,-158.63 -21.31,-35.12 -46.42,-67.4 -73.72,-97.53 -35.07,-38.7 -81.92,-65.13 -129.62,-84.44 -18.94,-7.67 -93.45,-15.62 -113.87,-14.27 -49.53,3.28 -86.94,19.31 -123.06,48.44l-44.53 41.09c-42.94,51.87 -74.27,112.31 -74.27,188.72 0,11.62 1.04,9.27 3.38,18.03 1.75,6.55 1.8,8.9 3.59,17.81 1.79,8.94 6.46,25.03 10.14,35.74 14.5,42.22 47.11,76.22 83.14,100.34 18.66,12.49 39.15,21.46 64.2,27.54 51.78,12.57 108.89,7.36 149.29,-17.21 10.18,-6.19 18.06,-11.57 26.71,-19.16 0.78,-0.68 4.77,-4.29 4.83,-4.35 0.45,-0.44 1.09,-1.08 1.54,-1.52 48.58,-49.11 61.53,-102.72 11.71,-157.96l-58.84 -51.24c12.03,-16.43 12.23,-2.55 12.23,-27.53 0,-18.52 -47.02,-15.36 -63.64,-18.92 -9.9,-2.12 -11.79,-2.42 -12.81,-14.72 61.02,-14.21 112.19,-4.5 153.65,42.07 64.92,72.93 54.15,198.43 -28.82,254.02 -40.82,27.35 -96.96,52.53 -149.29,52.53 -24.47,0 -69.12,-12.92 -89.74,-23.41 -30.17,-15.34 -45.81,-24.98 -68.52,-47.69 -20.59,-20.59 -33.87,-37.76 -47.67,-65.47 -22.29,-44.8 -26.49,-72.1 -26.49,-123.36 0,-31.79 19.77,-91.24 30.52,-113.22 11.02,-22.55 25.58,-45.73 43.63,-63.4 18.35,-17.95 33.61,-36.82 53.81,-53.22 36.86,-29.93 109.87,-61.15 161.26,-56.35 69.82,6.52 156.25,36.27 205.48,85.06 51,50.54 59.44,64.89 99.46,117.67 9.3,12.27 21.99,43.37 26.63,46.76zm397.54 207.95c5.62,5.62 2.99,5.72 -0.11,14.72 -2.71,7.88 -4,7.41 -6.69,18.23 -8.37,33.64 -4.34,38.57 -64.51,52.23 -13.31,3.03 -22.93,8.53 -18.11,-39.81 2.97,-29.78 1.45,-26.21 51.37,-40.61 9.28,-2.68 9.99,-3.29 19.78,-5.04 10.39,-1.86 13.58,-4.42 18.27,0.28zm403.67 162.07l0 9.18c-41.9,0 -102.13,-39.58 -135.03,-63.74 -19.63,-14.42 -36.55,-28.21 -58.64,-39.23l-51.58 -21.81c-12.02,-4.74 -11.59,-1.25 -14.69,-12.83 61.49,0 59.63,-7.94 123.91,10.64 11.4,3.29 26.09,10.11 36.61,15.38 33.79,16.93 99.42,66.22 99.42,102.41zm-434.25 -302.74c-16.39,-10.98 -29.88,-48.03 -39.68,-67.35l-42.87 -67.22c-14.37,-20.24 -32.93,-44.94 -42.79,-67.3 -6.95,-15.79 -10.79,-22.67 -18.38,-36.66 -7.02,-12.93 -15.29,-19.48 -15.29,-39.75 17.61,1.46 54.58,28.72 68.18,38.85 83.93,62.5 73.89,143.81 82.03,165.66 8.07,21.63 8.8,48.74 8.8,73.77zm363.91 1259.91c-18.63,27.83 -40.04,34.67 -58.59,48.44 -21.05,15.64 -39.87,30.14 -58.38,48.65 -153.51,153.5 -21,260.7 28.29,260.7 17.61,0 37.78,-0.38 49.17,-15.04 6.59,-8.48 9.16,-25.92 11.15,-37.78 2.24,-13.3 2.92,-33.69 11.25,-40.74 8.4,-7.11 29.34,-6.02 29.34,-19.59 0,-28.49 -30.6,-46.29 -55.04,-51.98l0 -12.23c9.57,-0.8 10.86,-3.06 21.41,-3.06 34.06,0 104.84,57.42 64.32,134.66 -9.35,17.82 -40.02,49.02 -54.13,55.96 -56.81,27.89 -150.91,3.49 -178.42,-56.03 -19.51,-42.2 -15.26,-37.73 -15.26,-88.72 0,-55.22 56.03,-121.85 58.11,-146.79 -17.69,1.47 -10.37,1.9 -27.97,0.46l-60.54 5.51c-10.59,-0.3 -12.88,-2.73 -27.68,-2.93 -45.31,-0.59 -71.86,-16.24 -107.05,-24.44l0 -9.18c9.24,-2.15 14.56,-5.8 24.53,-6.08l176.83 27.07c29.43,-1.76 47.15,-7.83 71.26,-20.53l97.4 -46.33zm-140.67 -1366.94c17.33,-4.63 18.09,-16.07 34.41,-20.64 30.23,-8.47 74.47,-38.46 46.45,31.16 -10.85,26.94 -21.73,35.21 -22.75,47.58 9.79,2.62 91.48,61.98 27.72,61.37 -36.29,-0.35 -71.52,5.94 -104.91,14.35 -24.93,6.28 -82.32,36.69 -109.36,49.66 0.31,-13.8 15.1,-42.26 21.44,-55.01l33.45 -85.82 11.02 -68.49c3.87,-23.32 3.53,-26.15 19.72,-26.15 15.52,0 26.51,41.07 42.81,51.99zm15.29 470.93c-29.53,14.18 -60.1,10.36 -100.96,12.2 -50.34,2.26 -27.11,30.62 -85.58,30.62 -27.17,0 -49.12,-11.91 -75.93,-8.8 -8.76,1.01 -28.99,1.86 -39.18,3.78 -20.44,3.84 -8.92,7.27 -34.64,8.17 -68.83,2.39 -111.74,30.56 -137.71,36.6 4.06,-15.19 24.98,-31.79 37.94,-41.57 59.17,-44.62 167.63,-108.27 243.4,-108.27 58.53,0 112.04,9.66 162.71,39.12 15.8,9.18 25.53,9.16 29.95,28.15zm-373.08 -287.45l0 64.22c0,62.44 -54.55,163.43 -92.14,210.61 -8.81,11.07 -14.31,16.77 -22.81,29.17 -4.96,7.22 -6.08,7.7 -10.74,13.73 -5.6,7.26 -4.64,9.78 -14.98,12.54 0.58,-25.86 40.65,-89.23 39.76,-238.53 -0.26,-43.16 5.78,-87.08 13.99,-123.62 11.11,-49.43 5.99,-70.14 31.87,-108.79 14.96,7.91 15.41,10.39 23.98,24.96 19.29,32.81 31.07,73.21 31.07,115.71zm-1131.48 -241.59c0,15.37 -2.75,13.7 -3.06,27.53 -18.54,-4.95 -33.46,-42.61 -61.16,-61.16 -26.29,6.12 -17.2,27.12 -69.06,37.97 -17.72,3.71 -28.27,3.1 -41.08,10.9 -49.46,30.12 5.84,92.73 24.48,107.12 13.17,10.17 17.77,14.72 35.39,22.71 21.3,9.67 33.14,13.95 56.39,13.95 24.78,0 71.09,-24.35 86.09,-36.22 11.61,-9.2 22.88,-17.31 33.96,-27.21 16.73,-14.94 29.74,-24.32 44.14,-47.59l37.63 -54.13c8.82,-13.42 46.79,-57.3 61.17,-61.14 -2.08,7.79 -8.83,15.14 -14.06,22.64l-43.94 66.14c-7.65,13.16 -45.98,87.3 -45.98,100.82 0,85.7 5.3,53.43 27.54,131.48 3.45,12.11 9.9,36.41 8.07,50.88 -2.4,18.96 -10.45,33.17 -29.49,34.76 -28.21,-53.32 -27.52,-149.95 -27.52,-217.12 -23.05,0.51 -81.62,58.1 -128.44,58.1 -52.09,0 -73.34,-3.25 -118.02,-37.94 -23.69,-18.39 -42.37,-49.77 -49.51,-79.01 -8.47,-34.77 8.64,-74.16 24.59,-96.33 37.26,-51.77 60.52,-49.71 115.42,-49.71 27.1,0 76.45,39.57 76.45,82.56z"/>
     <path class="fil0" d="M6909.28 116.2c106.37,0 115.67,-65.59 198.15,-14.67 36.52,22.54 138.77,17.73 184.1,17.73 89.7,0 179.41,0 269.11,0 89.1,0 174.15,-3.06 266.05,-3.06l1137.59 0c13.43,0 11.26,9.4 9.18,18.35l-1709.45 0c-40.97,0 -89.66,0.79 -125.56,5.94 -41.06,5.88 -74.9,12.02 -115.96,9.43 -33.96,-2.15 -70.14,-15.37 -119.33,-15.37 -63.85,0 -111.72,22.54 -152.75,46.02 -20.06,11.48 -42,25.54 -59.1,41.82l-23.2 26.08c-15.41,10.65 -24.88,0.45 -24.88,-22.18 0,-22.28 12.23,-28.22 12.23,-55.04 0,-10.24 -10.01,-10.29 -20.19,-13.46 -26.36,-8.21 -24.59,-6.25 -49.1,-18.18 -9.57,-4.66 -16.96,-6.65 -25.51,-11.17 6.63,-12.54 7.74,-11.71 20.12,-19.64 33.25,-21.29 74.68,-30.91 74.68,-44.58 0,-23.2 -9.18,-10.8 -9.18,-64.22 22.52,0 39.61,17.74 63.8,37.11 8.63,6.92 16.69,13.24 26.97,18.9 50.19,27.62 112.07,60.19 172.23,60.19z"/>
    </g>
   </g>
   <g id="_2235528184032">
    <g>
     <path class="fil0" d="M844.07 20047.84c-10.53,7.72 -9.47,34.62 -62.49,75.12 -25.94,19.82 -40.3,19.68 -75.12,19.68 -21.96,0 16.92,-31.82 33.28,-76.81 25.04,-68.89 31.54,-143.81 39.85,-217.03 2.38,-20.95 6.39,-37.17 8.96,-55.26 7.67,-53.94 17.15,-110.65 33.74,-161.97 10.49,-32.47 18.78,-67.18 32.96,-98.54 7.35,-16.25 11.99,-29.82 19.44,-44.78 13.75,-27.66 26,-59.67 42.18,-86.25 8.09,-13.28 18.94,-28.53 18.94,-48.34 -17.7,0.4 -28.28,11.13 -42.81,18.35 -122.63,60.99 -192.07,88.91 -329.07,120.47 -70.29,16.18 -148.14,19.41 -223.52,30.29 -52.26,7.54 -103.08,23 -150.37,42.29 -14.09,5.74 -28.67,16.49 -46.26,17.96 0,-30.9 10.84,-60.14 31.25,-81.9 37.53,-39.99 24.49,-27.08 49.16,-36.46 17.73,-6.74 23.18,-23.71 -4.35,-34.16 -23.79,-9.02 -44.58,-24.35 -65.69,-38.28 -56.11,-37.03 -97.29,-91.43 -129.05,-149.23 -27.03,-49.2 -28.78,-131.37 -21.23,-191.31 4.84,-38.46 28.72,-76.37 55.05,-103.97 35.04,-36.74 39.31,-45.32 87.73,-74.34 69,-41.34 114.49,-33.46 192.84,-33.46 43.36,0 111.88,40.02 135.5,72.46l39.87 64.1c40.61,81.02 18.46,173.17 -34.62,242.71 -39.12,51.25 -144.2,72 -209.11,40.77 -50.62,-24.36 -93.71,-65.91 -93.71,-126.47 0,-23.33 3.05,-34.1 3.05,-58.1 14.84,3.96 21.29,25.37 28.58,38.71 12.09,22.12 17.3,19.67 17.3,53.03 12.28,-3.28 8.85,-0.83 9.17,-15.29 20.29,10.74 37.08,32.35 54.59,46.33 29.14,23.26 39.68,36.24 83.02,36.24 39.52,0 82.05,-23.01 101.56,-54.4 17.17,-27.62 42.17,-75.18 42.17,-116.85 0,-45.47 -42.8,-116.48 -65.11,-142.84 -24.45,-28.9 -59.96,-49.11 -97.48,-58.48 -52.04,-12.99 -114.76,-2.16 -160.45,12.83 -36.27,11.91 -62.27,24.66 -87.49,47.07 -104.02,92.46 -111.59,234.41 -41.94,349.25 39.76,65.58 94.17,102.72 158.29,141.4 66.02,39.83 249.86,81.44 312.53,51.37 -1.23,-14.71 -6.33,-13.72 -15.72,-20.97 -7.16,-5.54 -12.06,-11.33 -18.73,-17.97 -24.31,-24.21 -23.65,-40.52 -23.65,-74.2 0,-15.24 11.87,-39.22 19.15,-48.13 11.16,-13.62 23.42,-23.17 38.95,-31.39 0,64.16 -11.12,108.76 38.98,153.68 42.38,38 94.29,11.44 140.8,-1.42l88.02 -31.24c42.97,-17.24 78.4,-36.06 118.47,-55.84 18.89,-9.33 29.62,-5.76 29.62,-31.54 -18.45,-4.3 -8.68,-0.57 -25.88,4.62 -22.31,6.73 -75.74,19.85 -96.44,19.85 -22.9,0 -34.66,-1.59 -56.27,-7.95 -12.41,-3.66 -20,-3.86 -33.76,-5.99 -25.2,-3.91 -42.38,-4.44 -53.7,-25.82 8.84,-10.16 10.23,-12.46 27.12,-15.69 44.68,-8.56 92.89,-14.89 141.08,-14.89 89.59,0 88.29,19.13 172.39,-11.09 9.72,-3.49 38.49,-19.12 29.76,1.46 -9.37,22.07 -24.79,38.73 -24.79,67.73l0 67.28c0,41.95 6.12,71.78 6.12,113.15 0,13.36 -9.94,6.48 -15.87,20.83 -10.87,26.31 -4.84,67.89 -17.77,92.32 -20.38,-13.65 -25.19,-60.89 -29.41,-86.79 -6.74,-41.35 -4.73,-99.36 7.63,-139.88 18.91,-61.95 -10.1,-49.92 -30.22,-5.76 -3.74,8.2 -6.6,10.81 -11.22,19.37 -23.3,43.21 -41.69,93.45 -58.71,140.05 -20.9,57.18 -62.73,155.73 6.94,197.17 84.27,50.13 68.58,16.51 139.46,16.51 -1.51,18.07 -21.48,34.6 -33.55,42.9 -27.28,18.78 -97.09,20.57 -121.63,2.18 -11.67,-8.75 -24.01,-29.79 -43.6,-29.79 -22.61,0 -10.26,57.76 -9.17,67.28 1.57,13.83 1.96,23.56 3.5,39.3 1.09,11.07 4.1,24.11 5.84,36.98 7.59,56.42 28.04,113.49 55.43,158.63 21.31,35.12 46.42,67.4 73.72,97.53 35.07,38.7 81.92,65.13 129.62,84.44 18.94,7.67 93.45,15.62 113.87,14.27 49.53,-3.28 86.94,-19.31 123.06,-48.44l44.53 -41.09c42.94,-51.87 74.27,-112.31 74.27,-188.72 0,-11.62 -1.04,-9.27 -3.38,-18.03 -1.75,-6.55 -1.8,-8.9 -3.59,-17.81 -1.79,-8.94 -6.46,-25.03 -10.14,-35.74 -14.5,-42.22 -47.11,-76.22 -83.14,-100.34 -18.66,-12.49 -39.15,-21.46 -64.2,-27.54 -51.78,-12.57 -108.89,-7.36 -149.29,17.21 -10.18,6.19 -18.06,11.57 -26.71,19.16 -0.78,0.68 -4.77,4.29 -4.83,4.35 -0.45,0.44 -1.09,1.08 -1.54,1.52 -48.58,49.11 -61.53,102.72 -11.71,157.96l58.84 51.24c-12.03,16.43 -12.23,2.55 -12.23,27.53 0,18.52 47.02,15.36 63.64,18.92 9.9,2.12 11.79,2.42 12.81,14.72 -61.02,14.21 -112.19,4.5 -153.65,-42.07 -64.92,-72.93 -54.15,-198.43 28.82,-254.02 40.82,-27.35 96.96,-52.53 149.29,-52.53 24.47,0 69.12,12.92 89.74,23.41 30.17,15.34 45.81,24.98 68.52,47.69 20.59,20.59 33.87,37.76 47.67,65.47 22.29,44.8 26.49,72.1 26.49,123.36 0,31.79 -19.77,91.24 -30.52,113.22 -11.02,22.55 -25.58,45.73 -43.63,63.4 -18.35,17.95 -33.61,36.82 -53.81,53.22 -36.86,29.93 -109.87,61.15 -161.26,56.35 -69.82,-6.52 -156.25,-36.27 -205.48,-85.06 -51,-50.54 -59.44,-64.89 -99.46,-117.67 -9.3,-12.27 -21.99,-43.37 -26.63,-46.76zm-397.55 -207.95c-5.62,-5.62 -2.98,-5.72 0.12,-14.72 2.71,-7.88 4,-7.41 6.69,-18.23 8.37,-33.64 4.33,-38.57 64.51,-52.23 13.31,-3.03 22.93,-8.53 18.11,39.81 -2.97,29.78 -1.45,26.21 -51.37,40.61 -9.28,2.68 -9.99,3.29 -19.78,5.04 -10.39,1.86 -13.58,4.42 -18.28,-0.28zm-403.66 -162.07l0 -9.18c41.9,0 102.13,39.58 135.03,63.74 19.63,14.42 36.55,28.21 58.64,39.23l51.58 21.81c12.02,4.74 11.59,1.25 14.69,12.83 -61.49,0 -59.63,7.94 -123.91,-10.64 -11.4,-3.29 -26.09,-10.11 -36.61,-15.38 -33.79,-16.93 -99.42,-66.22 -99.42,-102.41zm434.25 302.74c16.39,10.98 29.87,48.03 39.68,67.35l42.87 67.22c14.37,20.24 32.93,44.94 42.79,67.3 6.95,15.79 10.79,22.67 18.38,36.66 7.02,12.93 15.29,19.48 15.29,39.75 -17.61,-1.46 -54.58,-28.72 -68.18,-38.85 -83.93,-62.5 -73.89,-143.81 -82.03,-165.66 -8.07,-21.63 -8.8,-48.74 -8.8,-73.77zm-363.91 -1259.91c18.63,-27.83 40.04,-34.67 58.59,-48.44 21.05,-15.64 39.87,-30.14 58.38,-48.65 153.51,-153.5 21,-260.7 -28.29,-260.7 -17.61,0 -37.78,0.38 -49.17,15.04 -6.59,8.48 -9.16,25.92 -11.15,37.78 -2.24,13.3 -2.92,33.69 -11.25,40.74 -8.41,7.11 -29.34,6.02 -29.34,19.59 0,28.49 30.6,46.29 55.04,51.98l0 12.23c-9.57,0.8 -10.86,3.06 -21.41,3.06 -34.06,0 -104.84,-57.42 -64.32,-134.66 9.35,-17.82 40.02,-49.02 54.13,-55.96 56.81,-27.89 150.91,-3.49 178.42,56.03 19.51,42.2 15.26,37.73 15.26,88.72 0,55.22 -56.03,121.85 -58.11,146.79 17.69,-1.47 10.37,-1.9 27.97,-0.46l60.54 -5.51c10.58,0.3 12.88,2.73 27.68,2.93 45.31,0.59 71.86,16.24 107.05,24.44l0 9.18c-9.24,2.15 -14.57,5.8 -24.53,6.08l-176.83 -27.07c-29.43,1.76 -47.15,7.83 -71.26,20.53l-97.4 46.33zm140.67 1366.94c-17.33,4.63 -18.09,16.07 -34.41,20.64 -30.23,8.47 -74.48,38.46 -46.45,-31.16 10.85,-26.94 21.72,-35.21 22.75,-47.58 -9.79,-2.62 -91.49,-61.98 -27.72,-61.37 36.29,0.35 71.52,-5.94 104.91,-14.35 24.93,-6.28 82.32,-36.69 109.36,-49.66 -0.31,13.8 -15.1,42.26 -21.44,55.01l-33.45 85.82 -11.02 68.49c-3.88,23.32 -3.53,26.15 -19.72,26.15 -15.52,0 -26.51,-41.07 -42.81,-51.99zm-15.29 -470.93c29.53,-14.18 60.1,-10.36 100.95,-12.2 50.35,-2.26 27.12,-30.62 85.59,-30.62 27.17,0 49.12,11.91 75.93,8.8 8.75,-1.01 28.99,-1.86 39.18,-3.78 20.44,-3.84 8.92,-7.27 34.64,-8.17 68.83,-2.39 111.74,-30.56 137.71,-36.6 -4.06,15.19 -24.98,31.79 -37.94,41.57 -59.17,44.62 -167.63,108.27 -243.4,108.27 -58.53,0 -112.04,-9.66 -162.72,-39.12 -15.79,-9.18 -25.52,-9.16 -29.94,-28.15zm373.08 287.45l0 -64.22c0,-62.44 54.55,-163.43 92.13,-210.61 8.82,-11.07 14.32,-16.77 22.82,-29.17 4.96,-7.22 6.08,-7.7 10.74,-13.73 5.6,-7.26 4.64,-9.78 14.98,-12.54 -0.58,25.86 -40.65,89.23 -39.76,238.53 0.26,43.16 -5.78,87.08 -13.99,123.62 -11.11,49.43 -5.99,70.14 -31.88,108.79 -14.95,-7.91 -15.4,-10.39 -23.97,-24.96 -19.29,-32.81 -31.07,-73.21 -31.07,-115.71zm1131.48 241.59c0,-15.37 2.75,-13.7 3.06,-27.53 18.54,4.95 33.46,42.61 61.16,61.16 26.29,-6.12 17.2,-27.12 69.05,-37.97 17.72,-3.71 28.28,-3.1 41.09,-10.9 49.46,-30.12 -5.84,-92.73 -24.49,-107.12 -13.16,-10.17 -17.77,-14.72 -35.38,-22.71 -21.3,-9.67 -33.14,-13.95 -56.39,-13.95 -24.78,0 -71.09,24.35 -86.09,36.22 -11.61,9.2 -22.88,17.31 -33.96,27.21 -16.73,14.94 -29.74,24.32 -44.15,47.59l-37.62 54.13c-8.82,13.42 -46.79,57.3 -61.17,61.14 2.08,-7.79 8.83,-15.14 14.06,-22.64l43.94 -66.14c7.64,-13.16 45.97,-87.3 45.97,-100.82 0,-85.7 -5.29,-53.43 -27.53,-131.48 -3.45,-12.11 -9.9,-36.41 -8.07,-50.88 2.4,-18.96 10.45,-33.17 29.49,-34.76 28.21,53.32 27.52,149.95 27.52,217.12 23.05,-0.51 81.62,-58.1 128.44,-58.1 52.09,0 73.34,3.25 118.02,37.94 23.69,18.39 42.37,49.77 49.51,79.01 8.47,34.77 -8.64,74.16 -24.59,96.33 -37.26,51.77 -60.52,49.71 -115.42,49.71 -27.1,0 -76.45,-39.57 -76.45,-82.56z"/>
     <path class="fil0" d="M4712.51 20096.77c0,-52.99 35.91,-129.97 71.56,-157.79 17.49,-13.65 32.51,-30.78 51.31,-43.49 95.38,-64.49 33.09,-33.35 33.09,-132.05 0,-24.68 43.39,17.45 80.74,32.4 47.23,18.9 103.18,27.32 152.1,43.62 17.33,5.78 31.36,11.19 49.68,17.6l47.38 16.84c8.15,3.34 13.95,6.74 22.78,10.85 83.32,38.83 150.72,77.42 216.88,143.97 12.12,12.19 21.5,22.7 32.79,34.5 12.29,12.84 61.44,62.96 70.42,64.13 16.92,-3.95 24.87,-17.23 35.93,-28.29 43.54,-43.54 82.57,-91.31 133.49,-126.44 14.34,-9.9 24.59,-18.18 39.82,-27.46 14.71,-8.98 24.97,-15.72 39.74,-24.48 14.37,-8.52 29.61,-15.49 44.13,-23.14 103.25,-54.37 287.01,-80.21 356.04,-133.25 8.02,-6.17 10.33,-9.73 23.62,-10.03l3.06 30.59c0,40.75 -38.03,57.12 -12.83,80.1 47.94,43.71 96.58,34.62 146.4,141.05 37.27,79.65 22.49,146.64 -26.94,212.69 -23.47,31.35 -62.81,63.62 -115.72,64.71 -82.24,1.69 -141.2,-0.43 -180.6,-79.52 -35.09,-70.44 -0.27,-220.26 97.95,-220.26 36.37,0 82.42,-3.3 104.07,27.42 14.09,19.98 32.93,59.75 18.18,85.66 -7.16,12.59 -25.63,38.2 -41.3,41.53 -25.06,5.32 1.61,-39.41 1.61,-44.52 0,-12.54 -21.94,-52.59 -29.92,-58.76 -41.91,-32.45 -147.44,-5.42 -147.44,92.4 0,113.05 109.13,160.39 171.28,143.77 65.19,-17.44 126.07,-73.05 145.32,-139.09 5.25,-17.98 4.49,-40.4 4.49,-59.73 0,-17.68 -9.62,-30.35 -14.86,-43.24 -17.61,-43.33 -36.25,-72.99 -74.22,-103.15 -55.75,-44.3 -120.83,-61.56 -195.32,-61.56 -30.55,0 -65.69,1.69 -85.62,12.24 8.76,13.09 22.13,14.47 32.36,25.74 35.72,39.36 3.57,113.79 -47.65,114.93 0.83,-37.42 24.2,-28.56 -0.98,-78.53 -10.3,-20.43 -22.66,-52.97 -51.01,-52.97 -33.39,0 -115.16,48.47 -145.55,68.52l-74.69 53.74c-32.36,24.56 -61.28,52.53 -89.45,81.81l-40.06 45.56c-10.58,15.59 5.23,63.28 -23.91,63.88 -27.22,0.55 13.61,-33.22 -59.76,-109.44 -29.16,-30.3 -57.48,-57.44 -88.77,-85.54 -15.99,-14.37 -33.49,-21.12 -51.43,-34.19 -17.29,-12.6 -32.48,-23.41 -52.22,-33.41 -34.39,-17.45 -87.19,-50.93 -126.44,-50.93 -26.7,0 -55.05,70 -55.05,94.8 0,21.79 8.41,20.29 12.23,36.7 -37.16,-0.83 -58.85,-31.16 -67.94,-63.75 -9.64,-34.58 44.05,-59.22 49.6,-79.98 -28.95,-13.89 -88.68,-9.18 -125.38,-9.18 -62.36,0 -120.86,31.73 -164.24,68.18 -20.59,17.31 -38.69,41.14 -50.91,65.29 -34.63,68.41 -43.83,130.53 7.89,193.05 21.54,26.05 38.55,47.85 70.57,63.99 46.53,23.46 79.19,21.91 127.2,6.73 111.18,-35.17 115.25,-223.5 12.12,-237.83 -26,-3.61 -52.51,-2.31 -70.52,11.23 -12.99,9.77 -29.97,39.9 -29.97,61.78 0,9.68 3.08,11.59 5.47,19 2.86,8.92 3.71,12.81 3.71,23.81 -17.49,-1.46 -22.9,-12.25 -32.89,-22.16 -18.35,-18.22 -22.16,-25.08 -22.16,-51.23 0,-25.25 18.53,-49.32 32.81,-61.99 25.92,-22.98 109.84,-29.76 141.96,-8.81 29.83,19.45 47.84,56.5 57.11,89.68 6.22,22.26 4.65,42.21 3.65,63.67 -4.59,99.38 -70.73,137.63 -165.2,137.63 -89.28,0 -135.23,-47.72 -169.23,-115.17 -9.75,-19.34 -20.36,-46.88 -20.36,-74.43zm828.73 -529.04c25.26,0 19.2,49.56 33.39,67.51 11.28,14.28 62.79,15.05 82.81,15.05 -1.2,14.44 1.58,4.45 -6.65,14.76 -27.38,34.3 -35.55,59.67 -54.92,91.86 -0.9,1.5 -3.53,5.94 -4.84,7.39 -4.7,5.18 0.35,2.6 -6.98,5.26 0,-40.6 7.84,-73.43 -12.15,-79.59 -11.93,-3.68 -70.42,-11.39 -70.42,21.48 0,10.63 2.77,55.4 0,61.16 -21.06,-14.1 -31.57,-65.96 -55.79,-90.98 -4.76,-4.92 -7.09,-8.34 -11.34,-13.45 -6.17,-7.39 -11.61,-8.31 -5.7,-14.09 12.45,-12.21 62.42,0.03 80.93,-17.1 14.52,-13.44 9.07,-69.26 31.66,-69.26zm272.16 495.4c40.56,0 73.84,34.9 89.78,66.18 51.7,101.47 -39.61,16.39 -126.47,16.39 -88.92,0 -185.18,73.91 -122.85,-3.59 11.34,-14.1 62.57,-50.94 87.28,-59.5 18.47,-6.41 42.56,-19.48 72.26,-19.48zm-547.39 0c67.49,0 182.36,65.73 183.48,116.2 -45.08,-3.75 -111.46,-67.7 -241.49,-9.08 -38.88,17.53 -49.04,13.6 -33.77,-24.59 10.49,-26.26 25.13,-50.77 49.46,-66.75 8.12,-5.34 30.29,-15.78 42.32,-15.78zm-24.46 -324.15c0,-19.26 5.66,-33.87 9.17,-48.93 31.89,-2.66 38.13,-8.6 79.55,12.19 48.95,24.58 42.91,30.4 65.5,47.65l34.18 39.21c68.14,103.53 56.66,127.68 78.98,223.77 3.11,13.4 7.5,16.56 7.84,31.91 -12.47,-8.36 -22.72,-24.79 -31.79,-38.54 -87.34,-132.4 -243.43,-188.9 -243.43,-267.26zm571.85 -51.99l9.18 0c22.23,0 33.55,69.41 -6.83,112.43l-141.11 121.89c-4.4,4.76 -5.78,6.58 -10.29,11.12 -34.47,34.7 -48.3,49.85 -75.39,89.73 -7.44,10.95 -8.19,18.31 -23.26,19.56 2.25,-9.66 6.51,-16.56 9.62,-27.07l19.14 -94.01c11.33,-45.13 23.78,-70.34 43.67,-106.18 12.35,-22.25 16.65,-26.29 30.63,-42.76 34.06,-40.14 83.81,-84.71 144.64,-84.71z"/>
     <path class="fil0" d="M4165.11 20203.8c-106.37,0 -115.67,65.59 -198.16,14.67 -36.51,-22.54 -138.76,-17.73 -184.09,-17.73 -89.7,0 -179.41,0 -269.11,0 -89.1,0 -174.16,3.06 -266.05,3.06l-1137.59 0c-13.43,0 -11.27,-9.4 -9.18,-18.35l1709.45 0c40.97,0 89.65,-0.79 125.56,-5.94 41.06,-5.88 74.9,-12.02 115.96,-9.43 33.96,2.15 70.14,15.37 119.33,15.37 63.84,0 111.72,-22.54 152.75,-46.02 20.06,-11.48 42,-25.54 59.09,-41.82l23.21 -26.08c15.41,-10.65 24.88,-0.45 24.88,22.18 0,22.28 -12.23,28.22 -12.23,55.04 0,10.24 10.01,10.29 20.19,13.46 26.36,8.21 24.59,6.25 49.1,18.18 9.57,4.66 16.95,6.65 25.51,11.17 -6.63,12.54 -7.74,11.71 -20.12,19.64 -33.26,21.29 -74.68,30.91 -74.68,44.58 0,23.2 9.18,10.8 9.18,64.22 -22.53,0 -39.61,-17.74 -63.8,-37.11 -8.63,-6.92 -16.69,-13.24 -26.97,-18.9 -50.19,-27.62 -112.08,-60.19 -172.23,-60.19z"/>
    </g>
    <g>
     <path class="fil0" d="M10230.32 20047.84c10.53,7.72 9.47,34.62 62.49,75.12 25.94,19.82 40.3,19.68 75.12,19.68 21.96,0 -16.92,-31.82 -33.28,-76.81 -25.05,-68.89 -31.54,-143.81 -39.85,-217.03 -2.38,-20.95 -6.39,-37.17 -8.96,-55.26 -7.67,-53.94 -17.15,-110.65 -33.74,-161.97 -10.49,-32.47 -18.78,-67.18 -32.96,-98.54 -7.35,-16.25 -11.99,-29.82 -19.44,-44.78 -13.75,-27.66 -26,-59.67 -42.18,-86.25 -8.09,-13.28 -18.95,-28.53 -18.95,-48.34 17.71,0.4 28.29,11.13 42.82,18.35 122.63,60.99 192.06,88.91 329.07,120.47 70.29,16.18 148.14,19.41 223.52,30.29 52.26,7.54 103.08,23 150.37,42.29 14.09,5.74 28.66,16.49 46.26,17.96 0,-30.9 -10.84,-60.14 -31.26,-81.9 -37.52,-39.99 -24.48,-27.08 -49.15,-36.46 -17.73,-6.74 -23.18,-23.71 4.35,-34.16 23.79,-9.02 44.58,-24.35 65.69,-38.28 56.1,-37.03 97.29,-91.43 129.05,-149.23 27.02,-49.2 28.78,-131.37 21.23,-191.31 -4.84,-38.46 -28.72,-76.37 -55.05,-103.97 -35.04,-36.74 -39.31,-45.32 -87.73,-74.34 -69,-41.34 -114.49,-33.46 -192.85,-33.46 -43.35,0 -111.87,40.02 -135.49,72.46l-39.87 64.1c-40.61,81.02 -18.46,173.17 34.62,242.71 39.12,51.25 144.2,72 209.11,40.77 50.62,-24.36 93.71,-65.91 93.71,-126.47 0,-23.33 -3.06,-34.1 -3.06,-58.1 -14.83,3.96 -21.28,25.37 -28.57,38.71 -12.09,22.12 -17.3,19.67 -17.3,53.03 -12.28,-3.28 -8.85,-0.83 -9.17,-15.29 -20.29,10.74 -37.08,32.35 -54.59,46.33 -29.14,23.26 -39.68,36.24 -83.02,36.24 -39.52,0 -82.05,-23.01 -101.57,-54.4 -17.16,-27.62 -42.16,-75.18 -42.16,-116.85 0,-45.47 42.8,-116.48 65.11,-142.84 24.45,-28.9 59.96,-49.11 97.48,-58.48 52.04,-12.99 114.76,-2.16 160.45,12.83 36.27,11.91 62.27,24.66 87.49,47.07 104.02,92.46 111.58,234.41 41.94,349.25 -39.76,65.58 -94.17,102.72 -158.29,141.4 -66.02,39.83 -249.86,81.44 -312.53,51.37 1.23,-14.71 6.33,-13.72 15.72,-20.97 7.16,-5.54 12.06,-11.33 18.73,-17.97 24.31,-24.21 23.65,-40.52 23.65,-74.2 0,-15.24 -11.87,-39.22 -19.16,-48.13 -11.15,-13.62 -23.41,-23.17 -38.94,-31.39 0,64.16 11.12,108.76 -38.98,153.68 -42.38,38 -94.29,11.44 -140.8,-1.42l-88.02 -31.24c-42.97,-17.24 -78.4,-36.06 -118.47,-55.84 -18.89,-9.33 -29.62,-5.76 -29.62,-31.54 18.45,-4.3 8.67,-0.57 25.88,4.62 22.31,6.73 75.74,19.85 96.44,19.85 22.89,0 34.66,-1.59 56.26,-7.95 12.41,-3.66 20.01,-3.86 33.77,-5.99 25.2,-3.91 42.38,-4.44 53.7,-25.82 -8.84,-10.16 -10.23,-12.46 -27.12,-15.69 -44.68,-8.56 -92.89,-14.89 -141.08,-14.89 -89.59,0 -88.29,19.13 -172.39,-11.09 -9.73,-3.49 -38.49,-19.12 -29.76,1.46 9.37,22.07 24.79,38.73 24.79,67.73l0 67.28c0,41.95 -6.12,71.78 -6.12,113.15 0,13.36 9.94,6.48 15.87,20.83 10.87,26.31 4.84,67.89 17.77,92.32 20.38,-13.65 25.19,-60.89 29.41,-86.79 6.74,-41.35 4.73,-99.36 -7.63,-139.88 -18.91,-61.95 10.1,-49.92 30.22,-5.76 3.73,8.2 6.6,10.81 11.21,19.37 23.31,43.21 41.7,93.45 58.72,140.05 20.89,57.18 62.73,155.73 -6.94,197.17 -84.27,50.13 -68.58,16.51 -139.46,16.51 1.51,18.07 21.48,34.6 33.55,42.9 27.28,18.78 97.09,20.57 121.63,2.18 11.67,-8.75 24.01,-29.79 43.6,-29.79 22.61,0 10.26,57.76 9.17,67.28 -1.58,13.83 -1.96,23.56 -3.5,39.3 -1.09,11.07 -4.1,24.11 -5.84,36.98 -7.59,56.42 -28.04,113.49 -55.43,158.63 -21.31,35.12 -46.42,67.4 -73.72,97.53 -35.07,38.7 -81.92,65.13 -129.62,84.44 -18.94,7.67 -93.45,15.62 -113.87,14.27 -49.53,-3.28 -86.94,-19.31 -123.06,-48.44l-44.53 -41.09c-42.94,-51.87 -74.27,-112.31 -74.27,-188.72 0,-11.62 1.04,-9.27 3.38,-18.03 1.75,-6.55 1.8,-8.9 3.59,-17.81 1.79,-8.94 6.46,-25.03 10.14,-35.74 14.5,-42.22 47.11,-76.22 83.14,-100.34 18.66,-12.49 39.15,-21.46 64.2,-27.54 51.78,-12.57 108.89,-7.36 149.29,17.21 10.18,6.19 18.06,11.57 26.71,19.16 0.78,0.68 4.77,4.29 4.83,4.35 0.45,0.44 1.09,1.08 1.54,1.52 48.58,49.11 61.53,102.72 11.71,157.96l-58.84 51.24c12.03,16.43 12.23,2.55 12.23,27.53 0,18.52 -47.02,15.36 -63.64,18.92 -9.9,2.12 -11.79,2.42 -12.81,14.72 61.02,14.21 112.19,4.5 153.65,-42.07 64.92,-72.93 54.15,-198.43 -28.82,-254.02 -40.82,-27.35 -96.96,-52.53 -149.29,-52.53 -24.47,0 -69.12,12.92 -89.74,23.41 -30.17,15.34 -45.81,24.98 -68.52,47.69 -20.59,20.59 -33.87,37.76 -47.67,65.47 -22.29,44.8 -26.49,72.1 -26.49,123.36 0,31.79 19.77,91.24 30.52,113.22 11.02,22.55 25.58,45.73 43.63,63.4 18.35,17.95 33.61,36.82 53.81,53.22 36.86,29.93 109.87,61.15 161.26,56.35 69.82,-6.52 156.25,-36.27 205.48,-85.06 51,-50.54 59.44,-64.89 99.46,-117.67 9.3,-12.27 21.99,-43.37 26.63,-46.76zm397.54 -207.95c5.62,-5.62 2.99,-5.72 -0.11,-14.72 -2.71,-7.88 -4,-7.41 -6.69,-18.23 -8.37,-33.64 -4.34,-38.57 -64.51,-52.23 -13.31,-3.03 -22.93,-8.53 -18.11,39.81 2.97,29.78 1.45,26.21 51.37,40.61 9.28,2.68 9.99,3.29 19.78,5.04 10.39,1.86 13.58,4.42 18.27,-0.28zm403.67 -162.07l0 -9.18c-41.9,0 -102.13,39.58 -135.03,63.74 -19.63,14.42 -36.55,28.21 -58.64,39.23l-51.58 21.81c-12.02,4.74 -11.59,1.25 -14.69,12.83 61.49,0 59.63,7.94 123.91,-10.64 11.4,-3.29 26.09,-10.11 36.61,-15.38 33.79,-16.93 99.42,-66.22 99.42,-102.41zm-434.25 302.74c-16.39,10.98 -29.88,48.03 -39.68,67.35l-42.87 67.22c-14.37,20.24 -32.93,44.94 -42.79,67.3 -6.95,15.79 -10.79,22.67 -18.38,36.66 -7.02,12.93 -15.29,19.48 -15.29,39.75 17.61,-1.46 54.58,-28.72 68.18,-38.85 83.93,-62.5 73.89,-143.81 82.03,-165.66 8.07,-21.63 8.8,-48.74 8.8,-73.77zm363.91 -1259.91c-18.63,-27.83 -40.04,-34.67 -58.59,-48.44 -21.05,-15.64 -39.87,-30.14 -58.38,-48.65 -153.51,-153.5 -21,-260.7 28.29,-260.7 17.61,0 37.78,0.38 49.17,15.04 6.59,8.48 9.16,25.92 11.15,37.78 2.24,13.3 2.92,33.69 11.25,40.74 8.4,7.11 29.34,6.02 29.34,19.59 0,28.49 -30.6,46.29 -55.04,51.98l0 12.23c9.57,0.8 10.86,3.06 21.41,3.06 34.06,0 104.84,-57.42 64.32,-134.66 -9.35,-17.82 -40.02,-49.02 -54.13,-55.96 -56.81,-27.89 -150.91,-3.49 -178.42,56.03 -19.51,42.2 -15.26,37.73 -15.26,88.72 0,55.22 56.03,121.85 58.11,146.79 -17.69,-1.47 -10.37,-1.9 -27.97,-0.46l-60.54 -5.51c-10.59,0.3 -12.88,2.73 -27.68,2.93 -45.31,0.59 -71.86,16.24 -107.05,24.44l0 9.18c9.24,2.15 14.56,5.8 24.53,6.08l176.83 -27.07c29.43,1.76 47.15,7.83 71.26,20.53l97.4 46.33zm-140.67 1366.94c17.33,4.63 18.09,16.07 34.41,20.64 30.23,8.47 74.47,38.46 46.45,-31.16 -10.85,-26.94 -21.73,-35.21 -22.75,-47.58 9.79,-2.62 91.48,-61.98 27.72,-61.37 -36.29,0.35 -71.52,-5.94 -104.91,-14.35 -24.93,-6.28 -82.32,-36.69 -109.36,-49.66 0.31,13.8 15.1,42.26 21.44,55.01l33.45 85.82 11.02 68.49c3.87,23.32 3.53,26.15 19.72,26.15 15.52,0 26.51,-41.07 42.81,-51.99zm15.29 -470.93c-29.53,-14.18 -60.1,-10.36 -100.96,-12.2 -50.34,-2.26 -27.11,-30.62 -85.58,-30.62 -27.17,0 -49.12,11.91 -75.93,8.8 -8.76,-1.01 -28.99,-1.86 -39.18,-3.78 -20.44,-3.84 -8.92,-7.27 -34.64,-8.17 -68.83,-2.39 -111.74,-30.56 -137.71,-36.6 4.06,15.19 24.98,31.79 37.94,41.57 59.17,44.62 167.63,108.27 243.4,108.27 58.53,0 112.04,-9.66 162.71,-39.12 15.8,-9.18 25.53,-9.16 29.95,-28.15zm-373.08 287.45l0 -64.22c0,-62.44 -54.55,-163.43 -92.14,-210.61 -8.81,-11.07 -14.31,-16.77 -22.81,-29.17 -4.96,-7.22 -6.08,-7.7 -10.74,-13.73 -5.6,-7.26 -4.64,-9.78 -14.98,-12.54 0.58,25.86 40.65,89.23 39.76,238.53 -0.26,43.16 5.78,87.08 13.99,123.62 11.11,49.43 5.99,70.14 31.87,108.79 14.96,-7.91 15.41,-10.39 23.98,-24.96 19.29,-32.81 31.07,-73.21 31.07,-115.71zm-1131.48 241.59c0,-15.37 -2.75,-13.7 -3.06,-27.53 -18.54,4.95 -33.46,42.61 -61.16,61.16 -26.29,-6.12 -17.2,-27.12 -69.06,-37.97 -17.72,-3.71 -28.27,-3.1 -41.08,-10.9 -49.46,-30.12 5.84,-92.73 24.48,-107.12 13.17,-10.17 17.77,-14.72 35.39,-22.71 21.3,-9.67 33.14,-13.95 56.39,-13.95 24.78,0 71.09,24.35 86.09,36.22 11.61,9.2 22.88,17.31 33.96,27.21 16.73,14.94 29.74,24.32 44.14,47.59l37.63 54.13c8.82,13.42 46.79,57.3 61.17,61.14 -2.08,-7.79 -8.83,-15.14 -14.06,-22.64l-43.94 -66.14c-7.65,-13.16 -45.98,-87.3 -45.98,-100.82 0,-85.7 5.3,-53.43 27.54,-131.48 3.45,-12.11 9.9,-36.41 8.07,-50.88 -2.4,-18.96 -10.45,-33.17 -29.49,-34.76 -28.21,53.32 -27.52,149.95 -27.52,217.12 -23.05,-0.51 -81.62,-58.1 -128.44,-58.1 -52.09,0 -73.34,3.25 -118.02,37.94 -23.69,18.39 -42.37,49.77 -49.51,79.01 -8.47,34.77 8.64,74.16 24.59,96.33 37.26,51.77 60.52,49.71 115.42,49.71 27.1,0 76.45,-39.57 76.45,-82.56z"/>
     <path class="fil0" d="M6909.28 20203.8c106.37,0 115.67,65.59 198.15,14.67 36.52,-22.54 138.77,-17.73 184.1,-17.73 89.7,0 179.41,0 269.11,0 89.1,0 174.15,3.06 266.05,3.06l1137.59 0c13.43,0 11.26,-9.4 9.18,-18.35l-1709.45 0c-40.97,0 -89.66,-0.79 -125.56,-5.94 -41.06,-5.88 -74.9,-12.02 -115.96,-9.43 -33.96,2.15 -70.14,15.37 -119.33,15.37 -63.85,0 -111.72,-22.54 -152.75,-46.02 -20.06,-11.48 -42,-25.54 -59.1,-41.82l-23.2 -26.08c-15.41,-10.65 -24.88,-0.45 -24.88,22.18 0,22.28 12.23,28.22 12.23,55.04 0,10.24 -10.01,10.29 -20.19,13.46 -26.36,8.21 -24.59,6.25 -49.1,18.18 -9.57,4.66 -16.96,6.65 -25.51,11.17 6.63,12.54 7.74,11.71 20.12,19.64 33.25,21.29 74.68,30.91 74.68,44.58 0,23.2 -9.18,10.8 -9.18,64.22 22.52,0 39.61,-17.74 63.8,-37.11 8.63,-6.92 16.69,-13.24 26.97,-18.9 50.19,-27.62 112.07,-60.19 172.23,-60.19z"/>
    </g>
   </g>
  </g>
 </g>
</svg>
