<?xml version="1.0" encoding="UTF-8"?>
<!DOCTYPE svg PUBLIC "-//W3C//DTD SVG 1.1//EN" "http://www.w3.org/Graphics/SVG/1.1/DTD/svg11.dtd">
<!-- Creator: CorelDRAW -->
<svg xmlns="http://www.w3.org/2000/svg" xml:space="preserve" width="156.817mm" height="41.646mm" version="1.1" style="shape-rendering:geometricPrecision; text-rendering:geometricPrecision; image-rendering:optimizeQuality; fill-rule:evenodd; clip-rule:evenodd"
viewBox="0 0 15681.7 4164.6"
 xmlns:xlink="http://www.w3.org/1999/xlink"
 xmlns:xodm="http://www.corel.com/coreldraw/odm/2003">
 <defs>
  <style type="text/css">
   <![CDATA[
    .fil0 {fill:black}
   ]]>
  </style>
 </defs>
 <g id="Capa_x0020_1">
  <metadata id="CorelCorpID_0Corel-Layer"/>
  <g id="_1640510249760">
   <path class="fil0" d="M7632.95 3577.31c24.62,-156.3 120.68,-244.96 4.94,-436.92 -73.03,-121.13 -208.55,-200.69 -352.84,-183.93 -148.86,17.28 -272.39,127.43 -265.52,284.87 9.73,223.28 236.88,215.87 267.99,80.59 28.8,-125.26 -125.21,-119.37 -51.4,-176.69 126.79,-98.47 435.16,139.69 191.46,394.91 -208.62,218.48 -575.86,193.78 -819.16,53.98 -568.39,-326.59 -398.21,-1059.79 79.37,-1377.98 792.09,-527.72 1145.17,811.09 1155.24,808.13 126.37,-317.96 228.32,-819.83 673.65,-901.17 415.8,-75.95 778.37,278.15 887.08,656.88 236.71,824.64 -883.01,1166.04 -1193.19,727.53 -196.73,-278.11 139.97,-471.57 228.57,-346.53 3.23,49.98 -121.27,115.52 -25.33,211.06 57.48,57.24 147.09,52.83 198.74,-10.01 111.83,-136.06 -0.36,-329.84 -143.06,-384.38 -339.75,-129.86 -601.17,248.91 -425.44,603.25l-202.42 223.77 -208.68 -227.36zm199.29 -1096.93c-3.37,-2.43 -174.07,-296.76 -222.91,-352.83 -167.4,-192.19 -171.5,-64.9 19.81,-290.82 128.32,-151.52 165.68,-254.58 292.16,-122.76 62.51,65.15 226.71,229.78 275.15,292.13l-17.34 -12.98 -346.87 487.26zm-487.77 -632.29c-496.09,273.33 -1010.19,-432.59 -1019.15,-857.99 167.63,62.81 710.62,480.08 894.44,629.56 104.74,85.17 260.92,153.38 124.71,228.43zm1978.04 -841.05c114.17,-19.34 -332.46,1173.99 -981.5,854.81 -160.76,-79.06 -0.77,-151.74 103.37,-234.35 149.57,-118.66 772.63,-602.6 878.13,-620.46zm-1185.33 668.86c24.79,-82.23 400.64,-414.17 486.32,-478.88 123.6,-93.35 485.39,-338.68 614.35,-342.38 -75.25,60.46 -202.33,133.74 -287.94,194.66 -93.84,66.77 -188.55,133.53 -282.76,199.83 -80.38,56.56 -501.65,419.26 -529.97,426.77zm-618.06 -8.47c-29.37,-10.6 -210.33,-184 -254.96,-219.17 -89.89,-70.86 -178.47,-136.43 -268.83,-205.3 -75.64,-57.65 -529.4,-362.05 -551.48,-396.79 288.8,75.75 950.72,575.41 1075.27,821.26zm304.07 -288.59c-206.4,156.63 -108.4,290.5 -311.86,59.31 -440.87,-500.98 -623.75,-494.51 -1106.4,-807.06 -192.82,-124.87 -200.8,-408.65 -46.26,-372.49 76.64,17.93 -102.87,88.17 23.69,192.5 67.62,55.74 167.32,19.98 198.4,-53 150.77,-353.91 -619.31,-478.75 -475.57,117.87 -120.47,-10.15 -257.8,-76.99 -432.3,-84.17 -159.61,-6.57 -313.07,-6.44 -472.71,17.36 -900.69,134.31 -1392,482.47 -2214.49,833.51 -548.28,234 -1015.65,406.78 -1604.39,427.61 -276,9.76 -624.43,-7.73 -878.05,-122.03 -135.26,-60.96 -225.19,-92.66 -279.11,-228.9 -201.16,-508.25 315.96,-628.45 335.25,-410.35 0.88,9.95 -141.71,354.07 118.32,236.54 205.82,-93.02 102.34,-542.69 -279.37,-534.93 -340.31,6.91 -416.01,313.76 -399.04,603.36 19.72,336.73 145.95,462.21 453.48,562.54 1415.88,461.91 2145.6,-259.46 2559.25,-120.85 106.99,35.85 269.85,202.88 313.9,121.95 65.88,-121.01 -179.54,-244.29 -199.76,-286.89 110.83,-95.93 1135.94,-549.67 1344.32,-634.38 223.72,-90.95 521.07,-189.97 757.74,-232.86 108.77,-19.71 808.51,-73.25 848.64,39.62 -146.8,22.91 -236.37,-67.88 -496.19,16.5 -137.17,44.55 -244.97,131.19 -329.46,246.27 -181.19,246.82 -164.21,639.83 83.41,837.12 252.98,201.55 684.15,127.51 711.3,-212.59 12.45,-156.03 -101.29,-340.46 -274.28,-282.71 -73.97,24.7 -121.39,97.38 -100.41,174.13 34.33,125.56 124.46,71.47 188.41,100.95 -61.87,329.87 -650.72,117.3 -532.29,-354.49 80.5,-320.69 583.95,-487.07 793.38,-313 52.15,101.21 73.29,415.31 180.62,615.25 128.38,239.13 173.78,263.08 354.16,433.24 -1.28,1.73 -278.48,208.04 -328.21,255.98 -94.31,90.91 -191.22,203.22 -289.66,286.08 -204.88,172.42 -472.08,356.59 -736.75,414.71 -307.67,67.57 -660.14,38.71 -845.06,-247.23 -243.86,-377.05 124.27,-806.51 300.23,-588.09 8.98,47.3 -72.81,199.03 66.08,231.91 113.95,26.98 167.16,-71.17 168.9,-168.5 3.27,-183.06 -187.91,-324.8 -366.54,-311.87 -374.57,27.11 -516.38,512.61 -366.28,847.9 159.9,357.16 534.11,494.51 904.73,453.56 186.86,-20.64 360.69,-85.89 523.22,-171.07 65.18,-34.16 407.02,-274.41 410.54,-275.25 -72.97,434.22 -32.89,723.05 329.36,1008.36 143.42,112.96 362.6,169.33 542.45,168.82 344.35,-0.97 415.96,-141.47 533.34,-154.86l316.1 534.69 35.27 1.27 312.12 -531.04c19.81,3.61 161.31,93 235.99,114.05 278.73,78.58 608.77,37.29 850.58,-136.62 304.51,-218.99 462.42,-648.52 324.58,-1004.67 149.5,58.49 384.06,385.16 927.91,443.69 360.7,38.81 747.38,-98.73 909.72,-443.33 149.24,-316.81 21.94,-837.7 -373.5,-855.87 -183.12,-8.41 -369.75,136.58 -354.32,329.27 7.16,89.38 79.58,178.36 178.37,148.31 140.74,-42.81 38.58,-183.43 45.53,-227.23 157.87,-219.67 557.64,178.5 317.6,571.6 -168.51,275.98 -547.97,345.35 -841.6,265.25 -287.74,-78.5 -528.6,-218.73 -748.72,-419.68 -98.91,-90.3 -205.81,-189.64 -300.27,-283.92 -56.6,-56.49 -325.92,-253.28 -327.98,-256.22 115.19,-158.48 228.24,-179.05 361.27,-434.59 99.19,-190.53 145.74,-546.9 181.88,-613.99 250.32,-170.5 698.25,-6.68 792.41,305.69 160.9,533.76 -567.81,624.34 -513.76,378.08 46.67,-52.07 137.31,10.45 176.37,-104.42 83.83,-246.55 -401.15,-292.9 -374.91,85.3 23.43,337.77 458.34,436.93 707.72,224.78 240.74,-204.8 266.85,-584.43 87.78,-836.28 -227.59,-320.07 -505.91,-291.89 -843.03,-257.64 129.51,-113.77 658.04,-78.71 859.85,-47.05 238.22,37.37 525.17,141.33 750.05,232.09 151.5,61.14 1283.5,581.51 1327.85,636.05 -13.99,54.05 -308.8,207.05 -135.29,321.91 76.57,-21.79 139.73,-138.37 325.92,-174.23 147.21,-28.36 258.36,23.11 396.92,69.46 255.17,85.37 518.99,157.21 789.92,192.22 508.02,65.64 1200.25,23.44 1612.22,-272.94 194.69,-140.06 195.34,-579.65 119.48,-772.97 -95.69,-243.84 -428.21,-339.79 -630.69,-153.1 -403.72,372.24 271.31,601.57 160.27,337.19 -147.11,-350.3 325.34,-319.76 325.48,80.22 0.21,612.8 -983.51,572.06 -1377.69,538.65 -1656.67,-140.4 -2786.22,-1595.54 -4532.76,-1182.23 0.05,-133.67 31.59,-256.42 -88.49,-360.24 -92.6,-80.06 -248.27,-82.71 -339.99,-0.51 -90.38,80.99 -107.65,247.9 15.51,309.08 239.51,118.96 120.47,-201.9 120.82,-204.52 164.81,-58.02 197.25,234.61 -52.12,386.05 -151.87,92.23 -299,155.54 -455.49,255.71 -462.35,295.99 -634.65,605 -742.42,682.44l-211.14 -205.14z"/>
   <path class="fil0" d="M7487.58 98.1c-390.4,81.67 -192.11,537.75 21.18,733.03 448.82,410.93 274.85,363.48 439.77,198.92 53.38,-53.25 107.05,-93.35 161.21,-143.59 182.88,-169.61 509.89,-569.59 156.6,-762.11 -179.74,-97.94 -308.91,5.29 -403.58,136.76 -41.51,57.63 -121.53,-216.08 -375.18,-163.01z"/>
  </g>
 </g>
</svg>
