<?xml version="1.0" encoding="UTF-8"?>
<!DOCTYPE svg PUBLIC "-//W3C//DTD SVG 1.1//EN" "http://www.w3.org/Graphics/SVG/1.1/DTD/svg11.dtd">
<!-- Creator: CorelDRAW -->
<svg xmlns="http://www.w3.org/2000/svg" xml:space="preserve" width="110.744mm" height="203.2mm" version="1.1" style="shape-rendering:geometricPrecision; text-rendering:geometricPrecision; image-rendering:optimizeQuality; fill-rule:evenodd; clip-rule:evenodd"
viewBox="0 0 11074.4 20320"
 xmlns:xlink="http://www.w3.org/1999/xlink"
 xmlns:xodm="http://www.corel.com/coreldraw/odm/2003">
 <defs>
  <style type="text/css">
   <![CDATA[
    .fil0 {fill:#FEFEFE}
   ]]>
  </style>
 </defs>
 <g id="Capa_x0020_1">
  <metadata id="CorelCorpID_0Corel-Layer"/>
  <path class="fil0" d="M4699.26 10377.59c-0.05,-49.43 -28.05,-73.32 14.47,-118.65 87.78,-93.56 236.71,33.4 164.69,183.05 -73.76,153.29 -296.49,102.35 -360.69,-52.71 -69.3,-167.37 77.49,-314.15 215.27,-354.36 28.48,-8.32 272.01,-58.11 194.15,14.33 -73.21,68.11 24.75,191.85 62.53,178.19 42.2,-47.57 -90.46,-310.75 283.03,-69.84 59.87,38.61 103.27,81.78 152.96,131.63 18.38,18.44 56.42,53.13 69.78,73 26.64,39.64 -13.57,71.96 23.26,106.62 63.74,25.79 48.23,-54.53 50.56,-81.74 2.36,-27.49 41.13,-63.26 60.69,-84.09 47.55,-50.62 101.36,-95.3 156.81,-136.98 43.06,-32.38 141.87,-95.3 192.49,-106.8 133.93,-30.45 93.81,150.92 102.5,165.25 32.6,16.54 82.67,-50.31 89.04,-78.88 19.67,-88.32 -44.47,-88.54 -36.96,-125.08 30.48,-28.88 191.24,8.91 224,20.49 227.94,80.63 285.02,336.18 113.08,455.71 -122.57,85.22 -301,19.16 -296.73,-141.88 1.79,-67.6 60.54,-129.12 131.36,-124.47 121,7.96 60.04,128.95 62.66,152.2 55.37,20.28 169.66,-145.23 20.19,-216.05 -98.15,-46.51 -215.06,22.19 -243.51,118.93 -29.42,100.02 6.84,211.9 100.61,262.66 152.3,82.45 227.59,-37.28 294.48,-37.41 0,228.74 294.35,328.2 413.82,129.21 52.63,-87.67 36.28,-214.69 -64.29,-263 -154.3,-74.11 -217.86,116.24 -155.56,155.56 8.88,-5.47 79.12,-145.09 158.39,-62 47.52,49.79 48.48,133.34 -2.22,183.81 -110.89,110.36 -281.24,33.59 -307,-108.69 -28.41,-156.91 93.49,-278.66 241.35,-278.51 101.61,0.11 327.12,95.5 335.2,188.53 -117.99,0 -170.03,104.18 -104.58,173.44 43.57,-26.08 156.33,-256.43 236.17,103.51 18.05,81.39 19.89,160.61 20.06,246.52 0.05,25.91 -2.95,103.52 -12.87,120.25 -8.75,14.77 -70.18,43.75 -36.21,84.57 37.31,31.15 59.9,-21.33 80.44,-35.76 15.69,-11.02 95.6,-13.36 119.79,-13.33 98.55,0.13 158.39,2.57 245.61,20.96 37.33,7.87 176.37,47.57 193.18,78 44.19,80.02 -82.93,141.37 -94.01,158.27 35.4,54.09 183.27,39.54 183.27,-110.17 91.98,25.17 190.37,226.8 189.69,334.34 -0.95,149.71 -116.75,265.89 -271.66,247.98 -133.05,-15.39 -235.44,-190.07 -121.47,-303.78 50,-49.88 138.22,-56.53 188.33,-6.37 76.91,76.98 -55.15,149.02 -56.35,161.87 78.93,69.65 215.15,-37.76 146.6,-169.49 -50.96,-97.92 -184.98,-100.19 -269.64,-50.51 -85.73,50.32 -119.52,168.98 -81.01,263.44 60.83,149.24 186.58,122.77 221.61,154.8 3.59,24.18 -119.01,131.24 -36.36,288.82 119.43,227.71 479.8,59.82 376.16,-142.05 -85.93,-167.39 -235.12,-21.27 -210.88,8.91 9.51,8.32 162.18,-41.3 152.52,77.85 -5.7,70.4 -58.09,126.59 -130.87,125.49 -157.82,-2.39 -219.04,-178.8 -136.73,-301.5 173.15,-258.12 551.64,11.68 471.55,347.61 -35.75,-15.3 -48.06,-67.03 -123.1,-45.52 -26.6,7.63 -86.55,61.81 -82.43,89.57 43.27,32.75 314.96,-87.25 75.95,276.23 -36.44,55.42 -85.71,111.4 -130.3,154.29 -25.93,24.94 -47.11,44.75 -74.4,68.11 -46.89,40.15 -62.83,-11.36 -103.06,25.49l9.2 48.17c39.21,33.24 46.37,-31.88 101.25,22.61 73.38,72.88 140.62,133.59 201.32,221.07 31.3,45.12 82.75,137.23 94.69,186.15 27.49,112.59 -138.63,74.49 -171.09,73.87 -7.3,35.3 37.95,89.87 79.69,99.52 66.06,15.25 123.28,-41.4 126.89,-39.53 47.04,99.32 -40.15,306.23 -127.58,381.65 -103.42,89.21 -276.74,76.38 -350.48,-41.64 -81.71,-130.78 0.27,-313.43 145.22,-297.26 65.64,7.33 125.13,64.39 125.01,131.91 -0.19,112.11 -150.91,66.45 -151.81,66.74 -17.48,69.33 150.95,154.24 211.2,18.4 44.91,-101.25 -17.37,-202.44 -112.53,-242.45 -96.95,-40.77 -213.7,8.34 -264.68,94.75 -80.65,136.71 5.06,192.36 36.6,287.85 -87.09,48.71 -169.07,14.61 -223.5,163.31 -86.11,235.22 241.64,406.43 354.82,198.75 67.25,-123.41 -74.62,-227.84 -156.4,-156.41 7.12,11.11 149.52,76.9 61.4,157.8 -49.3,45.25 -138.51,45.56 -186.92,-4.74 -106.13,-110.28 -18.88,-279.7 120.24,-305.47 149.12,-27.61 272.31,101 271.82,244.04 -0.35,102.89 -86.35,303.85 -184.73,334.47 -8.56,-14.94 13.34,-70.37 -49.06,-114.58 -36.83,-26.1 -97.59,-21.27 -127.91,3.98 8.97,20.37 138.05,98.64 79.46,168.79 -61.26,73.36 -502.56,128.22 -557.87,75.53 -21.27,-20.27 -33.38,-64.91 -76.49,-35.13 -32.49,44.8 17.39,58.28 35.13,81.05 19.96,25.65 13.65,91.54 13.57,124.14 -0.2,92.23 -1.55,157.13 -22.94,247.85 -86.89,368.42 -187.22,107.67 -252.45,105.59 -2.37,111.54 -14.13,169.84 123.93,169.84 -94.74,249.11 -630.46,272.86 -578.05,-77.28 23.63,-157.86 200.09,-231.49 312.22,-120.5 49.6,49.12 43.06,141.24 -5.79,187.7 -80.4,76.46 -134.93,-52.08 -154.1,-66.77 -68.49,67.78 10.38,221.28 157.01,157 202.34,-88.7 47.21,-452.26 -200.69,-356.76 -137.21,52.87 -153.1,218.96 -159.47,221.52 -12.47,6.38 -149.41,-121.48 -292.4,-30.74 -89.02,56.49 -133.17,163.44 -91.73,263.39 37.46,90.33 139.56,167.79 237.91,112.3 118.95,-67.1 90.65,-207.06 -14.44,-216.41 3.88,46.54 35.29,164.43 -72.66,156.26 -62.34,-4.72 -124.34,-62.14 -123.26,-132.93 2.41,-159.07 178.1,-219.19 300.75,-137.35 116.43,77.7 120.11,251.06 34.78,354.61 -69.8,84.71 -284.39,168.47 -377.96,121.7 -9.49,-17.1 63.07,-52.82 37.11,-133.43 -10.26,-31.87 -64.89,-90.28 -99.22,-78.82 -0.6,2.52 43.09,202.89 -72.93,178.47 -53.24,-11.19 -156.43,-68.54 -196.12,-98.7 -60.12,-45.67 -184.42,-155.14 -224.03,-216.98 -20.15,-31.46 15.08,-87.08 -37.49,-99.88 -53.92,4.79 -24.38,67.48 -39.85,97.39 -4.66,9.01 -56.55,67.6 -65.67,76.74 -93.49,93.65 -212.72,196.06 -340.18,238.58 -111.79,37.29 -95.81,-109.12 -95.78,-169.6 -182.8,43.92 -48.7,200.5 -48.92,203.55 -36.27,30.52 -186.76,-2.81 -225.85,-15.99 -236.09,-79.61 -291.06,-332.36 -123.8,-453.01 122,-87.99 297.96,-30.24 298.29,132.36 0.16,75.65 -50.44,128.2 -125.6,132.61 -99.65,5.84 -74.26,-106.65 -67.9,-155.58 -96.6,1.77 -141,162.33 -13.09,215.06 210.71,86.85 365.33,-239.74 137.58,-376.28 -144.84,-86.83 -236.05,32.76 -286.66,35.63 -21.41,-19.24 -15.23,-181.71 -165.3,-226.32 -100.5,-29.88 -211.16,10.51 -260.59,103.53 -49.88,93.86 -24.04,221.57 75.65,260.46 163.99,63.97 205.79,-140.99 145.06,-163.68 -10.6,8.39 -53.56,142.77 -151.36,64.39 -56.19,-45.03 -47.31,-134.92 3.14,-185.08 116.02,-115.35 279.04,-23.1 303.29,112.86 25.97,145.58 -80.83,270.73 -233.84,276.89 -88.5,3.55 -337.32,-91.48 -336.71,-177.77 17.27,-27.22 69.73,-2.6 105.87,-56.3 21.34,-31.7 34.8,-98.31 0.95,-123.93 -29.79,-4.54 -171.41,263.41 -244.88,-123.86 -19.47,-102.66 -16.59,-154.24 -20.06,-255.42 -1.51,-44.01 -10.8,-80.82 25.12,-111.43 27.26,-23.25 52.61,-60.1 5.95,-80.33 -17.34,-4.01 -88.03,114.93 -434.82,35.54 -374.71,-85.78 -96.14,-198.34 -111.86,-241.05 -28.91,-24.94 -97.29,-14.67 -126.3,7.91 -49.99,38.92 -22.41,84.23 -37.52,109.47 -87.21,-23.6 -197.7,-233.78 -193.36,-335.01 5.94,-138.92 125.3,-281.75 271.98,-248.98 140.82,31.46 237.77,187.01 123.93,304.56 -50.18,51.81 -132.06,68.26 -185.47,9.95 -76.74,-83.78 46.15,-142.7 47.97,-164.53 -35.09,-51.57 -227.56,16.93 -138.12,171.99 113.27,196.37 446.27,15.18 349.14,-211.43 -67.6,-157.75 -180.44,-119.3 -222.48,-153.93 -6.08,-18.25 119.46,-131.83 39.42,-287.3 -109.49,-212.67 -479.87,-92.64 -380.9,133.02 51.27,116.91 198.93,98.4 214.44,-3.28 -60.67,0 -161.03,29.44 -151.96,-86.9 5.14,-65.87 63.63,-119.65 137.01,-114.41 160.92,11.48 211.68,197.21 126.57,303.74 -94.29,118.03 -246.95,112.52 -355.48,26.67 -122.69,-97.05 -118.77,-240.03 -118.77,-381.57 27.7,3.27 36.38,70.89 125.03,47.45 36.93,-9.77 96.23,-58.03 83.11,-99.87 -13.36,-2.61 -204.37,38.84 -171.26,-84.4 18.45,-68.67 59.96,-133.67 101.7,-192.81 27.32,-38.71 169.76,-204.43 216.13,-225.02 28.67,-12.73 75.39,30.23 95.64,-33.41 -41.24,-66.51 -58.56,-16.41 -96.02,-32.03 -51.17,-21.33 -179.35,-174.43 -217.1,-224.05 -94.59,-124.32 -195.72,-340.86 73.92,-275.9 -0.17,-88.02 -122.33,-145.23 -207.44,-51.36 -49.01,-95.62 26.04,-301.12 109.82,-381.35 100.03,-95.79 279.41,-87.06 358.5,24.94 85.86,121.61 34.83,297.57 -123.53,301.96 -72.17,2 -135.22,-44.04 -138.04,-119.3 -4.83,-128.87 140.6,-73 151.78,-78.24 26.99,-39.46 -134.54,-173.03 -214.68,-8.12 -48.66,100.11 25.94,207.84 119.42,237.28 105.58,33.25 206.06,-5.71 259.65,-101.49 83,-148.35 -16.12,-200.48 -40.06,-287.94 104.51,-28.76 180.61,-37.14 225.42,-155.58 36.52,-96.51 3.82,-206.55 -86.62,-258.64 -87.33,-50.29 -217.23,-48.41 -264.43,54.48 -59.98,130.76 56.6,230.14 148.47,167.07 -5.93,-22.3 -138.86,-76.8 -54.31,-164.71 50.23,-52.24 139.69,-42.69 186.18,9.88 106.75,120.74 12.21,289.62 -127.44,301.36 -155.6,13.07 -270.84,-103.47 -271.06,-252.16 -0.16,-103.02 102.17,-305.63 193.3,-330.57 0,120.44 108.56,176.83 179.07,114.7 -13.2,-46.36 -275.62,-154.04 96.71,-242.87 53.84,-12.85 336.79,-35.14 371.13,-9.22 14.51,10.96 40.37,73.52 85.75,39.57l-1.23 -50.65c-80.13,-69.15 -52.01,-80.04 -52.07,-200.4 -0.03,-81.33 7.46,-147.86 24.68,-223.2 8.94,-39.16 46.1,-158.05 84.61,-167.79 82.72,-20.94 137.16,83.52 151.88,88.38 49.43,-31.56 39.54,-174.78 -109.69,-174.78 7.9,-91.9 241.43,-197.27 333.58,-191.44 132.78,8.4 275.96,112.15 246.8,271.41 -25.87,141.34 -187.66,233.56 -304.1,125.74 -54.27,-50.24 -58.92,-129.94 -9.48,-186.79 75.08,-86.34 152.71,46.01 162.73,47.17 58.53,-43.88 -21.88,-224.63 -170.08,-137.16 -205.18,121.1 -6.55,434.94 210.02,347.73 156.9,-63.18 114.76,-155.32 154.57,-225.91 61.99,3.97 119.62,124.14 288.9,40.52 216.01,-106.69 97.97,-465.22 -133.9,-381.79 -123.34,44.38 -90.45,212.3 5.91,212.49zm-1266.93 3943.08c-104.72,43.64 -72.5,304.46 238.48,275.09 125.85,-11.88 -57.86,-53.78 -108.91,-101.7 -114.45,-107.39 -90.17,-189.81 -129.57,-173.39zm135.51 -3103.63c-75.47,17.91 -161.73,39.73 -181.58,133.87 -12.14,57.6 33,242.16 91.89,86.96 26.92,-70.95 87.53,-128.94 154.66,-162.08 27.54,-13.6 112.55,-31.56 80.38,-48.1 -28.6,-14.7 -113.35,-18.24 -145.35,-10.65zm-555.62 1202.4c-207.44,79.46 -113.08,281.32 16.11,368.44 88.03,59.37 -3.48,-81.65 -13.1,-162.09 -9.33,-77.98 97.5,-244.84 -3.01,-206.35zm5001.25 978.58c100.78,24.02 182.47,-81.81 163.49,-191.03 -10.98,-63.22 -102.98,-193.33 -172.67,-199.15 0.39,22.98 49.46,124.62 54.25,189.37 6.04,81.68 -45.03,138.14 -45.07,200.81zm-4946.29 -387.9c-96.96,7.63 -275.58,267.91 -99.34,365.82 157.83,87.68 69.25,-48.77 54.3,-118.58 -23.82,-111.19 50.85,-223.39 45.04,-247.24zm3956.92 -2252.36c-166.82,68.41 -38.16,71.1 33.73,121.03 70.65,49.05 110.11,104.89 134.31,182.8 39.22,126.24 50.58,-112.08 23.26,-184.3 -24.59,-65.01 -106.22,-154.41 -191.3,-119.53zm1463.96 2110.82l158.01 -11.42c7.65,8.86 6.83,90.48 -0.3,101.06l-158.2 -23.08 232.57 132.81 11.86 -103.04 107.58 -50.65 -0.3 -14.26 -108.45 -49.72c-13.86,-127.88 15.55,-124.91 -84.45,-58.75 -37.25,24.65 -150.62,70.39 -158.32,77.05zm-1284.25 1855.13c-10.78,10.12 -39.47,127.58 -116.62,194.66 -57.94,50.39 -215.48,70.1 -96.73,126.93 265.08,126.85 269.16,-373.97 213.35,-321.59zm-1568.13 -4277.27c82.55,-10.51 104.01,-70.06 245.34,-52.7 64.04,7.86 219.22,100.6 128.19,-54.59 -106.18,-181.01 -371.7,13.73 -373.53,107.29zm1979.98 327.37l88.34 -97.32c19.25,14.34 45.61,47.51 66.47,64.58l-105.86 95.03 238.7 -59.15c-3.61,-40.01 -54.82,-56.38 -62.63,-85.23 -13.06,-48.2 47.55,-49.48 22.27,-121.58l-106.16 37.22c-52.86,-18.98 -84.56,-130.63 -98.35,-6.48 -3.76,33.84 -44.25,161.67 -42.78,172.93zm-2237.03 -1048.05l130.75 231.63 -20.86 -156.67c13.74,-12.05 75.1,-5.27 95.81,-5.27l-18.42 163.06 134.68 -235.47 -107.8 -9.45c-14.52,-29.56 -45.16,-153.42 -81.02,-70.69 -53.56,123.55 -6.88,48.83 -133.14,82.86zm59.67 720.68c-2.02,-95.36 -265.61,-286.47 -373.17,-106.93 -94.89,158.39 61.99,65.62 120.37,56.1 144.96,-23.66 167.17,39.65 252.8,50.83zm449.47 4975.52c-151.53,15.08 -186.11,-48.75 -252.09,-54.7 2.5,95.53 260.94,286.35 368.31,115.84 107.08,-170.05 -70.13,-65.72 -116.22,-61.14zm1526.76 -4204.92c-61.88,14.68 -104.71,8.8 -12.74,43.01 35.19,13.09 68.53,31.18 101.41,54.71 40.68,29.1 129.47,184.68 130.21,184.77 106.5,12.26 83.03,-354.1 -218.88,-282.49zm603.53 1203.24c-15.83,15.82 24.99,93.98 29.51,117.38 9.34,48.37 9.27,93.13 -0.29,141.34 -13.33,67.17 -114.62,207.83 28.53,88.22 246.83,-206.25 -1.77,-402.92 -57.75,-346.94zm-3883.41 2579.75c-63.97,-42.31 -111.69,-44.5 -171.21,-104.21 -25.02,-25.1 -101.17,-173.72 -101.47,-173.83 -122.68,226.71 177.3,465.49 272.68,278.04zm3490.52 -685.13c-1.01,0.5 -65.35,143.08 -127,188.19 -82.24,60.19 -232.71,70.73 -76.57,97.53 332.11,57.01 291.21,-329.02 203.57,-285.72zm-2191.46 1089.08c29.46,-72 -93.53,24.47 -224.97,18.61 -77.28,-3.45 -220.16,-104.95 -147.67,37.3 87.71,172.13 325.33,59.72 372.64,-55.91zm-1572.9 -4311.89c0.22,-0.13 78.51,-151.1 123.24,-190.32 61.52,-53.95 217.79,-71.04 112.79,-128.32 -219.76,-119.87 -306.69,242.94 -236.03,318.64zm3909.73 3981.41c-11.54,15.49 -53.89,65.08 -69.01,68l-98.79 -128.47 73.06 259.81 78.83 -63.27 114.26 39.71 9.33 -8.4 -41.58 -120.39c13.69,-19.06 103.15,-75.57 42.81,-91.4 -50,-13.11 -80.36,-4.73 -142.24,-28.21 -202.6,-76.87 2.83,29.05 33.33,72.62zm-5426.37 -2226.57l-109.36 50.1 0.14 17.49 106.57 49.92 8.6 105.52 240.07 -129.7 -161.03 16.56c-8.35,-13.14 -2.41,-78.19 -2.12,-97.48 25.42,-7.4 117.11,23.01 148.08,18.82 53.12,-7.17 -65.55,-43.37 -84.98,-52.76 -38.34,-18.51 -68.84,-40.85 -101.25,-69.72 -55.42,-49.38 -38.09,67.19 -44.72,91.25zm824.4 2187.41l70.12 91.52 -51.86 102.44 13.82 20.35 117.15 -46.85 71.72 77.72 11.78 -2.67 68.39 -247.83 -9.48 -4.74c-13.34,17.21 -77.28,108 -90.62,111.81l-64.83 -62.05 104.66 -94.3 -240.85 54.6zm2415.27 978.81c-1.14,0.88 -104.75,33.21 -92.98,-36.32 8.03,-47.48 20.86,-84.31 20.89,-136.77l-6.56 6.4 -135.37 247.73 109.51 8.07 48.78 108 14.8 0.86 47.16 -106.31 111.98 -10.21 -134.75 -254.78 16.54 173.33zm-2372.63 -5438.97l22.6 111.34 -73.84 83.96 287.68 81.9 -135.79 -109.77 59.87 -58.46 112.5 131.96c2.5,-2.97 -61.84,-221.68 -71.86,-253.24 -16.58,-52.27 -65.65,28.61 -88.4,42.85 -33.35,20.88 -93.08,-65.62 -112.76,-30.54zm4168.8 4233.06c-0.34,0.71 22.17,154.85 24.3,168.49 19.22,122.79 -43.05,287.45 1.17,356.88 23.74,37.29 88.25,80.36 117.67,26.31 143.67,-264.01 -128.64,-582.62 -143.14,-551.68zm807.89 -1932.52c113.08,0 240.22,-28.31 333.14,-93.76 56.63,-39.88 212.42,-208.53 141.86,-257.19 -101.56,-70.05 -187.16,71.54 -249.23,145.22 -28.02,33.26 -225.67,205.37 -225.77,205.73zm-5325.69 64.54c-132.77,31.89 -200.05,7.85 -325.65,104.64 -38.05,29.33 -220.49,223.61 -102.88,255.72 120.91,33.03 178,-101.43 244.85,-173.42 36.27,-39.07 70.94,-69.47 111.92,-103.83 13.84,-11.6 159.52,-104.19 71.76,-83.11zm2316.39 -3173.39c-51.16,18.2 -49.2,113.28 -14.66,151.63 34.27,38.03 79.74,69.14 118.75,101.58 101.46,84.36 131.04,142.65 208.04,234.73 63.17,75.53 -31.82,-250.87 -62.21,-302.53 -33.83,-57.52 -184.26,-208.77 -249.92,-185.41zm2575.49 1120.68c-113.07,24.65 -180.34,51.62 -270.17,122.83 -74.39,58.96 -71.54,62.1 22.79,45.79 48.5,-8.39 134.5,-18.87 182.54,-13.84 104.15,10.92 250.95,53.99 313.78,-40.9 72.17,-109.01 -188.85,-126.98 -248.94,-113.88zm-2187.26 -623.72c1.24,-0.14 178.26,-203.49 204.8,-226.7 61.49,-53.77 228.64,-150.32 146.34,-253.3 -52.56,-65.76 -222.95,95.41 -255.74,143.9 -61.63,91.13 -95.36,222.22 -95.4,336.1zm1808.59 752.81c47.73,-4.15 283.37,-307.93 146.61,-559.76 -29.75,-54.79 -99.88,-5.76 -121.18,29.76 -47.63,79.37 45.2,233.28 -25.43,530zm-3681.44 3782.42c-46.41,13.16 -280.78,308.49 -140.5,562.85 30.16,54.68 97.41,5.15 118.16,-29.87 29.13,-49.15 9.56,-113.69 4.76,-166.53 -21.37,-235.23 17.58,-259.22 17.58,-366.45zm4494.33 -1852.55c1.96,5.75 198.4,169.54 225.61,198.95 55.05,59.5 143.46,229.39 250.51,142.16 107.86,-87.88 -280.87,-408.84 -476.12,-341.11zm-757.81 1811.24c108.88,144.14 402.23,232.65 566.56,130.37 51.8,-32.23 -3.99,-95.94 -38.69,-116.58 -50.08,-29.8 -108.5,-13.07 -163.58,-2.96 -77.22,14.18 -352.05,-15.13 -364.29,-10.83zm-3853.5 -4329.38c-72.94,22.7 -74,246.2 -55.27,310.66 30.88,106.28 74.13,172.66 143.37,256.91 57.54,70.01 14.53,-78.4 11.9,-100.04 -17.51,-144.54 16.85,-316.02 6.55,-378.36 -6.56,-39.63 -68.09,-101.14 -106.55,-89.17zm66.49 643.35c-4.9,-48.74 -185.24,-145.68 -231.81,-162.96 -95.83,-35.53 -244.32,-38.02 -332.16,16.8 -52.97,33.05 0.5,97.68 31.63,118.48 49.91,33.35 107.77,10.84 166.17,5.8 223.9,-19.35 259.86,19.84 366.17,21.88zm1923.34 4475.56c0,121.16 27.38,243.27 94.24,341.85 41.45,61.11 204.15,205.95 257.05,147.57 89.97,-99.3 -88.11,-204.6 -145.96,-258.66 -33.36,-31.16 -204.76,-230.47 -205.33,-230.76zm-59.45 66.19c32.49,-160.13 -40.67,9.45 -168.79,132.47 -67.42,64.73 -205.66,134.84 -199.03,237.2 9.76,150.85 196.35,2.56 247.42,-55.69 89.08,-101.6 95.36,-190.55 120.4,-313.98zm-1863.89 -864.9c-112.76,3.39 -227.69,45.47 -359.76,20.07 -44.3,-8.53 -131.82,-21.46 -172.13,3.46 -36.31,22.46 -87.12,86.36 -30.53,121.14 231.53,142.26 557.62,-91.46 562.42,-144.67zm-1178.19 -2237.17c-158.07,12.33 -15.02,198.48 44.36,244.98 99,77.52 201.15,110.5 318,122.87 129.15,13.67 44.33,-33.62 -6.54,-67.09 -185.11,-121.83 -217.42,-311.55 -355.82,-300.76zm2937.29 -1868.06c603.04,-60.83 1245.06,206.44 1672.41,595.68 461.77,420.6 668.61,929.32 729.1,1538.52 55.81,562.18 -216.63,1295.4 -597.39,1669.2 -463.76,455.3 -863.15,668.84 -1542.25,725.37 -633.9,52.76 -1216.43,-202.4 -1662.75,-593.56 -431.97,-378.57 -685.21,-946.57 -734.05,-1533.57 -52.85,-635.14 203.53,-1210.37 599.1,-1671.96 387.34,-451.99 941.55,-669.74 1535.83,-729.68zm-36.77 -32.19c-1259.18,111.51 -2225.79,1175.82 -2130.53,2466.2 45.2,612.25 351.39,1192.86 759.99,1544.35 460.13,395.81 1081.08,650.25 1709.05,585.69 1282.68,-131.86 2211.9,-1147.28 2134.3,-2464.38 -72.89,-1237.18 -1214.93,-2243.25 -2472.81,-2131.86zm-907.57 -304.18c-4,0.09 -110.12,-70.17 -168.14,-79.26 -70.84,-11.1 -211.16,28.51 -212.1,28.18 -2.86,-3.4 -9.21,-134.21 -86.54,-116.87 -11.82,11.61 -17.12,82.04 -32.47,114.4 -48.73,102.72 -120.45,208.79 -159.25,308.97 -82.08,211.93 -64.46,322.93 -64.46,541.47 -38.36,17.68 -268.88,-39.89 -544.76,70.34 -44.13,17.62 -418.59,204.13 -419.21,205.08 1.46,75.61 82.34,61.25 116.12,71.58 2.78,10.36 -51.74,123.03 -33.86,204.19 10.75,48.78 73.74,175.17 73.82,178.67 -222.5,4.71 -245.67,197.78 -299.18,232.14 -22.08,-8.81 -79.13,-92.96 -144.9,-23.92 -0.08,9.13 45.58,78.27 55.63,111.37 36.87,121.4 83.92,271.95 138.45,380.26 118.96,236.31 290.25,339.61 309.67,378.87 -126.65,144.63 -211.25,170.29 -308.53,370.84 -66.98,138.09 -84.66,239.44 -130.67,378.85 -24.99,75.68 -48.94,72.82 -65.14,104.11 42.92,82.12 133.33,-14.23 145.81,-18.84 15.01,5.13 83.53,130.55 114.23,157.56 66.22,58.24 181.66,69.65 191.77,79.46 0.95,12 -72.24,99.33 -76.01,171.99 -2.08,40.05 31.58,207.75 28.44,216.72 -4.47,1.78 -151.75,-0.48 -115.21,85.78 20.53,9.65 67.16,7.92 119.05,32.46 35.08,16.6 70.01,33.81 104.56,51.51 65.34,33.46 133.3,82.04 195.26,112.3 26.36,12.87 213.8,49.44 252.56,54.98 46.03,6.58 283.56,-1.5 291.55,3.04 0.05,0.1 -5.75,237.23 1.4,282.4 14.43,91.19 30.16,164.87 62.45,249.69 24.91,65.44 68.15,145.79 104.05,208.09 17.51,30.4 91.46,212.91 98.89,217.89l17.69 10.32 67.47 -115.61 -16.3 -9.52c60.42,0.08 108.44,44.45 214.67,31.06 74.81,-9.42 139.46,-65.92 174.33,-71.5 22.95,33.16 14.49,108.2 80.72,185.82 43.25,50.68 152.02,101.9 159.15,111.68 -5.62,18.56 -91.13,68.45 -30.56,141.38 8.28,-0.03 84.85,-47.7 111.04,-56.31 40.9,-13.44 87.83,-26.51 131.17,-38.67 170.16,-47.71 316.24,-111.36 453.98,-225.38 30.55,-25.28 163.73,-164.52 171.39,-168.3 24.6,12.23 167.35,204.1 376.49,304.31 115.55,55.36 254.58,93.96 379.65,129.86 49.3,14.15 93.6,60.95 109.24,64.41 78.61,-41.16 -14.97,-141.56 -17.7,-151.35 48.34,-33.08 109.76,-53.17 155.22,-110.91 68.79,-87.4 51.48,-149.2 78.83,-192 38.51,10.42 74.65,67.67 161.4,77.31 102.18,11.35 150.14,-22.19 219.6,-22.23 0,53.4 33.67,130.44 84.02,116.21 9.28,-10.99 15.14,-85.53 35.59,-120.53 51.18,-87.57 119.74,-218.69 158.96,-313.85 27.22,-66.01 60.28,-176.82 65.2,-246.94 2.89,-41.06 -3.43,-282.22 -0.39,-289.33 7.95,-3.7 237.73,4.32 282.91,-1.94 88.54,-12.28 166.13,-25.8 249.85,-62.29 79.97,-34.85 135.74,-60.26 211.15,-100.99 28.83,-15.56 69.7,-40.96 100.96,-55.11 19.05,-8.62 117.5,-31.46 121.28,-34.8 24.01,-63.25 -72.01,-88.5 -116.04,-88.5 -0.31,-67.75 45.34,-111.8 28.52,-212.11 -5.43,-32.4 -73.17,-164.74 -71.32,-170.31 62.04,-33.68 102.55,-14.7 187.35,-78.95 71.41,-54.09 73.27,-117.78 107.57,-157.98 26.89,17.3 79.45,93.56 145.95,30.03 1.3,-10.38 -49.15,-84.4 -57.38,-109.42 -85.08,-258.8 -84.18,-358.71 -267.22,-591.16 -28.41,-36.08 -167.3,-157.67 -173.28,-168.64 46.46,-80.41 274.13,-167.17 398.27,-620.77 11.17,-40.81 24.77,-90.85 38.82,-131.03 10.24,-29.29 57.21,-97.89 57.54,-112.31 -53.85,-69.97 -117.35,9.97 -137.64,21.39 -0.67,-0.36 -85.29,-129.5 -113.72,-155.73 -75.04,-69.25 -145.24,-54.44 -187.32,-83.02 0.58,-9.66 61.75,-87.73 70.32,-169.5 7.43,-70.72 -28.47,-187.23 -25.17,-203.3 27.83,-20.39 118.23,-4.23 118.05,-98.43 -144.87,-12.31 -277.93,-125.01 -431.95,-187.75 -231.78,-94.41 -334.34,-58.92 -536.61,-60.13 -0.35,-231.73 22.55,-310.39 -66,-539.92 -64.39,-166.91 -137.9,-246.69 -191.05,-433.23 -76.14,6.78 -87.22,54.91 -87.22,123.94 -59.47,-1.07 -97.58,-47.08 -207.54,-33.17 -91.78,11.59 -115.57,56.5 -173.12,74.81 -27.22,-41.64 -13.94,-111.23 -77.09,-185.22 -37.12,-43.5 -152.49,-107.6 -155.17,-111.52 0.14,-12.99 81.25,-100.79 22.15,-146.11 -20.75,-2.28 -81.36,44.92 -108.25,55.64 -39.68,15.82 -93.76,28.48 -135.7,38.73 -167.28,40.94 -327.92,118.03 -460.5,228.05 -60.51,50.22 -122.26,139.45 -169.09,175.19 -27.63,-18.14 -125.93,-168.53 -278.11,-254.37 -285.09,-160.84 -436.3,-144.18 -563.73,-236.63 -37.6,-27.27 -49.37,40.64 -46.66,62.1 5.42,42.91 51.39,63.45 42.81,80.06 -0.42,0.82 -126.84,73.08 -154.93,110.22 -50.13,66.29 -68.08,179.98 -75.83,189.95z"/>
  <g id="_2235528183504">
   <g>
    <path class="fil0" d="M844.07 272.16c-10.53,-7.72 -9.47,-34.62 -62.49,-75.12 -25.94,-19.82 -40.3,-19.68 -75.12,-19.68 -21.96,0 16.92,31.82 33.28,76.81 25.04,68.89 31.54,143.81 39.85,217.03 2.38,20.95 6.39,37.17 8.96,55.26 7.67,53.94 17.15,110.65 33.74,161.97 10.49,32.47 18.78,67.18 32.96,98.54 7.35,16.25 11.99,29.82 19.44,44.78 13.75,27.66 26,59.67 42.18,86.25 8.09,13.28 18.94,28.53 18.94,48.34 -17.7,-0.4 -28.28,-11.13 -42.81,-18.35 -122.63,-60.99 -192.07,-88.91 -329.07,-120.47 -70.29,-16.18 -148.14,-19.41 -223.52,-30.29 -52.26,-7.54 -103.08,-23 -150.37,-42.29 -14.09,-5.74 -28.67,-16.49 -46.26,-17.96 0,30.9 10.84,60.14 31.25,81.9 37.53,39.99 24.49,27.08 49.16,36.46 17.73,6.74 23.18,23.71 -4.35,34.16 -23.79,9.02 -44.58,24.35 -65.69,38.28 -56.11,37.03 -97.29,91.43 -129.05,149.23 -27.03,49.2 -28.78,131.37 -21.23,191.31 4.84,38.46 28.72,76.37 55.05,103.97 35.04,36.74 39.31,45.32 87.73,74.34 69,41.34 114.49,33.46 192.84,33.46 43.36,0 111.88,-40.02 135.5,-72.46l39.87 -64.1c40.61,-81.02 18.46,-173.17 -34.62,-242.71 -39.12,-51.25 -144.2,-72 -209.11,-40.77 -50.62,24.36 -93.71,65.91 -93.71,126.47 0,23.33 3.05,34.1 3.05,58.1 14.84,-3.96 21.29,-25.37 28.58,-38.71 12.09,-22.12 17.3,-19.67 17.3,-53.03 12.28,3.28 8.85,0.83 9.17,15.29 20.29,-10.74 37.08,-32.35 54.59,-46.33 29.14,-23.26 39.68,-36.24 83.02,-36.24 39.52,0 82.05,23.01 101.56,54.4 17.17,27.62 42.17,75.18 42.17,116.85 0,45.47 -42.8,116.48 -65.11,142.84 -24.45,28.9 -59.96,49.11 -97.48,58.48 -52.04,12.99 -114.76,2.16 -160.45,-12.83 -36.27,-11.91 -62.27,-24.66 -87.49,-47.07 -104.02,-92.46 -111.59,-234.41 -41.94,-349.25 39.76,-65.58 94.17,-102.72 158.29,-141.4 66.02,-39.83 249.86,-81.44 312.53,-51.37 -1.23,14.71 -6.33,13.72 -15.72,20.97 -7.16,5.54 -12.06,11.33 -18.73,17.97 -24.31,24.21 -23.65,40.52 -23.65,74.2 0,15.24 11.87,39.22 19.15,48.13 11.16,13.62 23.42,23.17 38.95,31.39 0,-64.16 -11.12,-108.76 38.98,-153.68 42.38,-38 94.29,-11.44 140.8,1.42l88.02 31.24c42.97,17.24 78.4,36.06 118.47,55.84 18.89,9.33 29.62,5.76 29.62,31.54 -18.45,4.3 -8.68,0.57 -25.88,-4.62 -22.31,-6.73 -75.74,-19.85 -96.44,-19.85 -22.9,0 -34.66,1.59 -56.27,7.95 -12.41,3.66 -20,3.86 -33.76,5.99 -25.2,3.91 -42.38,4.44 -53.7,25.82 8.84,10.16 10.23,12.46 27.12,15.69 44.68,8.56 92.89,14.89 141.08,14.89 89.59,0 88.29,-19.13 172.39,11.09 9.72,3.49 38.49,19.12 29.76,-1.46 -9.37,-22.07 -24.79,-38.73 -24.79,-67.73l0 -67.28c0,-41.95 6.12,-71.78 6.12,-113.15 0,-13.36 -9.94,-6.48 -15.87,-20.83 -10.87,-26.31 -4.84,-67.89 -17.77,-92.32 -20.38,13.65 -25.19,60.89 -29.41,86.79 -6.74,41.35 -4.73,99.36 7.63,139.88 18.91,61.95 -10.1,49.92 -30.22,5.76 -3.74,-8.2 -6.6,-10.81 -11.22,-19.37 -23.3,-43.21 -41.69,-93.45 -58.71,-140.05 -20.9,-57.18 -62.73,-155.73 6.94,-197.17 84.27,-50.13 68.58,-16.51 139.46,-16.51 -1.51,-18.07 -21.48,-34.6 -33.55,-42.9 -27.28,-18.78 -97.09,-20.57 -121.63,-2.18 -11.67,8.75 -24.01,29.79 -43.6,29.79 -22.61,0 -10.26,-57.76 -9.17,-67.28 1.57,-13.83 1.96,-23.56 3.5,-39.3 1.09,-11.07 4.1,-24.11 5.84,-36.98 7.59,-56.42 28.04,-113.49 55.43,-158.63 21.31,-35.12 46.42,-67.4 73.72,-97.53 35.07,-38.7 81.92,-65.13 129.62,-84.44 18.94,-7.67 93.45,-15.62 113.87,-14.27 49.53,3.28 86.94,19.31 123.06,48.44l44.53 41.09c42.94,51.87 74.27,112.31 74.27,188.72 0,11.62 -1.04,9.27 -3.38,18.03 -1.75,6.55 -1.8,8.9 -3.59,17.81 -1.79,8.94 -6.46,25.03 -10.14,35.74 -14.5,42.22 -47.11,76.22 -83.14,100.34 -18.66,12.49 -39.15,21.46 -64.2,27.54 -51.78,12.57 -108.89,7.36 -149.29,-17.21 -10.18,-6.19 -18.06,-11.57 -26.71,-19.16 -0.78,-0.68 -4.77,-4.29 -4.83,-4.35 -0.45,-0.44 -1.09,-1.08 -1.54,-1.52 -48.58,-49.11 -61.53,-102.72 -11.71,-157.96l58.84 -51.24c-12.03,-16.43 -12.23,-2.55 -12.23,-27.53 0,-18.52 47.02,-15.36 63.64,-18.92 9.9,-2.12 11.79,-2.42 12.81,-14.72 -61.02,-14.21 -112.19,-4.5 -153.65,42.07 -64.92,72.93 -54.15,198.43 28.82,254.02 40.82,27.35 96.96,52.53 149.29,52.53 24.47,0 69.12,-12.92 89.74,-23.41 30.17,-15.34 45.81,-24.98 68.52,-47.69 20.59,-20.59 33.87,-37.76 47.67,-65.47 22.29,-44.8 26.49,-72.1 26.49,-123.36 0,-31.79 -19.77,-91.24 -30.52,-113.22 -11.02,-22.55 -25.58,-45.73 -43.63,-63.4 -18.35,-17.95 -33.61,-36.82 -53.81,-53.22 -36.86,-29.93 -109.87,-61.15 -161.26,-56.35 -69.82,6.52 -156.25,36.27 -205.48,85.06 -51,50.54 -59.44,64.89 -99.46,117.67 -9.3,12.27 -21.99,43.37 -26.63,46.76zm-397.55 207.95c-5.62,5.62 -2.98,5.72 0.12,14.72 2.71,7.88 4,7.41 6.69,18.23 8.37,33.64 4.33,38.57 64.51,52.23 13.31,3.03 22.93,8.53 18.11,-39.81 -2.97,-29.78 -1.45,-26.21 -51.37,-40.61 -9.28,-2.68 -9.99,-3.29 -19.78,-5.04 -10.39,-1.86 -13.58,-4.42 -18.28,0.28zm-403.66 162.07l0 9.18c41.9,0 102.13,-39.58 135.03,-63.74 19.63,-14.42 36.55,-28.21 58.64,-39.23l51.58 -21.81c12.02,-4.74 11.59,-1.25 14.69,-12.83 -61.49,0 -59.63,-7.94 -123.91,10.64 -11.4,3.29 -26.09,10.11 -36.61,15.38 -33.79,16.93 -99.42,66.22 -99.42,102.41zm434.25 -302.74c16.39,-10.98 29.87,-48.03 39.68,-67.35l42.87 -67.22c14.37,-20.24 32.93,-44.94 42.79,-67.3 6.95,-15.79 10.79,-22.67 18.38,-36.66 7.02,-12.93 15.29,-19.48 15.29,-39.75 -17.61,1.46 -54.58,28.72 -68.18,38.85 -83.93,62.5 -73.89,143.81 -82.03,165.66 -8.07,21.63 -8.8,48.74 -8.8,73.77zm-363.91 1259.91c18.63,27.83 40.04,34.67 58.59,48.44 21.05,15.64 39.87,30.14 58.38,48.65 153.51,153.5 21,260.7 -28.29,260.7 -17.61,0 -37.78,-0.38 -49.17,-15.04 -6.59,-8.48 -9.16,-25.92 -11.15,-37.78 -2.24,-13.3 -2.92,-33.69 -11.25,-40.74 -8.41,-7.11 -29.34,-6.02 -29.34,-19.59 0,-28.49 30.6,-46.29 55.04,-51.98l0 -12.23c-9.57,-0.8 -10.86,-3.06 -21.41,-3.06 -34.06,0 -104.84,57.42 -64.32,134.66 9.35,17.82 40.02,49.02 54.13,55.96 56.81,27.89 150.91,3.49 178.42,-56.03 19.51,-42.2 15.26,-37.73 15.26,-88.72 0,-55.22 -56.03,-121.85 -58.11,-146.79 17.69,1.47 10.37,1.9 27.97,0.46l60.54 5.51c10.58,-0.3 12.88,-2.73 27.68,-2.93 45.31,-0.59 71.86,-16.24 107.05,-24.44l0 -9.18c-9.24,-2.15 -14.57,-5.8 -24.53,-6.08l-176.83 27.07c-29.43,-1.76 -47.15,-7.83 -71.26,-20.53l-97.4 -46.33zm140.67 -1366.94c-17.33,-4.63 -18.09,-16.07 -34.41,-20.64 -30.23,-8.47 -74.48,-38.46 -46.45,31.16 10.85,26.94 21.72,35.21 22.75,47.58 -9.79,2.62 -91.49,61.98 -27.72,61.37 36.29,-0.35 71.52,5.94 104.91,14.35 24.93,6.28 82.32,36.69 109.36,49.66 -0.31,-13.8 -15.1,-42.26 -21.44,-55.01l-33.45 -85.82 -11.02 -68.49c-3.88,-23.32 -3.53,-26.15 -19.72,-26.15 -15.52,0 -26.51,41.07 -42.81,51.99zm-15.29 470.93c29.53,14.18 60.1,10.36 100.95,12.2 50.35,2.26 27.12,30.62 85.59,30.62 27.17,0 49.12,-11.91 75.93,-8.8 8.75,1.01 28.99,1.86 39.18,3.78 20.44,3.84 8.92,7.27 34.64,8.17 68.83,2.39 111.74,30.56 137.71,36.6 -4.06,-15.19 -24.98,-31.79 -37.94,-41.57 -59.17,-44.62 -167.63,-108.27 -243.4,-108.27 -58.53,0 -112.04,9.66 -162.72,39.12 -15.79,9.18 -25.52,9.16 -29.94,28.15zm373.08 -287.45l0 64.22c0,62.44 54.55,163.43 92.13,210.61 8.82,11.07 14.32,16.77 22.82,29.17 4.96,7.22 6.08,7.7 10.74,13.73 5.6,7.26 4.64,9.78 14.98,12.54 -0.58,-25.86 -40.65,-89.23 -39.76,-238.53 0.26,-43.16 -5.78,-87.08 -13.99,-123.62 -11.11,-49.43 -5.99,-70.14 -31.88,-108.79 -14.95,7.91 -15.4,10.39 -23.97,24.96 -19.29,32.81 -31.07,73.21 -31.07,115.71zm1131.48 -241.59c0,15.37 2.75,13.7 3.06,27.53 18.54,-4.95 33.46,-42.61 61.16,-61.16 26.29,6.12 17.2,27.12 69.05,37.97 17.72,3.71 28.28,3.1 41.09,10.9 49.46,30.12 -5.84,92.73 -24.49,107.12 -13.16,10.17 -17.77,14.72 -35.38,22.71 -21.3,9.67 -33.14,13.95 -56.39,13.95 -24.78,0 -71.09,-24.35 -86.09,-36.22 -11.61,-9.2 -22.88,-17.31 -33.96,-27.21 -16.73,-14.94 -29.74,-24.32 -44.15,-47.59l-37.62 -54.13c-8.82,-13.42 -46.79,-57.3 -61.17,-61.14 2.08,7.79 8.83,15.14 14.06,22.64l43.94 66.14c7.64,13.16 45.97,87.3 45.97,100.82 0,85.7 -5.29,53.43 -27.53,131.48 -3.45,12.11 -9.9,36.41 -8.07,50.88 2.4,18.96 10.45,33.17 29.49,34.76 28.21,-53.32 27.52,-149.95 27.52,-217.12 23.05,0.51 81.62,58.1 128.44,58.1 52.09,0 73.34,-3.25 118.02,-37.94 23.69,-18.39 42.37,-49.77 49.51,-79.01 8.47,-34.77 -8.64,-74.16 -24.59,-96.33 -37.26,-51.77 -60.52,-49.71 -115.42,-49.71 -27.1,0 -76.45,39.57 -76.45,82.56z"/>
    <path class="fil0" d="M4712.51 223.23c0,52.99 35.91,129.97 71.56,157.79 17.49,13.65 32.51,30.78 51.31,43.49 95.38,64.49 33.09,33.35 33.09,132.05 0,24.68 43.39,-17.45 80.74,-32.4 47.23,-18.9 103.18,-27.32 152.1,-43.62 17.33,-5.78 31.36,-11.19 49.68,-17.6l47.38 -16.84c8.15,-3.34 13.95,-6.74 22.78,-10.85 83.32,-38.83 150.72,-77.42 216.88,-143.97 12.12,-12.19 21.5,-22.7 32.79,-34.5 12.29,-12.84 61.44,-62.96 70.42,-64.13 16.92,3.95 24.87,17.23 35.93,28.29 43.54,43.54 82.57,91.31 133.49,126.44 14.34,9.9 24.59,18.18 39.82,27.46 14.71,8.98 24.97,15.72 39.74,24.48 14.37,8.52 29.61,15.49 44.13,23.14 103.25,54.37 287.01,80.21 356.04,133.25 8.02,6.17 10.33,9.73 23.62,10.03l3.06 -30.59c0,-40.75 -38.03,-57.12 -12.83,-80.1 47.94,-43.71 96.58,-34.62 146.4,-141.05 37.27,-79.65 22.49,-146.64 -26.94,-212.69 -23.47,-31.35 -62.81,-63.62 -115.72,-64.71 -82.24,-1.69 -141.2,0.43 -180.6,79.52 -35.09,70.44 -0.27,220.26 97.95,220.26 36.37,0 82.42,3.3 104.07,-27.42 14.09,-19.98 32.93,-59.75 18.18,-85.66 -7.16,-12.59 -25.63,-38.2 -41.3,-41.53 -25.06,-5.32 1.61,39.41 1.61,44.52 0,12.54 -21.94,52.59 -29.92,58.76 -41.91,32.45 -147.44,5.42 -147.44,-92.4 0,-113.05 109.13,-160.39 171.28,-143.77 65.19,17.44 126.07,73.05 145.32,139.09 5.25,17.98 4.49,40.4 4.49,59.73 0,17.68 -9.62,30.35 -14.86,43.24 -17.61,43.33 -36.25,72.99 -74.22,103.15 -55.75,44.3 -120.83,61.56 -195.32,61.56 -30.55,0 -65.69,-1.69 -85.62,-12.24 8.76,-13.09 22.13,-14.47 32.36,-25.74 35.72,-39.36 3.57,-113.79 -47.65,-114.93 0.83,37.42 24.2,28.56 -0.98,78.53 -10.3,20.43 -22.66,52.97 -51.01,52.97 -33.39,0 -115.16,-48.47 -145.55,-68.52l-74.69 -53.74c-32.36,-24.56 -61.28,-52.53 -89.45,-81.81l-40.06 -45.56c-10.58,-15.59 5.23,-63.28 -23.91,-63.88 -27.22,-0.55 13.61,33.22 -59.76,109.44 -29.16,30.3 -57.48,57.44 -88.77,85.54 -15.99,14.37 -33.49,21.12 -51.43,34.19 -17.29,12.6 -32.48,23.41 -52.22,33.41 -34.39,17.45 -87.19,50.93 -126.44,50.93 -26.7,0 -55.05,-70 -55.05,-94.8 0,-21.79 8.41,-20.29 12.23,-36.7 -37.16,0.83 -58.85,31.16 -67.94,63.75 -9.64,34.58 44.05,59.22 49.6,79.98 -28.95,13.89 -88.68,9.18 -125.38,9.18 -62.36,0 -120.86,-31.73 -164.24,-68.18 -20.59,-17.31 -38.69,-41.14 -50.91,-65.29 -34.63,-68.41 -43.83,-130.53 7.89,-193.05 21.54,-26.05 38.55,-47.85 70.57,-63.99 46.53,-23.46 79.19,-21.91 127.2,-6.73 111.18,35.17 115.25,223.5 12.12,237.83 -26,3.61 -52.51,2.31 -70.52,-11.23 -12.99,-9.77 -29.97,-39.9 -29.97,-61.78 0,-9.68 3.08,-11.59 5.47,-19 2.86,-8.92 3.71,-12.81 3.71,-23.81 -17.49,1.46 -22.9,12.25 -32.89,22.16 -18.35,18.22 -22.16,25.08 -22.16,51.23 0,25.25 18.53,49.32 32.81,61.99 25.92,22.98 109.84,29.76 141.96,8.81 29.83,-19.45 47.84,-56.5 57.11,-89.68 6.22,-22.26 4.65,-42.21 3.65,-63.67 -4.59,-99.38 -70.73,-137.63 -165.2,-137.63 -89.28,0 -135.23,47.72 -169.23,115.17 -9.75,19.34 -20.36,46.88 -20.36,74.43zm828.73 529.04c25.26,0 19.2,-49.56 33.39,-67.51 11.28,-14.28 62.79,-15.05 82.81,-15.05 -1.2,-14.44 1.58,-4.45 -6.65,-14.76 -27.38,-34.3 -35.55,-59.67 -54.92,-91.86 -0.9,-1.5 -3.53,-5.94 -4.84,-7.39 -4.7,-5.18 0.35,-2.6 -6.98,-5.26 0,40.6 7.84,73.43 -12.15,79.59 -11.93,3.68 -70.42,11.39 -70.42,-21.48 0,-10.63 2.77,-55.4 0,-61.16 -21.06,14.1 -31.57,65.96 -55.79,90.98 -4.76,4.92 -7.09,8.34 -11.34,13.45 -6.17,7.39 -11.61,8.31 -5.7,14.09 12.45,12.21 62.42,-0.03 80.93,17.1 14.52,13.44 9.07,69.26 31.66,69.26zm272.16 -495.4c40.56,0 73.84,-34.9 89.78,-66.18 51.7,-101.47 -39.61,-16.39 -126.47,-16.39 -88.92,0 -185.18,-73.91 -122.85,3.59 11.34,14.1 62.57,50.94 87.28,59.5 18.47,6.41 42.56,19.48 72.26,19.48zm-547.39 0c67.49,0 182.36,-65.73 183.48,-116.2 -45.08,3.75 -111.46,67.7 -241.49,9.08 -38.88,-17.53 -49.04,-13.6 -33.77,24.59 10.49,26.26 25.13,50.77 49.46,66.75 8.12,5.34 30.29,15.78 42.32,15.78zm-24.46 324.15c0,19.26 5.66,33.87 9.17,48.93 31.89,2.66 38.13,8.6 79.55,-12.19 48.95,-24.58 42.91,-30.4 65.5,-47.65l34.18 -39.21c68.14,-103.53 56.66,-127.68 78.98,-223.77 3.11,-13.4 7.5,-16.56 7.84,-31.91 -12.47,8.36 -22.72,24.79 -31.79,38.54 -87.34,132.4 -243.43,188.9 -243.43,267.26zm571.85 51.99l9.18 0c22.23,0 33.55,-69.41 -6.83,-112.43l-141.11 -121.89c-4.4,-4.76 -5.78,-6.58 -10.29,-11.12 -34.47,-34.7 -48.3,-49.85 -75.39,-89.73 -7.44,-10.95 -8.19,-18.31 -23.26,-19.56 2.25,9.66 6.51,16.56 9.62,27.07l19.14 94.01c11.33,45.13 23.78,70.34 43.67,106.18 12.35,22.25 16.65,26.29 30.63,42.76 34.06,40.14 83.81,84.71 144.64,84.71z"/>
    <path class="fil0" d="M4165.11 116.2c-106.37,0 -115.67,-65.59 -198.16,-14.67 -36.51,22.54 -138.76,17.73 -184.09,17.73 -89.7,0 -179.41,0 -269.11,0 -89.1,0 -174.16,-3.06 -266.05,-3.06l-1137.59 0c-13.43,0 -11.27,9.4 -9.18,18.35l1709.45 0c40.97,0 89.65,0.79 125.56,5.94 41.06,5.88 74.9,12.02 115.96,9.43 33.96,-2.15 70.14,-15.37 119.33,-15.37 63.84,0 111.72,22.54 152.75,46.02 20.06,11.48 42,25.54 59.09,41.82l23.21 26.08c15.41,10.65 24.88,0.45 24.88,-22.18 0,-22.28 -12.23,-28.22 -12.23,-55.04 0,-10.24 10.01,-10.29 20.19,-13.46 26.36,-8.21 24.59,-6.25 49.1,-18.18 9.57,-4.66 16.95,-6.65 25.51,-11.17 -6.63,-12.54 -7.74,-11.71 -20.12,-19.64 -33.26,-21.29 -74.68,-30.91 -74.68,-44.58 0,-23.2 9.18,-10.8 9.18,-64.22 -22.53,0 -39.61,17.74 -63.8,37.11 -8.63,6.92 -16.69,13.24 -26.97,18.9 -50.19,27.62 -112.08,60.19 -172.23,60.19z"/>
   </g>
   <g>
    <path class="fil0" d="M10230.32 272.16c10.53,-7.72 9.47,-34.62 62.49,-75.12 25.94,-19.82 40.3,-19.68 75.12,-19.68 21.96,0 -16.92,31.82 -33.28,76.81 -25.05,68.89 -31.54,143.81 -39.85,217.03 -2.38,20.95 -6.39,37.17 -8.96,55.26 -7.67,53.94 -17.15,110.65 -33.74,161.97 -10.49,32.47 -18.78,67.18 -32.96,98.54 -7.35,16.25 -11.99,29.82 -19.44,44.78 -13.75,27.66 -26,59.67 -42.18,86.25 -8.09,13.28 -18.95,28.53 -18.95,48.34 17.71,-0.4 28.29,-11.13 42.82,-18.35 122.63,-60.99 192.06,-88.91 329.07,-120.47 70.29,-16.18 148.14,-19.41 223.52,-30.29 52.26,-7.54 103.08,-23 150.37,-42.29 14.09,-5.74 28.66,-16.49 46.26,-17.96 0,30.9 -10.84,60.14 -31.26,81.9 -37.52,39.99 -24.48,27.08 -49.15,36.46 -17.73,6.74 -23.18,23.71 4.35,34.16 23.79,9.02 44.58,24.35 65.69,38.28 56.1,37.03 97.29,91.43 129.05,149.23 27.02,49.2 28.78,131.37 21.23,191.31 -4.84,38.46 -28.72,76.37 -55.05,103.97 -35.04,36.74 -39.31,45.32 -87.73,74.34 -69,41.34 -114.49,33.46 -192.85,33.46 -43.35,0 -111.87,-40.02 -135.49,-72.46l-39.87 -64.1c-40.61,-81.02 -18.46,-173.17 34.62,-242.71 39.12,-51.25 144.2,-72 209.11,-40.77 50.62,24.36 93.71,65.91 93.71,126.47 0,23.33 -3.06,34.1 -3.06,58.1 -14.83,-3.96 -21.28,-25.37 -28.57,-38.71 -12.09,-22.12 -17.3,-19.67 -17.3,-53.03 -12.28,3.28 -8.85,0.83 -9.17,15.29 -20.29,-10.74 -37.08,-32.35 -54.59,-46.33 -29.14,-23.26 -39.68,-36.24 -83.02,-36.24 -39.52,0 -82.05,23.01 -101.57,54.4 -17.16,27.62 -42.16,75.18 -42.16,116.85 0,45.47 42.8,116.48 65.11,142.84 24.45,28.9 59.96,49.11 97.48,58.48 52.04,12.99 114.76,2.16 160.45,-12.83 36.27,-11.91 62.27,-24.66 87.49,-47.07 104.02,-92.46 111.58,-234.41 41.94,-349.25 -39.76,-65.58 -94.17,-102.72 -158.29,-141.4 -66.02,-39.83 -249.86,-81.44 -312.53,-51.37 1.23,14.71 6.33,13.72 15.72,20.97 7.16,5.54 12.06,11.33 18.73,17.97 24.31,24.21 23.65,40.52 23.65,74.2 0,15.24 -11.87,39.22 -19.16,48.13 -11.15,13.62 -23.41,23.17 -38.94,31.39 0,-64.16 11.12,-108.76 -38.98,-153.68 -42.38,-38 -94.29,-11.44 -140.8,1.42l-88.02 31.24c-42.97,17.24 -78.4,36.06 -118.47,55.84 -18.89,9.33 -29.62,5.76 -29.62,31.54 18.45,4.3 8.67,0.57 25.88,-4.62 22.31,-6.73 75.74,-19.85 96.44,-19.85 22.89,0 34.66,1.59 56.26,7.95 12.41,3.66 20.01,3.86 33.77,5.99 25.2,3.91 42.38,4.44 53.7,25.82 -8.84,10.16 -10.23,12.46 -27.12,15.69 -44.68,8.56 -92.89,14.89 -141.08,14.89 -89.59,0 -88.29,-19.13 -172.39,11.09 -9.73,3.49 -38.49,19.12 -29.76,-1.46 9.37,-22.07 24.79,-38.73 24.79,-67.73l0 -67.28c0,-41.95 -6.12,-71.78 -6.12,-113.15 0,-13.36 9.94,-6.48 15.87,-20.83 10.87,-26.31 4.84,-67.89 17.77,-92.32 20.38,13.65 25.19,60.89 29.41,86.79 6.74,41.35 4.73,99.36 -7.63,139.88 -18.91,61.95 10.1,49.92 30.22,5.76 3.73,-8.2 6.6,-10.81 11.21,-19.37 23.31,-43.21 41.7,-93.45 58.72,-140.05 20.89,-57.18 62.73,-155.73 -6.94,-197.17 -84.27,-50.13 -68.58,-16.51 -139.46,-16.51 1.51,-18.07 21.48,-34.6 33.55,-42.9 27.28,-18.78 97.09,-20.57 121.63,-2.18 11.67,8.75 24.01,29.79 43.6,29.79 22.61,0 10.26,-57.76 9.17,-67.28 -1.58,-13.83 -1.96,-23.56 -3.5,-39.3 -1.09,-11.07 -4.1,-24.11 -5.84,-36.98 -7.59,-56.42 -28.04,-113.49 -55.43,-158.63 -21.31,-35.12 -46.42,-67.4 -73.72,-97.53 -35.07,-38.7 -81.92,-65.13 -129.62,-84.44 -18.94,-7.67 -93.45,-15.62 -113.87,-14.27 -49.53,3.28 -86.94,19.31 -123.06,48.44l-44.53 41.09c-42.94,51.87 -74.27,112.31 -74.27,188.72 0,11.62 1.04,9.27 3.38,18.03 1.75,6.55 1.8,8.9 3.59,17.81 1.79,8.94 6.46,25.03 10.14,35.74 14.5,42.22 47.11,76.22 83.14,100.34 18.66,12.49 39.15,21.46 64.2,27.54 51.78,12.57 108.89,7.36 149.29,-17.21 10.18,-6.19 18.06,-11.57 26.71,-19.16 0.78,-0.68 4.77,-4.29 4.83,-4.35 0.45,-0.44 1.09,-1.08 1.54,-1.52 48.58,-49.11 61.53,-102.72 11.71,-157.96l-58.84 -51.24c12.03,-16.43 12.23,-2.55 12.23,-27.53 0,-18.52 -47.02,-15.36 -63.64,-18.92 -9.9,-2.12 -11.79,-2.42 -12.81,-14.72 61.02,-14.21 112.19,-4.5 153.65,42.07 64.92,72.93 54.15,198.43 -28.82,254.02 -40.82,27.35 -96.96,52.53 -149.29,52.53 -24.47,0 -69.12,-12.92 -89.74,-23.41 -30.17,-15.34 -45.81,-24.98 -68.52,-47.69 -20.59,-20.59 -33.87,-37.76 -47.67,-65.47 -22.29,-44.8 -26.49,-72.1 -26.49,-123.36 0,-31.79 19.77,-91.24 30.52,-113.22 11.02,-22.55 25.58,-45.73 43.63,-63.4 18.35,-17.95 33.61,-36.82 53.81,-53.22 36.86,-29.93 109.87,-61.15 161.26,-56.35 69.82,6.52 156.25,36.27 205.48,85.06 51,50.54 59.44,64.89 99.46,117.67 9.3,12.27 21.99,43.37 26.63,46.76zm397.54 207.95c5.62,5.62 2.99,5.72 -0.11,14.72 -2.71,7.88 -4,7.41 -6.69,18.23 -8.37,33.64 -4.34,38.57 -64.51,52.23 -13.31,3.03 -22.93,8.53 -18.11,-39.81 2.97,-29.78 1.45,-26.21 51.37,-40.61 9.28,-2.68 9.99,-3.29 19.78,-5.04 10.39,-1.86 13.58,-4.42 18.27,0.28zm403.67 162.07l0 9.18c-41.9,0 -102.13,-39.58 -135.03,-63.74 -19.63,-14.42 -36.55,-28.21 -58.64,-39.23l-51.58 -21.81c-12.02,-4.74 -11.59,-1.25 -14.69,-12.83 61.49,0 59.63,-7.94 123.91,10.64 11.4,3.29 26.09,10.11 36.61,15.38 33.79,16.93 99.42,66.22 99.42,102.41zm-434.25 -302.74c-16.39,-10.98 -29.88,-48.03 -39.68,-67.35l-42.87 -67.22c-14.37,-20.24 -32.93,-44.94 -42.79,-67.3 -6.95,-15.79 -10.79,-22.67 -18.38,-36.66 -7.02,-12.93 -15.29,-19.48 -15.29,-39.75 17.61,1.46 54.58,28.72 68.18,38.85 83.93,62.5 73.89,143.81 82.03,165.66 8.07,21.63 8.8,48.74 8.8,73.77zm363.91 1259.91c-18.63,27.83 -40.04,34.67 -58.59,48.44 -21.05,15.64 -39.87,30.14 -58.38,48.65 -153.51,153.5 -21,260.7 28.29,260.7 17.61,0 37.78,-0.38 49.17,-15.04 6.59,-8.48 9.16,-25.92 11.15,-37.78 2.24,-13.3 2.92,-33.69 11.25,-40.74 8.4,-7.11 29.34,-6.02 29.34,-19.59 0,-28.49 -30.6,-46.29 -55.04,-51.98l0 -12.23c9.57,-0.8 10.86,-3.06 21.41,-3.06 34.06,0 104.84,57.42 64.32,134.66 -9.35,17.82 -40.02,49.02 -54.13,55.96 -56.81,27.89 -150.91,3.49 -178.42,-56.03 -19.51,-42.2 -15.26,-37.73 -15.26,-88.72 0,-55.22 56.03,-121.85 58.11,-146.79 -17.69,1.47 -10.37,1.9 -27.97,0.46l-60.54 5.51c-10.59,-0.3 -12.88,-2.73 -27.68,-2.93 -45.31,-0.59 -71.86,-16.24 -107.05,-24.44l0 -9.18c9.24,-2.15 14.56,-5.8 24.53,-6.08l176.83 27.07c29.43,-1.76 47.15,-7.83 71.26,-20.53l97.4 -46.33zm-140.67 -1366.94c17.33,-4.63 18.09,-16.07 34.41,-20.64 30.23,-8.47 74.47,-38.46 46.45,31.16 -10.85,26.94 -21.73,35.21 -22.75,47.58 9.79,2.62 91.48,61.98 27.72,61.37 -36.29,-0.35 -71.52,5.94 -104.91,14.35 -24.93,6.28 -82.32,36.69 -109.36,49.66 0.31,-13.8 15.1,-42.26 21.44,-55.01l33.45 -85.82 11.02 -68.49c3.87,-23.32 3.53,-26.15 19.72,-26.15 15.52,0 26.51,41.07 42.81,51.99zm15.29 470.93c-29.53,14.18 -60.1,10.36 -100.96,12.2 -50.34,2.26 -27.11,30.62 -85.58,30.62 -27.17,0 -49.12,-11.91 -75.93,-8.8 -8.76,1.01 -28.99,1.86 -39.18,3.78 -20.44,3.84 -8.92,7.27 -34.64,8.17 -68.83,2.39 -111.74,30.56 -137.71,36.6 4.06,-15.19 24.98,-31.79 37.94,-41.57 59.17,-44.62 167.63,-108.27 243.4,-108.27 58.53,0 112.04,9.66 162.71,39.12 15.8,9.18 25.53,9.16 29.95,28.15zm-373.08 -287.45l0 64.22c0,62.44 -54.55,163.43 -92.14,210.61 -8.81,11.07 -14.31,16.77 -22.81,29.17 -4.96,7.22 -6.08,7.7 -10.74,13.73 -5.6,7.26 -4.64,9.78 -14.98,12.54 0.58,-25.86 40.65,-89.23 39.76,-238.53 -0.26,-43.16 5.78,-87.08 13.99,-123.62 11.11,-49.43 5.99,-70.14 31.87,-108.79 14.96,7.91 15.41,10.39 23.98,24.96 19.29,32.81 31.07,73.21 31.07,115.71zm-1131.48 -241.59c0,15.37 -2.75,13.7 -3.06,27.53 -18.54,-4.95 -33.46,-42.61 -61.16,-61.16 -26.29,6.12 -17.2,27.12 -69.06,37.97 -17.72,3.71 -28.27,3.1 -41.08,10.9 -49.46,30.12 5.84,92.73 24.48,107.12 13.17,10.17 17.77,14.72 35.39,22.71 21.3,9.67 33.14,13.95 56.39,13.95 24.78,0 71.09,-24.35 86.09,-36.22 11.61,-9.2 22.88,-17.31 33.96,-27.21 16.73,-14.94 29.74,-24.32 44.14,-47.59l37.63 -54.13c8.82,-13.42 46.79,-57.3 61.17,-61.14 -2.08,7.79 -8.83,15.14 -14.06,22.64l-43.94 66.14c-7.65,13.16 -45.98,87.3 -45.98,100.82 0,85.7 5.3,53.43 27.54,131.48 3.45,12.11 9.9,36.41 8.07,50.88 -2.4,18.96 -10.45,33.17 -29.49,34.76 -28.21,-53.32 -27.52,-149.95 -27.52,-217.12 -23.05,0.51 -81.62,58.1 -128.44,58.1 -52.09,0 -73.34,-3.25 -118.02,-37.94 -23.69,-18.39 -42.37,-49.77 -49.51,-79.01 -8.47,-34.77 8.64,-74.16 24.59,-96.33 37.26,-51.77 60.52,-49.71 115.42,-49.71 27.1,0 76.45,39.57 76.45,82.56z"/>
    <path class="fil0" d="M6909.28 116.2c106.37,0 115.67,-65.59 198.15,-14.67 36.52,22.54 138.77,17.73 184.1,17.73 89.7,0 179.41,0 269.11,0 89.1,0 174.15,-3.06 266.05,-3.06l1137.59 0c13.43,0 11.26,9.4 9.18,18.35l-1709.45 0c-40.97,0 -89.66,0.79 -125.56,5.94 -41.06,5.88 -74.9,12.02 -115.96,9.43 -33.96,-2.15 -70.14,-15.37 -119.33,-15.37 -63.85,0 -111.72,22.54 -152.75,46.02 -20.06,11.48 -42,25.54 -59.1,41.82l-23.2 26.08c-15.41,10.65 -24.88,0.45 -24.88,-22.18 0,-22.28 12.23,-28.22 12.23,-55.04 0,-10.24 -10.01,-10.29 -20.19,-13.46 -26.36,-8.21 -24.59,-6.25 -49.1,-18.18 -9.57,-4.66 -16.96,-6.65 -25.51,-11.17 6.63,-12.54 7.74,-11.71 20.12,-19.64 33.25,-21.29 74.68,-30.91 74.68,-44.58 0,-23.2 -9.18,-10.8 -9.18,-64.22 22.52,0 39.61,17.74 63.8,37.11 8.63,6.92 16.69,13.24 26.97,18.9 50.19,27.62 112.07,60.19 172.23,60.19z"/>
   </g>
  </g>
  <g id="_2235528184032">
   <g>
    <path class="fil0" d="M844.07 20047.84c-10.53,7.72 -9.47,34.62 -62.49,75.12 -25.94,19.82 -40.3,19.68 -75.12,19.68 -21.96,0 16.92,-31.82 33.28,-76.81 25.04,-68.89 31.54,-143.81 39.85,-217.03 2.38,-20.95 6.39,-37.17 8.96,-55.26 7.67,-53.94 17.15,-110.65 33.74,-161.97 10.49,-32.47 18.78,-67.18 32.96,-98.54 7.35,-16.25 11.99,-29.82 19.44,-44.78 13.75,-27.66 26,-59.67 42.18,-86.25 8.09,-13.28 18.94,-28.53 18.94,-48.34 -17.7,0.4 -28.28,11.13 -42.81,18.35 -122.63,60.99 -192.07,88.91 -329.07,120.47 -70.29,16.18 -148.14,19.41 -223.52,30.29 -52.26,7.54 -103.08,23 -150.37,42.29 -14.09,5.74 -28.67,16.49 -46.26,17.96 0,-30.9 10.84,-60.14 31.25,-81.9 37.53,-39.99 24.49,-27.08 49.16,-36.46 17.73,-6.74 23.18,-23.71 -4.35,-34.16 -23.79,-9.02 -44.58,-24.35 -65.69,-38.28 -56.11,-37.03 -97.29,-91.43 -129.05,-149.23 -27.03,-49.2 -28.78,-131.37 -21.23,-191.31 4.84,-38.46 28.72,-76.37 55.05,-103.97 35.04,-36.74 39.31,-45.32 87.73,-74.34 69,-41.34 114.49,-33.46 192.84,-33.46 43.36,0 111.88,40.02 135.5,72.46l39.87 64.1c40.61,81.02 18.46,173.17 -34.62,242.71 -39.12,51.25 -144.2,72 -209.11,40.77 -50.62,-24.36 -93.71,-65.91 -93.71,-126.47 0,-23.33 3.05,-34.1 3.05,-58.1 14.84,3.96 21.29,25.37 28.58,38.71 12.09,22.12 17.3,19.67 17.3,53.03 12.28,-3.28 8.85,-0.83 9.17,-15.29 20.29,10.74 37.08,32.35 54.59,46.33 29.14,23.26 39.68,36.24 83.02,36.24 39.52,0 82.05,-23.01 101.56,-54.4 17.17,-27.62 42.17,-75.18 42.17,-116.85 0,-45.47 -42.8,-116.48 -65.11,-142.84 -24.45,-28.9 -59.96,-49.11 -97.48,-58.48 -52.04,-12.99 -114.76,-2.16 -160.45,12.83 -36.27,11.91 -62.27,24.66 -87.49,47.07 -104.02,92.46 -111.59,234.41 -41.94,349.25 39.76,65.58 94.17,102.72 158.29,141.4 66.02,39.83 249.86,81.44 312.53,51.37 -1.23,-14.71 -6.33,-13.72 -15.72,-20.97 -7.16,-5.54 -12.06,-11.33 -18.73,-17.97 -24.31,-24.21 -23.65,-40.52 -23.65,-74.2 0,-15.24 11.87,-39.22 19.15,-48.13 11.16,-13.62 23.42,-23.17 38.95,-31.39 0,64.16 -11.12,108.76 38.98,153.68 42.38,38 94.29,11.44 140.8,-1.42l88.02 -31.24c42.97,-17.24 78.4,-36.06 118.47,-55.84 18.89,-9.33 29.62,-5.76 29.62,-31.54 -18.45,-4.3 -8.68,-0.57 -25.88,4.62 -22.31,6.73 -75.74,19.85 -96.44,19.85 -22.9,0 -34.66,-1.59 -56.27,-7.95 -12.41,-3.66 -20,-3.86 -33.76,-5.99 -25.2,-3.91 -42.38,-4.44 -53.7,-25.82 8.84,-10.16 10.23,-12.46 27.12,-15.69 44.68,-8.56 92.89,-14.89 141.08,-14.89 89.59,0 88.29,19.13 172.39,-11.09 9.72,-3.49 38.49,-19.12 29.76,1.46 -9.37,22.07 -24.79,38.73 -24.79,67.73l0 67.28c0,41.95 6.12,71.78 6.12,113.15 0,13.36 -9.94,6.48 -15.87,20.83 -10.87,26.31 -4.84,67.89 -17.77,92.32 -20.38,-13.65 -25.19,-60.89 -29.41,-86.79 -6.74,-41.35 -4.73,-99.36 7.63,-139.88 18.91,-61.95 -10.1,-49.92 -30.22,-5.76 -3.74,8.2 -6.6,10.81 -11.22,19.37 -23.3,43.21 -41.69,93.45 -58.71,140.05 -20.9,57.18 -62.73,155.73 6.94,197.17 84.27,50.13 68.58,16.51 139.46,16.51 -1.51,18.07 -21.48,34.6 -33.55,42.9 -27.28,18.78 -97.09,20.57 -121.63,2.18 -11.67,-8.75 -24.01,-29.79 -43.6,-29.79 -22.61,0 -10.26,57.76 -9.17,67.28 1.57,13.83 1.96,23.56 3.5,39.3 1.09,11.07 4.1,24.11 5.84,36.98 7.59,56.42 28.04,113.49 55.43,158.63 21.31,35.12 46.42,67.4 73.72,97.53 35.07,38.7 81.92,65.13 129.62,84.44 18.94,7.67 93.45,15.62 113.87,14.27 49.53,-3.28 86.94,-19.31 123.06,-48.44l44.53 -41.09c42.94,-51.87 74.27,-112.31 74.27,-188.72 0,-11.62 -1.04,-9.27 -3.38,-18.03 -1.75,-6.55 -1.8,-8.9 -3.59,-17.81 -1.79,-8.94 -6.46,-25.03 -10.14,-35.74 -14.5,-42.22 -47.11,-76.22 -83.14,-100.34 -18.66,-12.49 -39.15,-21.46 -64.2,-27.54 -51.78,-12.57 -108.89,-7.36 -149.29,17.21 -10.18,6.19 -18.06,11.57 -26.71,19.16 -0.78,0.68 -4.77,4.29 -4.83,4.35 -0.45,0.44 -1.09,1.08 -1.54,1.52 -48.58,49.11 -61.53,102.72 -11.71,157.96l58.84 51.24c-12.03,16.43 -12.23,2.55 -12.23,27.53 0,18.52 47.02,15.36 63.64,18.92 9.9,2.12 11.79,2.42 12.81,14.72 -61.02,14.21 -112.19,4.5 -153.65,-42.07 -64.92,-72.93 -54.15,-198.43 28.82,-254.02 40.82,-27.35 96.96,-52.53 149.29,-52.53 24.47,0 69.12,12.92 89.74,23.41 30.17,15.34 45.81,24.98 68.52,47.69 20.59,20.59 33.87,37.76 47.67,65.47 22.29,44.8 26.49,72.1 26.49,123.36 0,31.79 -19.77,91.24 -30.52,113.22 -11.02,22.55 -25.58,45.73 -43.63,63.4 -18.35,17.95 -33.61,36.82 -53.81,53.22 -36.86,29.93 -109.87,61.15 -161.26,56.35 -69.82,-6.52 -156.25,-36.27 -205.48,-85.06 -51,-50.54 -59.44,-64.89 -99.46,-117.67 -9.3,-12.27 -21.99,-43.37 -26.63,-46.76zm-397.55 -207.95c-5.62,-5.62 -2.98,-5.72 0.12,-14.72 2.71,-7.88 4,-7.41 6.69,-18.23 8.37,-33.64 4.33,-38.57 64.51,-52.23 13.31,-3.03 22.93,-8.53 18.11,39.81 -2.97,29.78 -1.45,26.21 -51.37,40.61 -9.28,2.68 -9.99,3.29 -19.78,5.04 -10.39,1.86 -13.58,4.42 -18.28,-0.28zm-403.66 -162.07l0 -9.18c41.9,0 102.13,39.58 135.03,63.74 19.63,14.42 36.55,28.21 58.64,39.23l51.58 21.81c12.02,4.74 11.59,1.25 14.69,12.83 -61.49,0 -59.63,7.94 -123.91,-10.64 -11.4,-3.29 -26.09,-10.11 -36.61,-15.38 -33.79,-16.93 -99.42,-66.22 -99.42,-102.41zm434.25 302.74c16.39,10.98 29.87,48.03 39.68,67.35l42.87 67.22c14.37,20.24 32.93,44.94 42.79,67.3 6.95,15.79 10.79,22.67 18.38,36.66 7.02,12.93 15.29,19.48 15.29,39.75 -17.61,-1.46 -54.58,-28.72 -68.18,-38.85 -83.93,-62.5 -73.89,-143.81 -82.03,-165.66 -8.07,-21.63 -8.8,-48.74 -8.8,-73.77zm-363.91 -1259.91c18.63,-27.83 40.04,-34.67 58.59,-48.44 21.05,-15.64 39.87,-30.14 58.38,-48.65 153.51,-153.5 21,-260.7 -28.29,-260.7 -17.61,0 -37.78,0.38 -49.17,15.04 -6.59,8.48 -9.16,25.92 -11.15,37.78 -2.24,13.3 -2.92,33.69 -11.25,40.74 -8.41,7.11 -29.34,6.02 -29.34,19.59 0,28.49 30.6,46.29 55.04,51.98l0 12.23c-9.57,0.8 -10.86,3.06 -21.41,3.06 -34.06,0 -104.84,-57.42 -64.32,-134.66 9.35,-17.82 40.02,-49.02 54.13,-55.96 56.81,-27.89 150.91,-3.49 178.42,56.03 19.51,42.2 15.26,37.73 15.26,88.72 0,55.22 -56.03,121.85 -58.11,146.79 17.69,-1.47 10.37,-1.9 27.97,-0.46l60.54 -5.51c10.58,0.3 12.88,2.73 27.68,2.93 45.31,0.59 71.86,16.24 107.05,24.44l0 9.18c-9.24,2.15 -14.57,5.8 -24.53,6.08l-176.83 -27.07c-29.43,1.76 -47.15,7.83 -71.26,20.53l-97.4 46.33zm140.67 1366.94c-17.33,4.63 -18.09,16.07 -34.41,20.64 -30.23,8.47 -74.48,38.46 -46.45,-31.16 10.85,-26.94 21.72,-35.21 22.75,-47.58 -9.79,-2.62 -91.49,-61.98 -27.72,-61.37 36.29,0.35 71.52,-5.94 104.91,-14.35 24.93,-6.28 82.32,-36.69 109.36,-49.66 -0.31,13.8 -15.1,42.26 -21.44,55.01l-33.45 85.82 -11.02 68.49c-3.88,23.32 -3.53,26.15 -19.72,26.15 -15.52,0 -26.51,-41.07 -42.81,-51.99zm-15.29 -470.93c29.53,-14.18 60.1,-10.36 100.95,-12.2 50.35,-2.26 27.12,-30.62 85.59,-30.62 27.17,0 49.12,11.91 75.93,8.8 8.75,-1.01 28.99,-1.86 39.18,-3.78 20.44,-3.84 8.92,-7.27 34.64,-8.17 68.83,-2.39 111.74,-30.56 137.71,-36.6 -4.06,15.19 -24.98,31.79 -37.94,41.57 -59.17,44.62 -167.63,108.27 -243.4,108.27 -58.53,0 -112.04,-9.66 -162.72,-39.12 -15.79,-9.18 -25.52,-9.16 -29.94,-28.15zm373.08 287.45l0 -64.22c0,-62.44 54.55,-163.43 92.13,-210.61 8.82,-11.07 14.32,-16.77 22.82,-29.17 4.96,-7.22 6.08,-7.7 10.74,-13.73 5.6,-7.26 4.64,-9.78 14.98,-12.54 -0.58,25.86 -40.65,89.23 -39.76,238.53 0.26,43.16 -5.78,87.08 -13.99,123.62 -11.11,49.43 -5.99,70.14 -31.88,108.79 -14.95,-7.91 -15.4,-10.39 -23.97,-24.96 -19.29,-32.81 -31.07,-73.21 -31.07,-115.71zm1131.48 241.59c0,-15.37 2.75,-13.7 3.06,-27.53 18.54,4.95 33.46,42.61 61.16,61.16 26.29,-6.12 17.2,-27.12 69.05,-37.97 17.72,-3.71 28.28,-3.1 41.09,-10.9 49.46,-30.12 -5.84,-92.73 -24.49,-107.12 -13.16,-10.17 -17.77,-14.72 -35.38,-22.71 -21.3,-9.67 -33.14,-13.95 -56.39,-13.95 -24.78,0 -71.09,24.35 -86.09,36.22 -11.61,9.2 -22.88,17.31 -33.96,27.21 -16.73,14.94 -29.74,24.32 -44.15,47.59l-37.62 54.13c-8.82,13.42 -46.79,57.3 -61.17,61.14 2.08,-7.79 8.83,-15.14 14.06,-22.64l43.94 -66.14c7.64,-13.16 45.97,-87.3 45.97,-100.82 0,-85.7 -5.29,-53.43 -27.53,-131.48 -3.45,-12.11 -9.9,-36.41 -8.07,-50.88 2.4,-18.96 10.45,-33.17 29.49,-34.76 28.21,53.32 27.52,149.95 27.52,217.12 23.05,-0.51 81.62,-58.1 128.44,-58.1 52.09,0 73.34,3.25 118.02,37.94 23.69,18.39 42.37,49.77 49.51,79.01 8.47,34.77 -8.64,74.16 -24.59,96.33 -37.26,51.77 -60.52,49.71 -115.42,49.71 -27.1,0 -76.45,-39.57 -76.45,-82.56z"/>
    <path class="fil0" d="M4712.51 20096.77c0,-52.99 35.91,-129.97 71.56,-157.79 17.49,-13.65 32.51,-30.78 51.31,-43.49 95.38,-64.49 33.09,-33.35 33.09,-132.05 0,-24.68 43.39,17.45 80.74,32.4 47.23,18.9 103.18,27.32 152.1,43.62 17.33,5.78 31.36,11.19 49.68,17.6l47.38 16.84c8.15,3.34 13.95,6.74 22.78,10.85 83.32,38.83 150.72,77.42 216.88,143.97 12.12,12.19 21.5,22.7 32.79,34.5 12.29,12.84 61.44,62.96 70.42,64.13 16.92,-3.95 24.87,-17.23 35.93,-28.29 43.54,-43.54 82.57,-91.31 133.49,-126.44 14.34,-9.9 24.59,-18.18 39.82,-27.46 14.71,-8.98 24.97,-15.72 39.74,-24.48 14.37,-8.52 29.61,-15.49 44.13,-23.14 103.25,-54.37 287.01,-80.21 356.04,-133.25 8.02,-6.17 10.33,-9.73 23.62,-10.03l3.06 30.59c0,40.75 -38.03,57.12 -12.83,80.1 47.94,43.71 96.58,34.62 146.4,141.05 37.27,79.65 22.49,146.64 -26.94,212.69 -23.47,31.35 -62.81,63.62 -115.72,64.71 -82.24,1.69 -141.2,-0.43 -180.6,-79.52 -35.09,-70.44 -0.27,-220.26 97.95,-220.26 36.37,0 82.42,-3.3 104.07,27.42 14.09,19.98 32.93,59.75 18.18,85.66 -7.16,12.59 -25.63,38.2 -41.3,41.53 -25.06,5.32 1.61,-39.41 1.61,-44.52 0,-12.54 -21.94,-52.59 -29.92,-58.76 -41.91,-32.45 -147.44,-5.42 -147.44,92.4 0,113.05 109.13,160.39 171.28,143.77 65.19,-17.44 126.07,-73.05 145.32,-139.09 5.25,-17.98 4.49,-40.4 4.49,-59.73 0,-17.68 -9.62,-30.35 -14.86,-43.24 -17.61,-43.33 -36.25,-72.99 -74.22,-103.15 -55.75,-44.3 -120.83,-61.56 -195.32,-61.56 -30.55,0 -65.69,1.69 -85.62,12.24 8.76,13.09 22.13,14.47 32.36,25.74 35.72,39.36 3.57,113.79 -47.65,114.93 0.83,-37.42 24.2,-28.56 -0.98,-78.53 -10.3,-20.43 -22.66,-52.97 -51.01,-52.97 -33.39,0 -115.16,48.47 -145.55,68.52l-74.69 53.74c-32.36,24.56 -61.28,52.53 -89.45,81.81l-40.06 45.56c-10.58,15.59 5.23,63.28 -23.91,63.88 -27.22,0.55 13.61,-33.22 -59.76,-109.44 -29.16,-30.3 -57.48,-57.44 -88.77,-85.54 -15.99,-14.37 -33.49,-21.12 -51.43,-34.19 -17.29,-12.6 -32.48,-23.41 -52.22,-33.41 -34.39,-17.45 -87.19,-50.93 -126.44,-50.93 -26.7,0 -55.05,70 -55.05,94.8 0,21.79 8.41,20.29 12.23,36.7 -37.16,-0.83 -58.85,-31.16 -67.94,-63.75 -9.64,-34.58 44.05,-59.22 49.6,-79.98 -28.95,-13.89 -88.68,-9.18 -125.38,-9.18 -62.36,0 -120.86,31.73 -164.24,68.18 -20.59,17.31 -38.69,41.14 -50.91,65.29 -34.63,68.41 -43.83,130.53 7.89,193.05 21.54,26.05 38.55,47.85 70.57,63.99 46.53,23.46 79.19,21.91 127.2,6.73 111.18,-35.17 115.25,-223.5 12.12,-237.83 -26,-3.61 -52.51,-2.31 -70.52,11.23 -12.99,9.77 -29.97,39.9 -29.97,61.78 0,9.68 3.08,11.59 5.47,19 2.86,8.92 3.71,12.81 3.71,23.81 -17.49,-1.46 -22.9,-12.25 -32.89,-22.16 -18.35,-18.22 -22.16,-25.08 -22.16,-51.23 0,-25.25 18.53,-49.32 32.81,-61.99 25.92,-22.98 109.84,-29.76 141.96,-8.81 29.83,19.45 47.84,56.5 57.11,89.68 6.22,22.26 4.65,42.21 3.65,63.67 -4.59,99.38 -70.73,137.63 -165.2,137.63 -89.28,0 -135.23,-47.72 -169.23,-115.17 -9.75,-19.34 -20.36,-46.88 -20.36,-74.43zm828.73 -529.04c25.26,0 19.2,49.56 33.39,67.51 11.28,14.28 62.79,15.05 82.81,15.05 -1.2,14.44 1.58,4.45 -6.65,14.76 -27.38,34.3 -35.55,59.67 -54.92,91.86 -0.9,1.5 -3.53,5.94 -4.84,7.39 -4.7,5.18 0.35,2.6 -6.98,5.26 0,-40.6 7.84,-73.43 -12.15,-79.59 -11.93,-3.68 -70.42,-11.39 -70.42,21.48 0,10.63 2.77,55.4 0,61.16 -21.06,-14.1 -31.57,-65.96 -55.79,-90.98 -4.76,-4.92 -7.09,-8.34 -11.34,-13.45 -6.17,-7.39 -11.61,-8.31 -5.7,-14.09 12.45,-12.21 62.42,0.03 80.93,-17.1 14.52,-13.44 9.07,-69.26 31.66,-69.26zm272.16 495.4c40.56,0 73.84,34.9 89.78,66.18 51.7,101.47 -39.61,16.39 -126.47,16.39 -88.92,0 -185.18,73.91 -122.85,-3.59 11.34,-14.1 62.57,-50.94 87.28,-59.5 18.47,-6.41 42.56,-19.48 72.26,-19.48zm-547.39 0c67.49,0 182.36,65.73 183.48,116.2 -45.08,-3.75 -111.46,-67.7 -241.49,-9.08 -38.88,17.53 -49.04,13.6 -33.77,-24.59 10.49,-26.26 25.13,-50.77 49.46,-66.75 8.12,-5.34 30.29,-15.78 42.32,-15.78zm-24.46 -324.15c0,-19.26 5.66,-33.87 9.17,-48.93 31.89,-2.66 38.13,-8.6 79.55,12.19 48.95,24.58 42.91,30.4 65.5,47.65l34.18 39.21c68.14,103.53 56.66,127.68 78.98,223.77 3.11,13.4 7.5,16.56 7.84,31.91 -12.47,-8.36 -22.72,-24.79 -31.79,-38.54 -87.34,-132.4 -243.43,-188.9 -243.43,-267.26zm571.85 -51.99l9.18 0c22.23,0 33.55,69.41 -6.83,112.43l-141.11 121.89c-4.4,4.76 -5.78,6.58 -10.29,11.12 -34.47,34.7 -48.3,49.85 -75.39,89.73 -7.44,10.95 -8.19,18.31 -23.26,19.56 2.25,-9.66 6.51,-16.56 9.62,-27.07l19.14 -94.01c11.33,-45.13 23.78,-70.34 43.67,-106.18 12.35,-22.25 16.65,-26.29 30.63,-42.76 34.06,-40.14 83.81,-84.71 144.64,-84.71z"/>
    <path class="fil0" d="M4165.11 20203.8c-106.37,0 -115.67,65.59 -198.16,14.67 -36.51,-22.54 -138.76,-17.73 -184.09,-17.73 -89.7,0 -179.41,0 -269.11,0 -89.1,0 -174.16,3.06 -266.05,3.06l-1137.59 0c-13.43,0 -11.27,-9.4 -9.18,-18.35l1709.45 0c40.97,0 89.65,-0.79 125.56,-5.94 41.06,-5.88 74.9,-12.02 115.96,-9.43 33.96,2.15 70.14,15.37 119.33,15.37 63.84,0 111.72,-22.54 152.75,-46.02 20.06,-11.48 42,-25.54 59.09,-41.82l23.21 -26.08c15.41,-10.65 24.88,-0.45 24.88,22.18 0,22.28 -12.23,28.22 -12.23,55.04 0,10.24 10.01,10.29 20.19,13.46 26.36,8.21 24.59,6.25 49.1,18.18 9.57,4.66 16.95,6.65 25.51,11.17 -6.63,12.54 -7.74,11.71 -20.12,19.64 -33.26,21.29 -74.68,30.91 -74.68,44.58 0,23.2 9.18,10.8 9.18,64.22 -22.53,0 -39.61,-17.74 -63.8,-37.11 -8.63,-6.92 -16.69,-13.24 -26.97,-18.9 -50.19,-27.62 -112.08,-60.19 -172.23,-60.19z"/>
   </g>
   <g>
    <path class="fil0" d="M10230.32 20047.84c10.53,7.72 9.47,34.62 62.49,75.12 25.94,19.82 40.3,19.68 75.12,19.68 21.96,0 -16.92,-31.82 -33.28,-76.81 -25.05,-68.89 -31.54,-143.81 -39.85,-217.03 -2.38,-20.95 -6.39,-37.17 -8.96,-55.26 -7.67,-53.94 -17.15,-110.65 -33.74,-161.97 -10.49,-32.47 -18.78,-67.18 -32.96,-98.54 -7.35,-16.25 -11.99,-29.82 -19.44,-44.78 -13.75,-27.66 -26,-59.67 -42.18,-86.25 -8.09,-13.28 -18.95,-28.53 -18.95,-48.34 17.71,0.4 28.29,11.13 42.82,18.35 122.63,60.99 192.06,88.91 329.07,120.47 70.29,16.18 148.14,19.41 223.52,30.29 52.26,7.54 103.08,23 150.37,42.29 14.09,5.74 28.66,16.49 46.26,17.96 0,-30.9 -10.84,-60.14 -31.26,-81.9 -37.52,-39.99 -24.48,-27.08 -49.15,-36.46 -17.73,-6.74 -23.18,-23.71 4.35,-34.16 23.79,-9.02 44.58,-24.35 65.69,-38.28 56.1,-37.03 97.29,-91.43 129.05,-149.23 27.02,-49.2 28.78,-131.37 21.23,-191.31 -4.84,-38.46 -28.72,-76.37 -55.05,-103.97 -35.04,-36.74 -39.31,-45.32 -87.73,-74.34 -69,-41.34 -114.49,-33.46 -192.85,-33.46 -43.35,0 -111.87,40.02 -135.49,72.46l-39.87 64.1c-40.61,81.02 -18.46,173.17 34.62,242.71 39.12,51.25 144.2,72 209.11,40.77 50.62,-24.36 93.71,-65.91 93.71,-126.47 0,-23.33 -3.06,-34.1 -3.06,-58.1 -14.83,3.96 -21.28,25.37 -28.57,38.71 -12.09,22.12 -17.3,19.67 -17.3,53.03 -12.28,-3.28 -8.85,-0.83 -9.17,-15.29 -20.29,10.74 -37.08,32.35 -54.59,46.33 -29.14,23.26 -39.68,36.24 -83.02,36.24 -39.52,0 -82.05,-23.01 -101.57,-54.4 -17.16,-27.62 -42.16,-75.18 -42.16,-116.85 0,-45.47 42.8,-116.48 65.11,-142.84 24.45,-28.9 59.96,-49.11 97.48,-58.48 52.04,-12.99 114.76,-2.16 160.45,12.83 36.27,11.91 62.27,24.66 87.49,47.07 104.02,92.46 111.58,234.41 41.94,349.25 -39.76,65.58 -94.17,102.72 -158.29,141.4 -66.02,39.83 -249.86,81.44 -312.53,51.37 1.23,-14.71 6.33,-13.72 15.72,-20.97 7.16,-5.54 12.06,-11.33 18.73,-17.97 24.31,-24.21 23.65,-40.52 23.65,-74.2 0,-15.24 -11.87,-39.22 -19.16,-48.13 -11.15,-13.62 -23.41,-23.17 -38.94,-31.39 0,64.16 11.12,108.76 -38.98,153.68 -42.38,38 -94.29,11.44 -140.8,-1.42l-88.02 -31.24c-42.97,-17.24 -78.4,-36.06 -118.47,-55.84 -18.89,-9.33 -29.62,-5.76 -29.62,-31.54 18.45,-4.3 8.67,-0.57 25.88,4.62 22.31,6.73 75.74,19.85 96.44,19.85 22.89,0 34.66,-1.59 56.26,-7.95 12.41,-3.66 20.01,-3.86 33.77,-5.99 25.2,-3.91 42.38,-4.44 53.7,-25.82 -8.84,-10.16 -10.23,-12.46 -27.12,-15.69 -44.68,-8.56 -92.89,-14.89 -141.08,-14.89 -89.59,0 -88.29,19.13 -172.39,-11.09 -9.73,-3.49 -38.49,-19.12 -29.76,1.46 9.37,22.07 24.79,38.73 24.79,67.73l0 67.28c0,41.95 -6.12,71.78 -6.12,113.15 0,13.36 9.94,6.48 15.87,20.83 10.87,26.31 4.84,67.89 17.77,92.32 20.38,-13.65 25.19,-60.89 29.41,-86.79 6.74,-41.35 4.73,-99.36 -7.63,-139.88 -18.91,-61.95 10.1,-49.92 30.22,-5.76 3.73,8.2 6.6,10.81 11.21,19.37 23.31,43.21 41.7,93.45 58.72,140.05 20.89,57.18 62.73,155.73 -6.94,197.17 -84.27,50.13 -68.58,16.51 -139.46,16.51 1.51,18.07 21.48,34.6 33.55,42.9 27.28,18.78 97.09,20.57 121.63,2.18 11.67,-8.75 24.01,-29.79 43.6,-29.79 22.61,0 10.26,57.76 9.17,67.28 -1.58,13.83 -1.96,23.56 -3.5,39.3 -1.09,11.07 -4.1,24.11 -5.84,36.98 -7.59,56.42 -28.04,113.49 -55.43,158.63 -21.31,35.12 -46.42,67.4 -73.72,97.53 -35.07,38.7 -81.92,65.13 -129.62,84.44 -18.94,7.67 -93.45,15.62 -113.87,14.27 -49.53,-3.28 -86.94,-19.31 -123.06,-48.44l-44.53 -41.09c-42.94,-51.87 -74.27,-112.31 -74.27,-188.72 0,-11.62 1.04,-9.27 3.38,-18.03 1.75,-6.55 1.8,-8.9 3.59,-17.81 1.79,-8.94 6.46,-25.03 10.14,-35.74 14.5,-42.22 47.11,-76.22 83.14,-100.34 18.66,-12.49 39.15,-21.46 64.2,-27.54 51.78,-12.57 108.89,-7.36 149.29,17.21 10.18,6.19 18.06,11.57 26.71,19.16 0.78,0.68 4.77,4.29 4.83,4.35 0.45,0.44 1.09,1.08 1.54,1.52 48.58,49.11 61.53,102.72 11.71,157.96l-58.84 51.24c12.03,16.43 12.23,2.55 12.23,27.53 0,18.52 -47.02,15.36 -63.64,18.92 -9.9,2.12 -11.79,2.42 -12.81,14.72 61.02,14.21 112.19,4.5 153.65,-42.07 64.92,-72.93 54.15,-198.43 -28.82,-254.02 -40.82,-27.35 -96.96,-52.53 -149.29,-52.53 -24.47,0 -69.12,12.92 -89.74,23.41 -30.17,15.34 -45.81,24.98 -68.52,47.69 -20.59,20.59 -33.87,37.76 -47.67,65.47 -22.29,44.8 -26.49,72.1 -26.49,123.36 0,31.79 19.77,91.24 30.52,113.22 11.02,22.55 25.58,45.73 43.63,63.4 18.35,17.95 33.61,36.82 53.81,53.22 36.86,29.93 109.87,61.15 161.26,56.35 69.82,-6.52 156.25,-36.27 205.48,-85.06 51,-50.54 59.44,-64.89 99.46,-117.67 9.3,-12.27 21.99,-43.37 26.63,-46.76zm397.54 -207.95c5.62,-5.62 2.99,-5.72 -0.11,-14.72 -2.71,-7.88 -4,-7.41 -6.69,-18.23 -8.37,-33.64 -4.34,-38.57 -64.51,-52.23 -13.31,-3.03 -22.93,-8.53 -18.11,39.81 2.97,29.78 1.45,26.21 51.37,40.61 9.28,2.68 9.99,3.29 19.78,5.04 10.39,1.86 13.58,4.42 18.27,-0.28zm403.67 -162.07l0 -9.18c-41.9,0 -102.13,39.58 -135.03,63.74 -19.63,14.42 -36.55,28.21 -58.64,39.23l-51.58 21.81c-12.02,4.74 -11.59,1.25 -14.69,12.83 61.49,0 59.63,7.94 123.91,-10.64 11.4,-3.29 26.09,-10.11 36.61,-15.38 33.79,-16.93 99.42,-66.22 99.42,-102.41zm-434.25 302.74c-16.39,10.98 -29.88,48.03 -39.68,67.35l-42.87 67.22c-14.37,20.24 -32.93,44.94 -42.79,67.3 -6.95,15.79 -10.79,22.67 -18.38,36.66 -7.02,12.93 -15.29,19.48 -15.29,39.75 17.61,-1.46 54.58,-28.72 68.18,-38.85 83.93,-62.5 73.89,-143.81 82.03,-165.66 8.07,-21.63 8.8,-48.74 8.8,-73.77zm363.91 -1259.91c-18.63,-27.83 -40.04,-34.67 -58.59,-48.44 -21.05,-15.64 -39.87,-30.14 -58.38,-48.65 -153.51,-153.5 -21,-260.7 28.29,-260.7 17.61,0 37.78,0.38 49.17,15.04 6.59,8.48 9.16,25.92 11.15,37.78 2.24,13.3 2.92,33.69 11.25,40.74 8.4,7.11 29.34,6.02 29.34,19.59 0,28.49 -30.6,46.29 -55.04,51.98l0 12.23c9.57,0.8 10.86,3.06 21.41,3.06 34.06,0 104.84,-57.42 64.32,-134.66 -9.35,-17.82 -40.02,-49.02 -54.13,-55.96 -56.81,-27.89 -150.91,-3.49 -178.42,56.03 -19.51,42.2 -15.26,37.73 -15.26,88.72 0,55.22 56.03,121.85 58.11,146.79 -17.69,-1.47 -10.37,-1.9 -27.97,-0.46l-60.54 -5.51c-10.59,0.3 -12.88,2.73 -27.68,2.93 -45.31,0.59 -71.86,16.24 -107.05,24.44l0 9.18c9.24,2.15 14.56,5.8 24.53,6.08l176.83 -27.07c29.43,1.76 47.15,7.83 71.26,20.53l97.4 46.33zm-140.67 1366.94c17.33,4.63 18.09,16.07 34.41,20.64 30.23,8.47 74.47,38.46 46.45,-31.16 -10.85,-26.94 -21.73,-35.21 -22.75,-47.58 9.79,-2.62 91.48,-61.98 27.72,-61.37 -36.29,0.35 -71.52,-5.94 -104.91,-14.35 -24.93,-6.28 -82.32,-36.69 -109.36,-49.66 0.31,13.8 15.1,42.26 21.44,55.01l33.45 85.82 11.02 68.49c3.87,23.32 3.53,26.15 19.72,26.15 15.52,0 26.51,-41.07 42.81,-51.99zm15.29 -470.93c-29.53,-14.18 -60.1,-10.36 -100.96,-12.2 -50.34,-2.26 -27.11,-30.62 -85.58,-30.62 -27.17,0 -49.12,11.91 -75.93,8.8 -8.76,-1.01 -28.99,-1.86 -39.18,-3.78 -20.44,-3.84 -8.92,-7.27 -34.64,-8.17 -68.83,-2.39 -111.74,-30.56 -137.71,-36.6 4.06,15.19 24.98,31.79 37.94,41.57 59.17,44.62 167.63,108.27 243.4,108.27 58.53,0 112.04,-9.66 162.71,-39.12 15.8,-9.18 25.53,-9.16 29.95,-28.15zm-373.08 287.45l0 -64.22c0,-62.44 -54.55,-163.43 -92.14,-210.61 -8.81,-11.07 -14.31,-16.77 -22.81,-29.17 -4.96,-7.22 -6.08,-7.7 -10.74,-13.73 -5.6,-7.26 -4.64,-9.78 -14.98,-12.54 0.58,25.86 40.65,89.23 39.76,238.53 -0.26,43.16 5.78,87.08 13.99,123.62 11.11,49.43 5.99,70.14 31.87,108.79 14.96,-7.91 15.41,-10.39 23.98,-24.96 19.29,-32.81 31.07,-73.21 31.07,-115.71zm-1131.48 241.59c0,-15.37 -2.75,-13.7 -3.06,-27.53 -18.54,4.95 -33.46,42.61 -61.16,61.16 -26.29,-6.12 -17.2,-27.12 -69.06,-37.97 -17.72,-3.71 -28.27,-3.1 -41.08,-10.9 -49.46,-30.12 5.84,-92.73 24.48,-107.12 13.17,-10.17 17.77,-14.72 35.39,-22.71 21.3,-9.67 33.14,-13.95 56.39,-13.95 24.78,0 71.09,24.35 86.09,36.22 11.61,9.2 22.88,17.31 33.96,27.21 16.73,14.94 29.74,24.32 44.14,47.59l37.63 54.13c8.82,13.42 46.79,57.3 61.17,61.14 -2.08,-7.79 -8.83,-15.14 -14.06,-22.64l-43.94 -66.14c-7.65,-13.16 -45.98,-87.3 -45.98,-100.82 0,-85.7 5.3,-53.43 27.54,-131.48 3.45,-12.11 9.9,-36.41 8.07,-50.88 -2.4,-18.96 -10.45,-33.17 -29.49,-34.76 -28.21,53.32 -27.52,149.95 -27.52,217.12 -23.05,-0.51 -81.62,-58.1 -128.44,-58.1 -52.09,0 -73.34,3.25 -118.02,37.94 -23.69,18.39 -42.37,49.77 -49.51,79.01 -8.47,34.77 8.64,74.16 24.59,96.33 37.26,51.77 60.52,49.71 115.42,49.71 27.1,0 76.45,-39.57 76.45,-82.56z"/>
    <path class="fil0" d="M6909.28 20203.8c106.37,0 115.67,65.59 198.15,14.67 36.52,-22.54 138.77,-17.73 184.1,-17.73 89.7,0 179.41,0 269.11,0 89.1,0 174.15,3.06 266.05,3.06l1137.59 0c13.43,0 11.26,-9.4 9.18,-18.35l-1709.45 0c-40.97,0 -89.66,-0.79 -125.56,-5.94 -41.06,-5.88 -74.9,-12.02 -115.96,-9.43 -33.96,2.15 -70.14,15.37 -119.33,15.37 -63.85,0 -111.72,-22.54 -152.75,-46.02 -20.06,-11.48 -42,-25.54 -59.1,-41.82l-23.2 -26.08c-15.41,-10.65 -24.88,-0.45 -24.88,22.18 0,22.28 12.23,28.22 12.23,55.04 0,10.24 -10.01,10.29 -20.19,13.46 -26.36,8.21 -24.59,6.25 -49.1,18.18 -9.57,4.66 -16.96,6.65 -25.51,11.17 6.63,12.54 7.74,11.71 20.12,19.64 33.25,21.29 74.68,30.91 74.68,44.58 0,23.2 -9.18,10.8 -9.18,64.22 22.52,0 39.61,-17.74 63.8,-37.11 8.63,-6.92 16.69,-13.24 26.97,-18.9 50.19,-27.62 112.07,-60.19 172.23,-60.19z"/>
   </g>
  </g>
 </g>
</svg>
