<?xml version="1.0" encoding="UTF-8"?><!DOCTYPE svg PUBLIC "-//W3C//DTD SVG 1.0//EN" "http://www.w3.org/TR/2001/REC-SVG-20010904/DTD/svg10.dtd" []><svg xmlns="http://www.w3.org/2000/svg" xmlns:xlink="http://www.w3.org/1999/xlink" height="439.2" preserveAspectRatio="xMidYMid meet" version="1.0" viewBox="64.1 30.4 372.0 439.2" width="372.0" zoomAndPan="magnify"><g fill="#2D3830" id="change1_1"><path d="M433.4,323.1l-82.4-82.4v-14h13.6c2.7,0,5.2-1.6,6.2-4.1c0.4-0.9,0.6-1.8,0.6-2.7c0-1.7-0.6-3.4-1.9-4.7 L258.3,97.3V63.1h9.9c3.8,0,6.8-3,6.8-6.8c0-3.7-3-6.8-6.8-6.8h-9.9V37.2c0-3.7-3-6.8-6.8-6.8c-3.8,0-6.8,3-6.8,6.8v12.3h-11 c-3.7,0-6.8,3-6.8,6.8c0,3.7,3,6.8,6.8,6.8h11v34.1L133.4,215.2c-1.2,1.3-1.9,3-1.9,4.7c0,0.9,0.2,1.8,0.6,2.7 c1.1,2.5,3.5,4.1,6.2,4.1h10.7v14l-82.4,82.4c-1.9,1.9-2.5,4.9-1.5,7.4s3.5,4.2,6.3,4.2h14.5v128.1c0,3.7,3,6.8,6.8,6.8h63.2h68.8 h53.6h65.9h63.2c3.7,0,6.8-3,6.8-6.8V334.7h14.5c2.7,0,5.2-1.7,6.3-4.2S435.3,325,433.4,323.1z M412.2,321.1h-4.9h-56.4v-61.3 L412.2,321.1z M251.5,109.9l97.3,103.2h-4.7H155.9h-1.8L251.5,109.9z M149.1,259.8v61.3H92.7h-4.9L149.1,259.8z M99.5,334.7h49.6 V456H99.5V334.7z M162.7,327.9V226.6h174.7v101.2V456H285V341.8c0-18.5-15.1-33.6-33.6-33.6c-18.5,0-33.6,15.1-33.6,33.6V456h-55.2 V327.9z M231.5,456V341.8c0-11,9-20,20-20s20,9,20,20V456H231.5z M400.5,456h-49.6V334.7h49.6V456z"/><path d="M251.5,194.9c13.7,0,24.9-11.2,24.9-24.9c0-13.7-11.2-24.9-24.9-24.9c-13.7,0-24.9,11.2-24.9,24.9 C226.6,183.7,237.7,194.9,251.5,194.9z M251.5,158.7c6.2,0,11.3,5.1,11.3,11.3s-5.1,11.3-11.3,11.3c-6.2,0-11.3-5.1-11.3-11.3 S245.2,158.7,251.5,158.7z"/></g></svg>