<?xml version="1.0" encoding="UTF-8"?>
<!DOCTYPE svg PUBLIC "-//W3C//DTD SVG 1.1//EN" "http://www.w3.org/Graphics/SVG/1.1/DTD/svg11.dtd">
<!-- Creator: CorelDRAW -->
<svg xmlns="http://www.w3.org/2000/svg" xml:space="preserve" width="24.953mm" height="31.628mm" version="1.1" style="shape-rendering:geometricPrecision; text-rendering:geometricPrecision; image-rendering:optimizeQuality; fill-rule:evenodd; clip-rule:evenodd"
viewBox="0 0 2495.3 3162.8"
 xmlns:xlink="http://www.w3.org/1999/xlink"
 xmlns:xodm="http://www.corel.com/coreldraw/odm/2003"
 zoomAndPan="magnify">
 <defs>
  <style type="text/css">
   <![CDATA[
    .fil0 {fill:#FEFEFE;fill-rule:nonzero}
   ]]>
  </style>
 </defs>
 <g id="Capa_x0020_1">
  <metadata id="CorelCorpID_0Corel-Layer"/>
  <g id="change1_1">
   <polygon class="fil0" points="194.87,1763.3 291.31,1763.3 291.31,1885.75 194.87,1885.75 "/>
   <polygon class="fil0" points="194.87,1938.67 291.31,1938.67 291.31,1972.96 194.87,1972.96 "/>
   <path class="fil0" d="M344.23 3109.47l31.59 0 0 -223.49c0,-94.51 76.89,-171.42 171.4,-171.42 94.51,0 171.42,76.89 171.42,171.42l0 223.49 31.59 0 0 -426.34 -406 0 0 426.34z"/>
   <polygon class="fil0" points="194.87,2175.71 291.31,2175.71 291.31,2211.11 194.87,2211.11 "/>
   <polygon class="fil0" points="194.87,2025.9 291.31,2025.9 291.31,2122.82 194.87,2122.82 "/>
   <polygon class="fil0" points="194.87,1680.09 291.31,1680.09 291.31,1710.38 194.87,1710.38 "/>
   <path class="fil0" d="M547.22 2767.47c-65.33,0 -118.48,53.15 -118.48,118.51l0 223.49 32.33 0 0 -225.5c0,-47.49 38.63,-86.15 86.15,-86.15 47.52,0 86.15,38.63 86.15,86.15l0 225.5 32.33 0 0 -223.49c0,-65.35 -53.16,-118.51 -118.48,-118.51z"/>
   <path class="fil0" d="M547.22 2850.74c-18.31,0 -33.23,14.9 -33.23,33.23l0 225.5 66.46 0 0 -225.5c0,-18.34 -14.9,-33.23 -33.23,-33.23z"/>
   <path class="fil0" d="M194.87 2368.32l24.82 -47.12c9.15,-17.38 37.68,-17.38 46.83,0l24.82 47.12 0 -104.3 -96.47 0.01 0 104.29z"/>
   <polygon class="fil0" points="72.08,1985.68 141.96,1985.68 141.96,1868.13 73.38,1868.13 "/>
   <polygon class="fil0" points="73.96,1815.21 141.96,1815.21 141.96,1788.36 74.25,1788.36 "/>
   <polygon class="fil0" points="71.18,2065.48 141.96,2065.48 141.96,2038.6 71.5,2038.6 "/>
   <polygon class="fil0" points="212.23,2448.92 273.93,2448.92 243.08,2390.34 "/>
   <polygon class="fil0" points="74.83,1735.44 141.96,1735.44 141.96,1707.1 75.15,1707.1 "/>
   <polygon class="fil0" points="194.87,2501.83 291.31,2501.83 291.31,3163.29 194.87,3163.29 "/>
   <path class="fil0" d="M111.21 1212.15l0 442.04 30.75 0 0 -0.56c0,-14.61 11.85,-26.46 26.46,-26.46l3.46 0 0 -513.63c-34.16,19.5 -60.67,71.28 -60.67,98.61z"/>
   <path class="fil0" d="M314.31 1627.17l3.46 0c14.61,0 26.46,11.85 26.46,26.46l0 0.56 36.59 0 0 -61.33c0,-14.61 11.85,-26.46 26.46,-26.46l95.49 0c14.61,0 26.46,11.85 26.46,26.46l0 61.33 35.98 0 0 -61.33c0,-14.61 11.85,-26.46 26.46,-26.46l95.49 0c14.61,0 26.46,11.85 26.46,26.46l0 61.33 36.59 0 0 -0.56c0,-14.61 11.85,-26.46 26.46,-26.46l3.46 0 0 -535.83 -465.82 0 0 535.83zm214.92 -122.13c0,14.61 -11.85,26.46 -26.46,26.46l-95.49 0c-14.61,0 -26.46,-11.85 -26.46,-26.46l0 -84.22c0,-14.61 11.85,-26.46 26.46,-26.46l95.49 0.01c14.61,0 26.46,11.85 26.46,26.46l0 84.21zm0 -168.43c0,14.61 -11.85,26.46 -26.46,26.46l-95.49 0c-14.61,0 -26.46,-11.85 -26.46,-26.46l0 -42.99c0,-40.9 33.28,-74.22 74.22,-74.22 40.94,0 74.22,33.28 74.22,74.22l-0.01 42.99 -0.02 0zm184.38 168.43c0,14.61 -11.85,26.46 -26.46,26.46l-95.48 0c-14.61,0 -26.46,-11.85 -26.46,-26.46l0 -84.22c0,-14.61 11.85,-26.46 26.46,-26.46l95.49 0.01c14.61,0 26.46,11.85 26.46,26.46l-0.01 84.21zm0 -168.43c0,14.61 -11.85,26.46 -26.46,26.46l-95.48 0c-14.61,0 -26.46,-11.85 -26.46,-26.46l0 -42.99c0,-40.9 33.28,-74.22 74.22,-74.22 40.94,0 74.22,33.28 74.22,74.22l-0.01 42.99 -0.03 0zm-362.13 -155.58c1.24,-2.73 31.43,-66.75 103.56,-66.75 40.88,0 72.71,21.14 92.18,38.87 19.47,-17.7 51.3,-38.87 92.21,-38.87 72.1,0 102.29,64.03 103.53,66.75 6.09,13.28 0.26,28.97 -13.04,35.08 -3.57,1.64 -7.3,2.41 -11.01,2.41 -9.95,0 -19.5,-5.64 -23.97,-15.24 -0.82,-1.72 -17.91,-36.09 -55.51,-36.09 -41.17,0 -70.38,39.82 -70.67,40.24 -4.97,6.88 -12.99,11.03 -21.51,11.03 -0.05,0 -0.08,0 -0.13,0 -8.55,-0.05 -16.59,-4.15 -21.51,-11.14 -0.21,-0.29 -29.42,-40.14 -70.56,-40.14 -37.76,0 -54.82,34.63 -55.54,36.12 -6.27,13.1 -21.96,18.81 -35.14,12.59 -13.18,-6.15 -18.95,-21.65 -12.89,-34.86z"/>
   <polygon class="fil0" points="433.74,1447.28 476.31,1447.28 476.31,1478.58 433.74,1478.58 "/>
   <path class="fil0" d="M455.01 1272.34c-11.75,0 -21.3,9.55 -21.3,21.3l0 16.54 42.57 0 0 -16.54c0.03,-11.75 -9.52,-21.3 -21.27,-21.3z"/>
   <polygon class="fil0" points="433.74,1619.31 476.31,1619.31 476.31,1654.19 433.74,1654.19 "/>
   <polygon class="fil0" points="618.13,1447.28 660.7,1447.28 660.7,1478.58 618.13,1478.58 "/>
   <polygon class="fil0" points="618.13,1619.31 660.7,1619.31 660.7,1654.19 618.13,1654.19 "/>
   <polygon class="fil0" points="746.98,1005.67 780.13,1005.67 780.13,1038.4 746.98,1038.4 "/>
   <path class="fil0" d="M639.43 1272.34c-11.75,0 -21.3,9.55 -21.3,21.3l0 16.54 42.57 0 0 -16.54c0,-11.75 -9.55,-21.3 -21.27,-21.3z"/>
   <polygon class="fil0" points="66.95,2448.92 141.96,2448.92 141.96,2118.4 70.6,2118.4 "/>
   <path class="fil0" d="M455.01 2451.22c-11.75,0 -21.3,9.55 -21.3,21.3l0 75.41 42.57 -0.01 0 -75.41c0.03,-11.74 -9.52,-21.29 -21.27,-21.29z"/>
   <path class="fil0" d="M344.23 2475.37l0 72.55 36.59 0 0 -75.41c0,-40.9 33.28,-74.22 74.22,-74.22 40.94,0 74.22,33.28 74.22,74.22l0 75.41 35.98 0 0 -75.41c0,-40.9 33.28,-74.22 74.22,-74.22 40.94,0 74.22,33.28 74.22,74.22l0 75.41 36.58 0 0 -72.55 0 -115.36 -406.03 0.01 0 115.35z"/>
   <path class="fil0" d="M639.43 2451.22c-11.75,0 -21.3,9.55 -21.3,21.3l0 75.41 42.57 -0.01 0 -75.41c0,-11.74 -9.55,-21.29 -21.27,-21.29z"/>
   <polygon class="fil0" points="344.23,1707.1 750.21,1707.1 750.21,1740.47 344.23,1740.47 "/>
   <polygon class="fil0" points="344.23,2600.84 750.21,2600.84 750.21,2630.21 344.23,2630.21 "/>
   <polygon class="fil0" points="344.23,2264.05 750.21,2264.05 750.21,2307.1 344.23,2307.1 "/>
   <path class="fil0" d="M344.23 2211.13l36.59 0 0 -147c0,-40.9 33.28,-74.22 74.22,-74.22 40.94,0 74.22,33.28 74.22,74.22l0 147 35.98 0 0 -147c0,-40.9 33.28,-74.22 74.22,-74.22 40.94,0 74.22,33.28 74.22,74.22l0 147 36.58 0 0 -417.75 -406.03 0 0 417.75zm202.99 -362.53c30.14,0 54.56,24.42 54.56,54.56 0,30.14 -24.42,54.56 -54.56,54.56 -30.14,0 -54.56,-24.42 -54.56,-54.56 0,-30.14 24.42,-54.56 54.56,-54.56z"/>
   <path class="fil0" d="M639.43 2042.83c-11.75,0 -21.3,9.55 -21.3,21.3l0 147 42.57 0 0 -147c0,-11.75 -9.55,-21.3 -21.27,-21.3z"/>
   <path class="fil0" d="M455.01 2042.83c-11.75,0 -21.3,9.55 -21.3,21.3l0 147 42.57 0 0 -147c0.03,-11.75 -9.52,-21.3 -21.27,-21.3z"/>
   <polygon class="fil0" points="2061.32,1005.67 2095.3,1005.67 2095.3,1038.4 2061.32,1038.4 "/>
   <polygon class="fil0" points="2121.75,952.72 2121.94,952.75 2226.05,952.75 2226.05,910.97 1670.72,910.97 1670.72,952.75 1774.91,952.75 1775.1,952.72 1775.28,952.75 2121.57,952.75 "/>
   <polygon class="fil0" points="803.12,2501.83 899.56,2501.83 899.56,3163.29 803.12,3163.29 "/>
   <polygon class="fil0" points="2234.23,1584.95 2270.82,1584.95 2270.82,1627.17 2234.23,1627.17 "/>
   <polygon class="fil0" points="1974.86,1005.67 2008.43,1005.67 2008.43,1038.4 1974.86,1038.4 "/>
   <polygon class="fil0" points="1888.36,1005.67 1921.94,1005.67 1921.94,1038.4 1888.36,1038.4 "/>
   <polygon class="fil0" points="1715.49,1005.67 1748.64,1005.67 1748.64,1038.4 1715.49,1038.4 "/>
   <polygon class="fil0" points="1801.56,1005.67 1835.45,1005.67 1835.45,1038.4 1801.56,1038.4 "/>
   <polygon class="fil0" points="2234.23,1005.67 2270.82,1005.67 2270.82,1532.03 2234.23,1532.03 "/>
   <polygon class="fil0" points="1625.95,1005.67 1662.54,1005.67 1662.54,1532.03 1625.95,1532.03 "/>
   <path class="fil0" d="M1617.91 858.06l660.98 0 -85.94 -64.72c-4.5,-3.39 -7.78,-8.12 -9.42,-13.49l-191.87 -635.9 -86.55 0 -191.88 635.9c-1.64,5.37 -4.92,10.11 -9.42,13.49l-85.9 64.72zm330.49 -256.78l87.34 170.89 -174.68 0 87.34 -170.89z"/>
   <polygon class="fil0" points="2353.66,1815.21 2421.66,1815.21 2421.34,1788.36 2353.66,1788.36 "/>
   <polygon class="fil0" points="2353.66,2065.48 2424.41,2065.48 2424.12,2038.6 2353.66,2038.6 "/>
   <polygon class="fil0" points="2353.66,2448.92 2428.64,2448.92 2424.99,2118.4 2353.66,2118.4 "/>
   <polygon class="fil0" points="2353.66,1985.68 2423.54,1985.68 2422.24,1868.13 2353.66,1868.13 "/>
   <polygon class="fil0" points="1948.4,0.51 1921.09,91.03 1975.7,91.03 "/>
   <path class="fil0" d="M39.91 2501.83l-39.77 0 0 607.64 135.23 0c2.35,0 4.39,0.03 6.59,0.03l0 -607.67 -101.76 0c-0.08,0 -0.19,0 -0.29,0z"/>
   <polygon class="fil0" points="2277.36,790.67 2300.43,627.74 2192.93,627.74 2231.69,756.24 "/>
   <polygon class="fil0" points="2353.66,1735.44 2420.76,1735.44 2420.47,1707.1 2353.66,1707.1 "/>
   <polygon class="fil0" points="573.68,1005.67 607.25,1005.67 607.25,1038.4 573.68,1038.4 "/>
   <polygon class="fil0" points="720.52,952.72 720.71,952.75 824.87,952.75 824.87,910.97 269.54,910.97 269.54,952.75 373.65,952.75 373.86,952.72 374.05,952.75 720.31,952.75 "/>
   <polygon class="fil0" points="400.32,1005.67 434.29,1005.67 434.29,1038.4 400.32,1038.4 "/>
   <polygon class="fil0" points="660.17,1005.67 694.06,1005.67 694.06,1038.4 660.17,1038.4 "/>
   <polygon class="fil0" points="487.18,1005.67 520.76,1005.67 520.76,1038.4 487.18,1038.4 "/>
   <polygon class="fil0" points="224.8,1584.95 261.39,1584.95 261.39,1627.17 224.8,1627.17 "/>
   <polygon class="fil0" points="314.31,1005.67 347.38,1005.67 347.38,1038.4 314.31,1038.4 "/>
   <polygon class="fil0" points="224.8,1005.67 261.39,1005.67 261.39,1532.03 224.8,1532.03 "/>
   <polygon class="fil0" points="547.22,0.51 519.91,91.03 574.52,91.03 "/>
   <polygon class="fil0" points="876.2,790.67 899.27,627.74 791.75,627.74 830.53,756.24 "/>
   <path class="fil0" d="M1182.8 1487.95l46.83 -44.24c10.19,-9.63 26.14,-9.63 36.33,0l46.83 44.24 0 -103.16 -129.99 0 0 103.16z"/>
   <polygon class="fil0" points="1665.08,756.24 1703.84,627.74 1596.34,627.74 1619.42,790.67 "/>
   <polygon class="fil0" points="833.05,1005.67 869.64,1005.67 869.64,1532.03 833.05,1532.03 "/>
   <polygon class="fil0" points="833.05,1584.95 869.64,1584.95 869.64,1627.17 833.05,1627.17 "/>
   <polygon class="fil0" points="1625.95,1584.95 1662.54,1584.95 1662.54,1627.17 1625.95,1627.17 "/>
   <path class="fil0" d="M216.73 858.06l660.98 0 -85.94 -64.72c-4.5,-3.39 -7.78,-8.12 -9.42,-13.49l-191.85 -635.9 -86.54 0 -191.88 635.89c-1.64,5.37 -4.92,10.11 -9.42,13.49l-85.93 64.73zm330.49 -256.78l87.34 170.89 -174.68 0 87.34 -170.89z"/>
   <polygon class="fil0" points="263.9,756.24 302.69,627.74 195.16,627.74 218.24,790.67 "/>
   <path class="fil0" d="M1856.19 2451.22c-11.75,0 -21.3,9.55 -21.3,21.3l0 75.41 42.57 -0.01 0 -75.41c0.03,-11.74 -9.52,-21.29 -21.27,-21.29z"/>
   <polygon class="fil0" points="1745.38,2264.05 2151.36,2264.05 2151.36,2307.1 1745.38,2307.1 "/>
   <path class="fil0" d="M1745.38 2475.37l0 72.55 36.6 0 0 -75.41c0,-40.9 33.28,-74.22 74.22,-74.22 40.94,0 74.22,33.28 74.22,74.22l0 75.41 35.97 0 0 -75.41c0,-40.9 33.28,-74.22 74.22,-74.22 40.94,0 74.22,33.28 74.22,74.22l0 75.41 36.58 0 0 -72.55 0 -115.36 -406.03 0.01 0 115.35z"/>
   <path class="fil0" d="M2040.58 2451.22c-11.75,0 -21.3,9.55 -21.3,21.3l0 75.41 42.57 -0.01 0 -75.41c0.03,-11.74 -9.52,-21.29 -21.27,-21.29z"/>
   <path class="fil0" d="M1856.19 2042.83c-11.75,0 -21.3,9.55 -21.3,21.3l0 147 42.57 0 0 -147c0.03,-11.75 -9.52,-21.3 -21.27,-21.3z"/>
   <path class="fil0" d="M2040.58 2042.83c-11.75,0 -21.3,9.55 -21.3,21.3l0 147 42.57 0 0 -147c0.03,-11.75 -9.52,-21.3 -21.27,-21.3z"/>
   <polygon class="fil0" points="1745.38,1707.1 2151.36,1707.1 2151.36,1740.47 1745.38,1740.47 "/>
   <path class="fil0" d="M1745.38 2211.13l36.6 0 0 -147c0,-40.9 33.28,-74.22 74.22,-74.22 40.94,0 74.22,33.28 74.22,74.22l0 147 35.97 0 0 -147c0,-40.9 33.28,-74.22 74.22,-74.22 40.94,0 74.22,33.28 74.22,74.22l0 147 36.58 0 0 -417.75 -406.03 0 0 417.75zm203.02 -362.53c30.14,0 54.56,24.42 54.56,54.56 0,30.14 -24.42,54.56 -54.56,54.56 -30.14,0 -54.56,-24.42 -54.56,-54.56 0,-30.14 24.42,-54.56 54.56,-54.56z"/>
   <path class="fil0" d="M1948.4 2767.47c-65.33,0 -118.51,53.15 -118.51,118.51l0 223.49 32.33 0 0 -225.5c0,-47.49 38.66,-86.15 86.15,-86.15 47.49,0 86.15,38.63 86.15,86.15l0 225.5 32.33 0 0 -223.49c0.03,-65.35 -53.13,-118.51 -118.45,-118.51z"/>
   <polygon class="fil0" points="1596.03,1763.3 1692.47,1763.3 1692.47,1885.75 1596.03,1885.75 "/>
   <polygon class="fil0" points="1596.03,1938.67 1692.47,1938.67 1692.47,1972.96 1596.03,1972.96 "/>
   <polygon class="fil0" points="1596.03,1680.09 1692.47,1680.09 1692.47,1710.38 1596.03,1710.38 "/>
   <polygon class="fil0" points="1596.03,2025.9 1692.47,2025.9 1692.47,2122.82 1596.03,2122.82 "/>
   <path class="fil0" d="M1948.4 2850.74c-18.34,0 -33.23,14.9 -33.23,33.23l0 225.5 66.46 0 0 -225.5c0,-18.34 -14.92,-33.23 -33.23,-33.23z"/>
   <path class="fil0" d="M1745.38 3109.47l31.6 0 0 -223.49c0,-94.51 76.89,-171.42 171.42,-171.42 94.51,0 171.4,76.89 171.4,171.42l0 223.49 31.59 0 0 -426.34 -406.01 0 0 426.34z"/>
   <polygon class="fil0" points="2204.3,2025.9 2300.74,2025.9 2300.74,2122.82 2204.3,2122.82 "/>
   <polygon class="fil0" points="1745.38,2600.84 2151.36,2600.84 2151.36,2630.21 1745.38,2630.21 "/>
   <polygon class="fil0" points="2221.66,2448.92 2283.36,2448.92 2252.51,2390.34 "/>
   <path class="fil0" d="M1715.49 1627.17l3.46 0c14.61,0 26.46,11.85 26.46,26.46l0 0.56 36.59 0 0 -61.33c0,-14.61 11.85,-26.46 26.46,-26.46 0.03,0 0.05,0.03 0.08,0.03 0.03,0 0.05,-0.03 0.08,-0.03l95.49 0c14.61,0 26.46,11.85 26.46,26.46 0,0.26 -0.16,0.5 -0.16,0.77l0 60.56 35.98 0 0 -61.33c0,-14.61 11.85,-26.46 26.46,-26.46l95.49 0c14.61,0 26.46,11.85 26.46,26.46l0 61.33 36.59 0 0 -0.56c0,-14.61 11.85,-26.46 26.46,-26.46l3.46 0 0 -535.83 -465.82 0 0 535.83zm214.92 -122.13c0,14.61 -11.85,26.46 -26.46,26.46l-95.49 0c-14.61,0 -26.46,-11.85 -26.46,-26.46l0 -84.22c0,-14.61 11.85,-26.46 26.46,-26.46l95.49 0.01c14.61,0 26.46,11.85 26.46,26.46l0 84.21zm0 -168.43c0,14.61 -11.85,26.46 -26.46,26.46l-95.49 0c-14.61,0 -26.46,-11.85 -26.46,-26.46l0 -42.99c0,-40.9 33.28,-74.22 74.22,-74.22 40.94,0 74.22,33.28 74.22,74.22l-0.01 42.99 -0.02 0zm184.39 168.43c0,14.61 -11.85,26.46 -26.46,26.46l-95.49 0c-14.61,0 -26.46,-11.85 -26.46,-26.46l0 -84.22c0,-14.61 11.85,-26.46 26.46,-26.46l95.49 0.01c14.61,0 26.46,11.85 26.46,26.46l0 84.21zm0 -168.43c0,14.61 -11.85,26.46 -26.46,26.46l-95.49 0c-14.61,0 -26.46,-11.85 -26.46,-26.46l0 -42.99c0,-40.9 33.28,-74.22 74.22,-74.22 40.94,0 74.22,33.28 74.22,74.22l-0.01 42.99 -0.02 0zm-362.14 -155.55c1.24,-2.73 31.43,-66.75 103.53,-66.75 40.88,0 72.73,21.14 92.21,38.87 19.47,-17.7 51.3,-38.87 92.18,-38.87 72.1,0 102.29,64.03 103.56,66.75 6.09,13.28 0.26,29 -13.02,35.08 -13.28,6.06 -29,0.24 -35.08,-13.02 -0.61,-1.27 -17.67,-35.9 -55.43,-35.9 -41.17,0 -70.35,39.82 -70.64,40.24 -5,6.93 -13.86,11.09 -21.62,11.03 -8.55,-0.05 -16.59,-4.15 -21.51,-11.14 -0.21,-0.29 -29.42,-40.14 -70.59,-40.14 -38.52,0 -55.27,35.53 -55.43,35.88 -4.45,9.71 -14.05,15.43 -24.08,15.43 -3.7,0 -7.43,-0.77 -11.01,-2.41 -13.33,-6.08 -19.16,-21.77 -13.07,-35.05z"/>
   <polygon class="fil0" points="2148.21,1005.67 2181.29,1005.67 2181.29,1038.4 2148.21,1038.4 "/>
   <polygon class="fil0" points="820.51,2448.92 882.18,2448.92 851.33,2390.34 "/>
   <polygon class="fil0" points="2204.3,2501.83 2300.74,2501.83 2300.74,3163.29 2204.3,3163.29 "/>
   <path class="fil0" d="M2204.3 2368.35l24.82 -47.12c4.58,-8.7 13.6,-14.13 23.42,-14.13 9.82,0 18.84,5.45 23.42,14.13l24.82 47.12 0 -104.3 -96.45 0 0 104.3 -0.03 0z"/>
   <polygon class="fil0" points="2204.3,2175.71 2300.74,2175.71 2300.74,2211.11 2204.3,2211.11 "/>
   <polygon class="fil0" points="1596.03,2175.71 1692.47,2175.71 1692.47,2211.11 1596.03,2211.11 "/>
   <path class="fil0" d="M2040.58 1272.34c-11.75,0 -21.3,9.55 -21.3,21.3l0 16.54 42.57 0 0 -16.54c0.03,-11.75 -9.52,-21.3 -21.27,-21.3z"/>
   <polygon class="fil0" points="2204.3,1763.3 2300.74,1763.3 2300.74,1885.75 2204.3,1885.75 "/>
   <path class="fil0" d="M2353.66 1654.19l30.75 0 0 -442.04c0,-27.36 -26.51,-79.11 -60.67,-98.61l0 513.63 3.46 0c14.61,0 26.46,11.85 26.46,26.46l0 0.56z"/>
   <polygon class="fil0" points="2204.3,1938.67 2300.74,1938.67 2300.74,1972.96 2204.3,1972.96 "/>
   <polygon class="fil0" points="2204.3,1680.09 2300.74,1680.09 2300.74,1710.38 2204.3,1710.38 "/>
   <polygon class="fil0" points="1834.89,1447.28 1877.46,1447.28 1877.46,1478.58 1834.89,1478.58 "/>
   <path class="fil0" d="M1856.19 1272.34c-11.75,0 -21.3,9.55 -21.3,21.3l0 16.54 42.57 0 0 -16.54c0.03,-11.75 -9.52,-21.3 -21.27,-21.3z"/>
   <polygon class="fil0" points="2019.28,1447.28 2061.85,1447.28 2061.85,1478.58 2019.28,1478.58 "/>
   <polygon class="fil0" points="2019.28,1619.31 2061.85,1619.31 2061.85,1654.19 2019.28,1654.19 "/>
   <polygon class="fil0" points="1834.89,1619.31 1877.46,1619.31 1877.46,1654.19 1834.89,1654.19 "/>
   <polygon class="fil0" points="952.48,2600.84 1543.11,2600.84 1543.11,2630.21 952.48,2630.21 "/>
   <path class="fil0" d="M1596.03 2368.35l24.82 -47.12c4.58,-8.7 13.6,-14.13 23.42,-14.13 9.82,0 18.84,5.45 23.42,14.13l24.82 47.12 0 -104.3 -96.46 0 0 104.3 -0.02 0z"/>
   <path class="fil0" d="M1247.81 2430.92c-11.75,0 -21.3,9.55 -21.3,21.3l0 95.7 42.57 0 0 -95.7c0,-11.74 -9.52,-21.3 -21.27,-21.3z"/>
   <path class="fil0" d="M1062.1 2430.92c-11.75,0 -21.3,9.55 -21.3,21.3l0 95.7 42.57 0 0 -95.7c0,-11.74 -9.52,-21.3 -21.27,-21.3z"/>
   <path class="fil0" d="M1433.52 2430.92c-11.75,0 -21.3,9.55 -21.3,21.3l0 95.7 42.57 0 0 -95.7c0,-11.74 -9.52,-21.3 -21.27,-21.3z"/>
   <polygon class="fil0" points="803.12,2175.71 899.56,2175.71 899.56,2211.11 803.12,2211.11 "/>
   <path class="fil0" d="M1247.39 2849.68c-59.93,0 -108.82,48.74 -109.03,108.66l-0.64 204.95 218.01 0 0.66 -204.26c0.08,-29.18 -11.22,-56.65 -31.83,-77.31 -20.58,-20.66 -47.99,-32.04 -77.17,-32.04z"/>
   <polygon class="fil0" points="803.12,1680.09 899.56,1680.09 899.56,1710.38 803.12,1710.38 "/>
   <polygon class="fil0" points="803.12,2025.9 899.56,2025.9 899.56,2122.82 803.12,2122.82 "/>
   <path class="fil0" d="M952.48 3163.29l47.02 0 0 -200.42c0,-136.92 111.39,-248.31 248.31,-248.31 136.92,0 248.31,111.39 248.31,248.31l0 200.42 47.02 0 0 -480.16 -590.66 0 0 480.16z"/>
   <polygon class="fil0" points="803.12,1763.3 899.56,1763.3 899.56,1885.75 803.12,1885.75 "/>
   <path class="fil0" d="M1247.81 2767.47c-107.74,0 -195.39,87.66 -195.39,195.39l0 200.42 32.38 0.01 0.64 -205.11c0.29,-89.01 72.95,-161.42 161.95,-161.42 43.34,0 84.06,16.91 114.67,47.6 30.61,30.69 47.39,71.49 47.25,114.83l-0.66 204.1 34.53 0 0 -200.42c0.02,-107.74 -87.63,-195.4 -195.37,-195.4z"/>
   <path class="fil0" d="M1106.28 2010.53c-16.56,22.44 -27.86,48.9 -32.23,77.66l109.89 -0.01 -77.66 -77.65z"/>
   <path class="fil0" d="M952.48 1778.33l0 49.11 277.15 -261.83c10.19,-9.63 26.14,-9.63 36.33,0l277.15 261.83 0 -49.11 -295.3 -279 -295.33 279z"/>
   <path class="fil0" d="M803.12 2368.32l24.82 -47.12c9.15,-17.38 37.68,-17.38 46.83,0l24.82 47.12 0 -104.3 -96.44 0.01 0 104.29 -0.03 0z"/>
   <path class="fil0" d="M1274.27 2178.51l0 109.88c28.76,-4.37 55.22,-15.66 77.66,-32.23l-77.66 -77.65z"/>
   <path class="fil0" d="M2455.71 2501.83c-0.11,0 -0.21,0 -0.29,0l-101.76 0 0 607.64c2.2,0 4.23,-0.03 6.59,-0.03l135.23 0 0 -607.61 -39.77 0z"/>
   <path class="fil0" d="M952.48 1900.22l0 575.15 0 72.55 35.4 0 0 -95.7c0,-40.9 33.28,-74.22 74.22,-74.22 40.94,0 74.22,33.28 74.22,74.22l0 95.7 37.3 0 0 -95.7c0,-40.9 33.28,-74.22 74.22,-74.22 40.94,0 74.22,33.28 74.22,74.22l0 95.7 37.3 0 0 -95.7c0,-40.9 33.28,-74.22 74.22,-74.22 40.94,0 74.22,33.28 74.22,74.22l0 95.7 35.39 0 0 -72.55 0 -575.15 -295.38 -278.97 -295.33 278.97zm457.15 52.58c0.16,0.16 0.21,0.4 0.37,0.56 41.17,41.41 66.65,98.4 66.65,161.26 0,62.86 -25.51,119.86 -66.65,161.26 -0.16,0.16 -0.21,0.4 -0.37,0.56 -0.16,0.16 -0.4,0.21 -0.56,0.37 -41.41,41.17 -98.4,66.65 -161.26,66.65 -62.86,0 -119.86,-25.51 -161.26,-66.65 -0.16,-0.16 -0.4,-0.21 -0.56,-0.37 -0.16,-0.16 -0.21,-0.4 -0.37,-0.56 -41.17,-41.41 -66.65,-98.4 -66.65,-161.26 0,-62.86 25.51,-119.86 66.65,-161.26 0.16,-0.16 0.21,-0.4 0.37,-0.56 0.16,-0.16 0.4,-0.21 0.56,-0.37 41.41,-41.17 98.4,-66.65 161.26,-66.65 62.86,0 119.86,25.51 161.26,66.65 0.19,0.15 0.4,0.21 0.56,0.37zm-112.5 -177.38c0,27.25 -22.09,49.32 -49.32,49.32 -27.23,0 -49.32,-22.09 -49.32,-49.32 0,-27.25 22.09,-49.32 49.32,-49.32 27.23,0 49.32,22.07 49.32,49.32z"/>
   <path class="fil0" d="M1074.06 2141.1c4.37,28.76 15.66,55.22 32.23,77.66l77.66 -77.66 -109.89 0z"/>
   <polygon class="fil0" points="1596.03,2501.83 1692.47,2501.83 1692.47,3163.29 1596.03,3163.29 "/>
   <polygon class="fil0" points="803.12,1938.67 899.56,1938.67 899.56,1972.96 803.12,1972.96 "/>
   <polygon class="fil0" points="1613.41,2448.92 1675.11,2448.92 1644.26,2390.34 "/>
   <path class="fil0" d="M1221.35 2050.77l0 -109.88c-28.76,4.37 -55.22,15.66 -77.66,32.23l77.66 77.65z"/>
   <path class="fil0" d="M1221.35 2288.39l0 -109.88 -77.66 77.66c22.44,16.56 48.9,27.86 77.66,32.22z"/>
   <path class="fil0" d="M1274.27 1940.89l0 109.88 77.66 -77.66c-22.47,-16.56 -48.9,-27.86 -77.66,-32.22z"/>
   <path class="fil0" d="M1389.33 2218.75c16.56,-22.44 27.86,-48.9 32.23,-77.66l-109.88 0.01 77.65 77.65z"/>
   <path class="fil0" d="M1421.56 2088.18c-4.37,-28.76 -15.66,-55.22 -32.23,-77.66l-77.66 77.66 109.89 0z"/>
   <path class="fil0" d="M1156.34 1188.33l65.01 0 0 93.03c0,14.61 11.85,26.46 26.46,26.46 14.61,0 26.46,-11.85 26.46,-26.46l0 -93.03 67.6 0c14.61,0 26.46,-11.85 26.46,-26.46 0,-14.61 -11.85,-26.46 -26.46,-26.46l-67.6 0.01 0 -55.56c0,-14.61 -11.85,-26.46 -26.46,-26.46 -14.61,0 -26.46,11.85 -26.46,26.46l0 55.56 -65.01 0c-14.61,0 -26.46,11.85 -26.46,26.46 0,14.61 11.86,26.45 26.46,26.45z"/>
  </g>
 </g>
</svg>
