<?xml version="1.0" encoding="UTF-8"?><svg xmlns="http://www.w3.org/2000/svg" xmlns:xlink="http://www.w3.org/1999/xlink" height="400.0" preserveAspectRatio="xMidYMid meet" version="1.0" viewBox="0.0 0.0 276.4 400.0" width="276.4" zoomAndPan="magnify"><g id="change1_1"><path d="M106.25,222.75c0-0.18-0.09-0.32-0.11-0.5c-0.45-9.77-3.39-19.24-7.28-31.27c-7.39-22.85-17.99-55.64-17.99-117.95V71.4 c2.55-0.93,4.4-3.33,4.4-6.2V40.73c0-2.87-1.84-5.27-4.4-6.2V6.66C80.86,2.98,77.88,0,74.2,0H32.11c-3.68,0-6.66,2.98-6.66,6.66 v27.87c-2.55,0.93-4.4,3.33-4.4,6.2V65.2c0,2.87,1.84,5.27,4.4,6.2v1.63c0,62.31-10.6,95.1-17.99,117.95 C3.24,204.03,0,214.05,0,224.71v156.87c0,5.31,2.52,10.06,6.59,13.42c3.72,3.08,8.77,4.99,14.26,4.99h64.61 c5.49,0,10.55-1.91,14.26-4.99c4.06-3.36,6.59-8.11,6.59-13.42V224.71c0,0,0-0.01,0-0.01L106.25,222.75z M34.37,47.39h37.57v11.16 H34.37V47.39z M38.77,13.32h28.78v20.76H38.77V13.32z M91.25,384.77c-1.43,1.18-3.47,1.92-5.79,1.92H20.85 c-2.31,0-4.36-0.74-5.79-1.92c-1.08-0.89-1.75-2.03-1.75-3.18V224.71c0-8.71,2.95-17.82,6.78-29.68 c7.67-23.71,18.67-57.74,18.67-122v-1.17h28.78v1.17c0,64.27,11,98.29,18.67,122h0c2.63,8.13,4.76,14.93,5.89,21.24H59.3 c-5.08,0-9.69,2.07-13.03,5.41c-3.34,3.34-5.41,7.95-5.41,13.03v51.81c0,5.08,2.07,9.69,5.41,13.03c3.34,3.34,7.95,5.41,13.03,5.41 H93v76.62C93,382.74,92.33,383.87,91.25,384.77z M93,229.59v62.06H59.3c-1.4,0-2.69-0.58-3.62-1.51c-0.93-0.93-1.51-2.21-1.51-3.62 v-51.81c0-1.4,0.58-2.69,1.51-3.62c0.93-0.93,2.21-1.51,3.62-1.51H93z M244.58,369.2c-7.91-4.2-17.04-7.28-26.93-8.92v-48.04 c19.94-4.16,35.46-14.2,45.39-28.47c9.09-13.07,13.36-29.58,11.96-48.2c0,0,0,0,0-0.01c-0.17-2.27-0.39-4.55-0.73-6.87 c-0.18-1.24-0.41-2.61-0.69-4.11c-3.63-19.42-10.14-45.31-14.99-64.6c-2.07-8.25-3.85-15.31-4.9-19.85c-0.51-3.17-3.26-5.6-6.57-5.6 l-92.02,0.01c-3.03,0-5.77,2.08-6.48,5.16c-1.04,4.51-2.86,11.76-5,20.27c-4.84,19.28-11.35,45.18-14.99,64.6l-0.04,0.26 c-0.01,0.07-0.02,0.13-0.03,0.19c0,0.04-0.01,0.08-0.02,0.12c-4.04,22.22-0.34,41.96,9.73,57.25c9.34,14.18,24.02,24.38,42.95,29.07 v49.42c-9.21,1.87-17.7,5-25.08,9.12c-9.15,5.11-16.63,11.76-21.71,19.4c-0.8,1.1-1.28,2.45-1.28,3.92c0,3.68,2.98,6.66,6.66,6.66 l122.56-0.01c1.25,0,2.52-0.35,3.64-1.08c3.07-2.01,3.93-6.13,1.92-9.21C262.6,381.51,254.52,374.47,244.58,369.2z M156.53,163.21 c1.46-5.81,2.77-11.02,3.82-15.36h81.52c1.05,4.33,2.36,9.54,3.82,15.36c4.56,18.14,10.56,42.07,14.18,60.51 c-30.21-15.59-51.07-4.58-69.65,5.29c-15.9,8.44-29.73,15.69-47.9-5.12C145.94,205.43,151.96,181.4,156.53,163.21z M154.99,386.68 c2.32-1.84,4.87-3.53,7.62-5.07c7.49-4.18,16.42-7.17,26.2-8.55c3.33-0.46,5.73-3.31,5.75-6.58v-60.36c0-3.41-2.57-6.23-5.88-6.61 c-17.69-3.36-31.16-12.02-39.31-24.39c-6.19-9.41-9.4-21.07-9.13-34.28c20.96,18.58,37.5,9.86,56.23-0.08 c17.12-9.09,36.55-19.3,65.44-0.4c0.36,13.9-3.04,26.13-9.79,35.82c-8.25,11.86-21.53,20.15-38.79,23.38l-3.29,0.54 c-3.31,0.48-5.69,3.33-5.7,6.58v59.4l0,0c0,3.61,2.87,6.54,6.44,6.65c10.26,1.12,19.68,4.02,27.61,8.22 c3.22,1.7,6.18,3.63,8.84,5.73H154.99z"/></g></svg>