<?xml version="1.0" encoding="UTF-8"?><!DOCTYPE svg PUBLIC "-//W3C//DTD SVG 1.0//EN" "http://www.w3.org/TR/2001/REC-SVG-20010904/DTD/svg10.dtd" []><svg xmlns="http://www.w3.org/2000/svg" xmlns:xlink="http://www.w3.org/1999/xlink" height="179" preserveAspectRatio="xMidYMid meet" version="1.0" viewBox="33.3 37.3 185.3 178.9" width="185" zoomAndPan="magnify"><g id="change1_1"><path d="M242.914 181.186C238.904 178.329 235.268 174.472 231.628 171.147L212.794 154.083C187.757 131.145 201.021 91.0185 234.173 90.0287C241.433 88.5793 250.207 92.7056 256.523 95.8169C285.477 75.6769 323.425 107.16 310.392 139.518C304.729 153.576 281.396 169.32 270.065 181.186L362.005 181.037C383.434 180.88 387.228 196.99 387.194 213.725L387.171 293.914C398.689 293.668 409.316 302.513 411.957 313.562C413.699 320.852 412.907 332.334 412.898 340.154L412.906 378.746L443.664 378.746L443.684 397.251C443.848 430.161 432.51 438.541 400.667 438.53L283.375 438.522L99.4948 438.656C90.8536 438.713 82.952 435.023 76.9019 428.967C67.6821 419.738 67.9242 409.531 67.9249 397.407L67.9391 378.746C78.4439 378.751 89.0487 378.415 99.5395 378.746L99.5281 338.077C99.5125 317.81 97.7544 295.392 124.96 293.914L124.941 214.499C124.925 200.619 126.778 185.597 143.627 181.889C148.122 180.9 152.71 181.174 157.278 181.175L219.523 181.183C227.313 181.185 235.127 181.35 242.914 181.186ZM235.007 108.851C221.747 110.367 213.968 124.354 221.465 135.098C223.892 138.576 227.435 141.435 230.561 144.273L244.139 156.372C248.32 160.063 252.261 164.034 256.523 167.63C261.895 162.393 267.56 157.431 273.125 152.401L282.246 144.195C287.698 139.359 293.264 135.272 293.707 127.35C294.589 111.556 275.438 103.076 264.29 113.795C249.456 128.059 252.111 109.087 235.007 108.851ZM152.65 200.142C142.233 200.398 143.904 208.249 143.923 215.891L143.956 234.131C151.844 241.15 157.444 247.95 168.976 247.232C179.756 246.561 183.469 238.555 191.516 233.106C224.027 211.091 239.468 249.033 257.969 247.795C266.992 247.191 272.368 238.211 279.311 233.515C295.596 222.502 313.598 226.43 327.155 239.281C344.554 256.191 354.05 245.021 368.343 233.177L368.357 214.939C368.361 212.293 369.36 202.826 366.641 201.154C363.352 199.132 340.707 200.139 336.122 200.139L152.65 200.142ZM209.648 246.3C193.752 249.416 188.635 273.686 157.034 265.109C152.345 263.836 148.423 261.326 143.956 259.623C143.959 271.029 144.257 282.517 143.956 293.914L324.711 293.914L368.343 293.914L368.353 270.226C368.356 266.307 368.505 262.341 368.343 258.428C352.237 268.194 335.516 270.642 319.312 258.039C311.197 251.726 304.786 240.932 291.749 248.561C287.55 251.017 284.307 254.916 280.598 258.013C266.612 269.691 245.624 269.349 231.666 257.992C224.168 251.891 220.449 245.53 209.648 246.3ZM124.96 312.773C114.87 314.472 118.686 329.649 118.69 338.558L118.691 378.746L388.562 378.746L393.672 378.746L393.701 325.908C393.842 311.125 391.066 312.685 376.38 312.757L182.008 312.775C163.009 312.774 143.951 312.433 124.96 312.773ZM415.131 397.715L86.8553 397.715C86.7864 407.074 86.4539 416.158 96.7478 419.706C100.869 420.199 104.919 419.766 109.05 419.723L385.796 419.707C393.908 419.706 412.932 421.552 419.339 416.706C425.537 412.018 424.797 404.575 424.748 397.715C421.598 397.366 418.306 397.748 415.131 397.715Z" transform="scale(0.4927 0.4927)"/></g></svg>