<?xml version="1.0" encoding="UTF-8"?><svg xmlns="http://www.w3.org/2000/svg" xmlns:xlink="http://www.w3.org/1999/xlink" height="204.7" preserveAspectRatio="xMidYMid meet" version="1.0" viewBox="0.0 0.0 140.5 204.7" width="140.5" zoomAndPan="magnify"><g id="change1_1"><path d="M12,0A12,12,0,0,0,0,12V192.67a12,12,0,0,0,12,12H128.51a12,12,0,0,0,12-12V12a12,12,0,0,0-12-12ZM132.51,12V192.67a4,4,0,0,1-4,4H12a4,4,0,0,1-4-4V12a4,4,0,0,1,4-4H128.51A4,4,0,0,1,132.51,12Z" fill="inherit"/><path d="M70.26,66.65a17.2,17.2,0,1,0-17.2-17.2A17.22,17.22,0,0,0,70.26,66.65Zm0-26.4a9.2,9.2,0,1,1-9.2,9.2A9.21,9.21,0,0,1,70.26,40.25Z" fill="inherit"/><path d="M70.26,82.44a33,33,0,1,0-33-33A33,33,0,0,0,70.26,82.44Zm0-58a25,25,0,1,1-25,25A25,25,0,0,1,70.26,24.45Z" fill="inherit"/><path d="M70.26,125.46A19.71,19.71,0,1,0,90,145.17,19.73,19.73,0,0,0,70.26,125.46Zm0,31.41A11.71,11.71,0,1,1,82,145.17,11.72,11.72,0,0,1,70.26,156.87Z" fill="inherit"/><path d="M70.26,98.33a46.84,46.84,0,1,0,46.83,46.84A46.89,46.89,0,0,0,70.26,98.33Zm0,85.67a38.84,38.84,0,1,1,38.83-38.83A38.88,38.88,0,0,1,70.26,184Z" fill="inherit"/><path d="M37.59,94.33h71.33a4,4,0,0,0,0-8H37.59a4,4,0,0,0,0,8Z" fill="inherit"/><path d="M121.59,16.45h-5.33a4,4,0,0,0,0,8h5.33a4,4,0,0,0,0-8Z" fill="inherit"/><path d="M18.76,24.45h5.33a4,4,0,0,0,0-8H18.76a4,4,0,0,0,0,8Z" fill="inherit"/><path d="M121.59,184h-5.33a4,4,0,1,0,0,8h5.33a4,4,0,1,0,0-8Z" fill="inherit"/><path d="M24.09,184H18.76a4,4,0,0,0,0,8h5.33a4,4,0,1,0,0-8Z" fill="inherit"/></g></svg>