<?xml version="1.0" encoding="UTF-8"?><svg xmlns="http://www.w3.org/2000/svg" xmlns:xlink="http://www.w3.org/1999/xlink" height="386.3" preserveAspectRatio="xMidYMid meet" version="1.0" viewBox="0.0 0.0 400.0 386.3" width="400.0" zoomAndPan="magnify"><g id="change1_1"><path d="M393.39,220.92l-0.03-0.03c-3.79-3.78-8.91-6.23-14.56-6.56c0.1-2.58,0.15-4.81,0.15-6.69c0-49.13-20.1-93.8-52.47-126.17 c-26.21-26.21-60.48-44.37-98.66-50.34c0.01-0.07,0.02-0.13,0.02-0.19l0.09-2.06c0-7.88-3.1-15.06-8.09-20.27 C214.78,3.3,207.76,0,200.04,0h-0.08c-7.72,0-14.73,3.3-19.81,8.61c-4.99,5.22-8.09,12.4-8.09,20.28h0.03l0.06,2.06 c0,0.07,0.01,0.13,0.02,0.19c-38.18,5.96-72.45,24.12-98.66,50.34c-32.37,32.37-52.47,77.04-52.47,126.17c0,1.88,0.05,4.1,0.15,6.69 c-5.67,0.33-10.8,2.78-14.57,6.58C2.54,224.99,0,230.61,0,236.79c0,5.55,2.07,10.65,5.46,14.6c-0.09,0.08-0.18,0.16-0.26,0.24 c-3.21,3.21-5.2,7.64-5.2,12.52v67.71c0,4.88,1.99,9.31,5.2,12.52h0.03c3.21,3.21,7.63,5.2,12.49,5.2h24.14v19.89 c0,4.63,1.9,8.85,4.94,11.89c3.05,3.05,7.25,4.94,11.89,4.94H157c4.63,0,8.84-1.89,11.89-4.94c3.05-3.05,4.94-7.26,4.94-11.89 v-30.67h92.9c8.38,0,16.3-3.68,23.11-8.41c6.35-4.4,11.68-9.66,15.38-13.44c5.99-6.05,32.07-32.13,32.07-32.14 c4.38-4.38,6.57-10.14,6.57-15.88c0-3.29-0.74-6.58-2.18-9.62h35.82c5.97,0,11.42-2.37,15.47-6.22l0.42-0.39 c4.08-4.08,6.61-9.7,6.61-15.9C400,230.63,397.48,225.02,393.39,220.92z M184.9,28.88l0.02,0c0-4.47,1.73-8.52,4.52-11.44 c2.7-2.83,6.43-4.59,10.52-4.59h0.08c4.09,0,7.81,1.76,10.52,4.59c2.79,2.92,4.52,6.97,4.52,11.44c0.01,0.26,0,0.5-0.01,0.73 c-4.87-0.4-9.79-0.62-14.75-0.62h-0.64l0,0c-4.97,0-9.89,0.22-14.75,0.62L184.9,28.88z M82.6,90.56 c30.05-30.05,71.5-48.7,117.08-48.7h0.64l0,0c45.59,0,87.03,18.65,117.08,48.7s48.7,71.49,48.7,117.08c0,2.48-0.03,4.6-0.1,6.32 l-0.01,0.32H34.01L34,213.96c-0.06-1.72-0.1-3.84-0.1-6.32C33.9,162.06,52.55,120.61,82.6,90.56z M17.71,336.71 c-1.34,0-2.56-0.54-3.43-1.43c-0.88-0.88-1.43-2.1-1.43-3.43v-67.71c0-1.33,0.55-2.54,1.43-3.43c0.88-0.88,2.1-1.43,3.43-1.43h24.14 v77.42H17.71z M159.8,372.25c-0.72,0.72-1.72,1.17-2.8,1.17H58.68c-1.08,0-2.08-0.45-2.8-1.17c-0.72-0.72-1.17-1.72-1.17-2.8v-26.31 c0,0,0-0.01,0-0.01s0-0.01,0-0.01v-83.84h106.26v110.17h0C160.96,370.54,160.51,371.53,159.8,372.25z M328.2,262.09l0.27,0.26 c1.69,1.83,2.53,4.19,2.53,6.56c0,2.49-0.93,4.96-2.8,6.82c-10.74,10.74-21.43,21.53-32.17,32.26c-3.32,3.4-8.07,8.09-13.47,11.83 c-4.94,3.42-10.46,6.1-15.83,6.1h-92.9v-66.63H275.4c0,0,0,0,0,0v0h0.01c2.66,0,5.07,1.08,6.8,2.81l0.03,0.03 c1.73,1.73,2.81,4.14,2.81,6.81c0,2.66-1.08,5.07-2.81,6.8l-0.03,0.03c-1.73,1.73-4.14,2.81-6.8,2.81h-50.9 c-3.55,0-6.43,2.88-6.43,6.43c0,3.55,2.88,6.43,6.43,6.43h50.9c2.28,0,4.49-0.35,6.57-0.99c2.08,0.47,4.34-0.1,5.96-1.72v0 c8.89-8.89,18.3-17.8,26.88-26.89c1.83-1.69,4.2-2.54,6.57-2.54C323.86,259.29,326.34,260.22,328.2,262.09z M296.71,261.76 c-0.29-0.85-0.62-1.67-1-2.47h3.48L296.71,261.76z M384.31,243.59l-0.26,0.28c-1.71,1.59-4.01,2.56-6.54,2.56h-56.11 c0,0-0.01,0-0.01,0s-0.01,0-0.01,0h-45.95c-0.01,0-0.01,0-0.02,0c0,0-0.01,0-0.01,0H167.4c0,0-0.01,0-0.01,0H48.28c0,0,0,0,0,0H22.5 c-2.64,0-5.05-1.09-6.8-2.84l-0.28-0.26c-1.58-1.71-2.56-4.01-2.56-6.55c0-2.66,1.08-5.07,2.81-6.8h0.03 c1.75-1.75,4.16-2.84,6.81-2.84h355h0c2.66,0,5.07,1.08,6.8,2.81l0.03,0.03c1.73,1.73,2.81,4.14,2.81,6.81 C387.14,239.43,386.06,241.84,384.31,243.59z"/></g></svg>