<?xml version="1.0" encoding="UTF-8"?>
<!DOCTYPE svg PUBLIC "-//W3C//DTD SVG 1.1//EN" "http://www.w3.org/Graphics/SVG/1.1/DTD/svg11.dtd">
<!-- Creator: CorelDRAW -->
<svg xmlns="http://www.w3.org/2000/svg" xml:space="preserve" width="12.107mm" height="12.111mm" version="1.1" style="shape-rendering:geometricPrecision; text-rendering:geometricPrecision; image-rendering:optimizeQuality; fill-rule:evenodd; clip-rule:evenodd"
viewBox="0 0 1210.7 1211.1"
 xmlns:xlink="http://www.w3.org/1999/xlink"
 xmlns:xodm="http://www.corel.com/coreldraw/odm/2003">
 <defs>
  <style type="text/css">
   <![CDATA[
    .fil0 {fill:#FEFEFE}
   ]]>
  </style>
 </defs>
 <g id="Capa_x0020_1">
  <metadata id="CorelCorpID_0Corel-Layer"/>
  <g id="_2086606022768">
   <path class="fil0" d="M409.41 294.2c30.59,-7.63 265.8,-0.63 316.81,-0.63 61.14,0 78.4,-3.34 129.31,29.17 26.47,16.91 57.93,64.98 59.92,98.58 5.95,100.19 1.77,212.98 1.77,315.22 0,61.1 2.37,78.41 -29.87,128.63 -24.91,38.8 -58.66,44.87 -98.22,59.25 -15.8,5.75 -275.25,2.09 -314.87,2.11 -52.85,0.02 -85.27,0.32 -126.84,-29.62 -31.84,-22.93 -56.01,-59.28 -59.54,-98.95 -8.92,-100.27 -3.59,-211.68 -3.6,-313.38 -0.01,-44.55 1.63,-96.9 29.85,-128.65 26.39,-29.68 51.63,-50.84 95.28,-61.73zm-411.65 345.47c2.24,12.65 0.06,25.12 1.34,37.64 1.28,12.44 5.23,16.29 5.98,31.61 0.97,19.69 12.35,45.59 13.96,61.23 2.26,22 29.74,88.52 41.45,109.92 41.54,75.95 71.08,115.39 129.83,172.93 59.05,57.83 113.93,83.37 185.52,117.25 60.07,28.42 189.47,51.86 255.06,42.96 26.03,-3.53 112.53,-9.12 130.67,-20.7 2.39,-1.52 76.85,-21.75 109.92,-41.45 67.28,-40.09 109.96,-63.74 172.46,-129.29 110.99,-116.44 169.9,-284.93 161.71,-442.62 -17.27,-332.29 -312.02,-594.76 -633.67,-573.92 -157.69,10.22 -305.29,74.23 -412.59,191.9 -40.95,44.91 -101.58,128.28 -118.31,184.45 -4.79,16.06 -14.06,40.55 -20.22,55.98 -1.33,3.31 -14.36,56.68 -14.82,60.36 -4.24,34.3 -14.57,106.25 -8.29,141.75z"/>
   <path class="fil0" d="M590.44 447.76c38.93,-7.55 95.02,14.84 121.63,40.8 30.92,30.16 46.81,63.05 53.42,110.16 11.58,82.62 -70.36,173.61 -152,173.42 -50.65,-0.12 -86.05,-7.81 -122.06,-41.59 -26.58,-24.93 -53.61,-70.67 -53.8,-109.77 -0.23,-47.85 13.63,-90.5 42.6,-121.09 12.41,-13.1 29.52,-27.28 45.73,-35.56 27.49,-14.04 37.15,-11.08 64.48,-16.37zm182.8 -44.69c38.18,-9.29 51.05,57.06 7.24,64.82 -32.19,5.71 -58.56,-52.32 -7.24,-64.82zm-349.41 -53.79c-27.45,4.77 -64.24,35.16 -72.94,57.64 -17.71,45.78 -13.78,68.7 -13.78,117.28 0,41.49 -4.85,236.15 4.28,258.86 12.67,31.54 15.42,55.91 55.29,75.77 38.43,19.15 75.44,12.84 118.22,12.84 43.87,0 234.89,6 262.37,-0.76 87.28,-21.47 87.12,-98.35 87.11,-175.01 0,-64.75 7.46,-203.76 -3.13,-260.01 -18.05,-95.87 -101.07,-87.46 -174.65,-87.46 -43.69,0 -87.38,0 -131.06,0 -31.95,0 -104.46,-3.88 -131.71,0.85z"/>
   <path class="fil0" d="M600.74 500.55c-161.66,18.81 -128.91,221.13 3.54,217.75 58.8,-1.5 108.63,-50.05 107.78,-110.81 -0.75,-53.54 -54.27,-113.57 -111.32,-106.94z"/>
  </g>
 </g>
</svg>
