<?xml version="1.0" encoding="UTF-8"?>
<!DOCTYPE svg PUBLIC "-//W3C//DTD SVG 1.1//EN" "http://www.w3.org/Graphics/SVG/1.1/DTD/svg11.dtd">
<!-- Creator: CorelDRAW -->
<svg xmlns="http://www.w3.org/2000/svg" xml:space="preserve" width="12.107mm" height="12.107mm" version="1.1" style="shape-rendering:geometricPrecision; text-rendering:geometricPrecision; image-rendering:optimizeQuality; fill-rule:evenodd; clip-rule:evenodd"
viewBox="0 0 1210.7 1210.7"
 xmlns:xlink="http://www.w3.org/1999/xlink"
 xmlns:xodm="http://www.corel.com/coreldraw/odm/2003">
 <defs>
  <style type="text/css">
   <![CDATA[
    .fil0 {fill:#FEFEFE}
   ]]>
  </style>
 </defs>
 <g id="Capa_x0020_1">
  <metadata id="CorelCorpID_0Corel-Layer"/>
  <path class="fil0" d="M1.57 632.79c4.09,22.48 4.43,46.15 7.69,68.82 2.8,19.5 10.58,42.59 13.56,61.62 5.3,33.81 30.68,79.46 41.83,109.55 19.22,51.88 87.27,133.36 129.19,173.57 47.38,45.44 120.73,94.35 184.84,117.91 71.73,26.36 177.22,54.73 254.58,44.47 17.55,-2.32 57.12,-2.46 69.06,-7.13 11.15,-4.37 51.2,-7.15 62.54,-12.64 31.04,-15 74.04,-23.73 109.6,-41.78 52.4,-26.6 107.11,-63.21 151.92,-107.24 -1.4,-2.8 -3.43,-5.81 -4.83,-8.46 -1.4,-2.66 -3.6,-7.42 -5.21,-9.61 -1.81,-2.47 -9.39,-16.41 -10.65,-19.44 -1.08,-2.59 -4.04,-6.87 -5.44,-9.61 -1.42,-2.77 -3.59,-7.2 -5.28,-9.55 -1.84,-2.55 -3.46,-7.07 -5.24,-9.81 -1.83,-2.85 -3.8,-6.55 -5.43,-9.61 -1.93,-3.63 -7.52,1.27 -9.99,2.22 -1.92,0.74 -7.22,4.27 -9.38,5.44 -3.69,2.02 -38.31,21.01 -38.75,21.01 -3,0 -3.51,-10.91 -4.05,-14.04 -0.91,-5.26 -1.07,-11.07 -1.76,-16.35 -0.73,-5.55 -1.8,-9.73 -2.24,-15.86 -0.41,-5.72 -1.24,-10.81 -2.18,-15.92 -0.94,-5.1 -0.92,-11.22 -1.72,-16.37 -0.85,-5.44 -1.6,-9.97 -2.2,-15.91 -0.59,-5.85 -1.26,-10.72 -2.14,-15.96 -0.86,-5.15 -0.87,-11.18 -1.75,-16.13 -1.78,-9.99 -2.88,-21.76 -4.41,-31.79 -0.8,-5.29 -0.83,-11.06 -1.64,-16.46 -0.8,-5.42 -1.67,-9.84 -2.21,-15.68 -0.56,-6.04 -1.31,-10.39 -2.17,-15.92 -0.82,-5.23 -0.87,-11.39 -1.78,-16.32 -0.99,-5.35 -1.68,-10.08 -2.2,-15.91 -0.23,-2.65 -0.37,-5.56 -0.77,-8.16 -0.2,-1.29 -2.04,-6.63 0.3,-6.63 3.99,0 4.47,2.91 7.38,5.05 2.4,1.75 3.98,2.95 6.25,4.87 3.55,2.99 22.36,18.8 24.6,20.11 1.24,0.73 10.78,8.71 12.19,10.05 3.4,3.21 8.49,7.27 12.23,10.23 3.67,2.89 8.69,7.68 12.29,9.95 1.78,1.12 4.21,3.9 5.96,5.17 2.18,1.56 4.33,2.98 6.27,4.85 2.95,2.84 8.79,7.8 12.03,10.21 8.36,6.24 97.71,80.24 97.71,80.67l0 0.88c0,1.83 -24.94,15.1 -28.27,16.65 -4.55,2.11 -9.88,5.62 -14.35,8.11 -2.45,1.36 -13.64,6.35 -13.64,8.82 0,1.9 17.69,32.12 19.99,36.49 3.01,5.71 7.62,12.89 9.92,18.43 0.55,1.32 1.88,3.44 3.12,5.44 94.12,-114.05 153.12,-251.8 142.54,-418.84 -10.67,-168.55 -72.28,-302.76 -191.34,-414.18 -242.42,-226.85 -622.47,-214.74 -853.38,29.51 -25.38,26.86 -48.67,57.05 -65.8,85.58 -9.44,15.71 -20.12,30.16 -28.09,48.11 -5.15,11.57 -17.96,40.23 -24.2,50.98 -24.89,42.83 -53.78,208.74 -45.1,256.54zm203.02 -56.15l0 1.97c0,3.26 7.05,2.4 10.68,2.4l94.65 0c17.93,0 36.19,0.34 54.09,0.01 4.9,-0.09 3.77,-4.79 4.2,-9.32 0.37,-3.88 0.87,-8.41 1.03,-12.48 0.71,-17.39 7.15,-55.02 10.44,-70.92 1.46,-7.04 4.12,-14.79 5.35,-21.69 0.76,-4.28 2.14,-6.53 2.94,-10.58 0.89,-4.52 2.32,-6.37 3.16,-10.58 0.78,-3.9 2.2,-6.11 3.18,-10.34 0.58,-2.52 2.34,-7.15 3.35,-10.17 0.6,-1.81 1.56,-2.94 2.06,-4.7 0.91,-3.21 4.32,-12.45 5.5,-14.78 0.59,-1.17 3.62,-8.52 3.92,-9.6 0.54,-1.89 2.97,-7.75 3.89,-9.63 1.4,-2.82 3.15,-6.28 4.57,-8.95 0.86,-1.63 0.79,-3.37 1.9,-4.86 2.63,-3.49 4,-7.34 -1.55,-9.15 -2.84,-0.92 -3.43,-1.49 -5.71,-2.57 -3.54,-1.67 -8.49,-3.2 -11.51,-5.28 -2.74,-1.87 -8.29,-3.72 -11.35,-5.45 -3.68,-2.07 -7.3,-3.77 -10.98,-5.81 -13.63,-7.54 -28.78,-16.79 -41.13,-25.81 -2.37,-1.72 -7.51,-6.35 -10.39,-4.54 -1.06,0.65 -7.89,7.21 -8.62,8.18 -1.87,2.5 -5.88,6.14 -8.19,8.6 -2.73,2.93 -5.15,6.04 -7.84,8.95 -5.24,5.67 -10.18,12.24 -15.04,18.33 -4.44,5.58 -10.34,13.44 -14.09,19.49 -4.2,6.75 -9.12,13.32 -12.9,20.46 -3.6,6.81 -8.95,14.19 -11.92,21.67 -1.17,2.96 -4.53,7.85 -5.66,10.92 -1.43,3.92 -3.73,7.82 -5.32,11.47 -1.03,2.35 -1,3.6 -2.39,5.89 -1.28,2.12 -1.24,4.21 -2.29,6.22 -1.43,2.76 -3.88,8.87 -4.84,11.95 -0.83,2.64 -1.05,3.76 -2.19,6.1 -0.99,2.04 -1.04,4.27 -1.91,6.38 -1.75,4.27 -2.42,8.51 -4.11,12.67 -0.86,2.12 -1.14,4.38 -1.62,6.67 -0.53,2.51 -1.61,4.06 -2.08,6.42 -0.96,4.72 -2.42,9.48 -3.12,13.68 -0.87,5.33 -1.9,8.99 -2.8,13.77 -0.9,4.76 -1.27,10.07 -2.09,14.71 -0.86,4.87 -1.39,9.47 -1.79,15 -0.33,4.65 -1.48,11.16 -1.48,15.3zm586.17 -209.35c0,1.76 7.17,15.61 8.55,18.93 1.36,3.31 2.76,6.16 3.92,9.6 0.44,1.32 3.41,8.36 4.11,9.63 1.28,2.32 2.58,6.89 3.79,9.74 0.72,1.7 0.95,3.43 1.61,5.14 0.68,1.79 1.45,2.64 2.01,4.75 1.81,6.83 4.9,13.47 6.58,20.68 0.85,3.6 2.19,5.89 3.15,10.37 0.81,3.78 2.05,6.34 2.9,10.62 1.29,6.54 4.35,15.04 5.44,21.82 1.28,7.93 2.77,14.7 4.2,23.06 0.69,4.02 1.7,6.64 2.15,11.37 0.42,4.35 0.9,8.15 1.56,12.18 1.86,11.28 2.41,25.23 3.58,36.98 0.51,5.14 -0.69,8.9 4.88,8.86 35.91,-0.29 72.81,-0.01 108.83,-0.01l40.78 0c4.75,0 9.16,1.07 9.16,-4.14 0,-4.24 -1.15,-10.36 -1.59,-14.99 -0.47,-4.87 -0.61,-10.65 -1.51,-15.28 -0.94,-4.73 -1.66,-9.01 -2.3,-14.27 -0.61,-5 -2.01,-8.79 -2.82,-13.97 -0.77,-4.84 -2.25,-8.36 -3.12,-13.46 -0.45,-2.7 -1.09,-4.07 -1.9,-6.38 -0.77,-2.17 -0.91,-4.82 -1.57,-6.95 -0.69,-2.21 -1.6,-3.64 -2.14,-6.14 -0.58,-2.65 -1.05,-4.29 -2.04,-6.47 -0.93,-2.05 -1.14,-4.28 -1.92,-6.37 -0.87,-2.36 -1.58,-3.19 -2.33,-6.16 -1.92,-7.6 -6.63,-16.49 -9.34,-24.03 -1.18,-3.27 -4.16,-8.1 -5.43,-11.36 -1.51,-3.89 -3.61,-7.89 -5.58,-11.21 -4.22,-7.09 -7.22,-14.58 -11.85,-21.52 -2.26,-3.39 -3.94,-7.06 -6.36,-10.43 -6.33,-8.82 -13.46,-21.61 -20.58,-29.58 -5.12,-5.73 -9.64,-13.06 -15.04,-18.55 -2.37,-2.4 -5.77,-6.1 -7.79,-8.78 -1.92,-2.57 -6.48,-6.08 -8.3,-8.48 -0.92,-1.2 -7.35,-7.75 -8.42,-8.38 -3.18,-1.89 -2.75,-0.8 -5.43,0.62 -1.09,0.58 -3.77,2.5 -5.1,3.4 -13.65,9.36 -26.59,17.36 -41.14,25.82 -3.17,1.84 -8.05,3.78 -10.89,5.68 -2.9,1.94 -8.6,3.75 -11.25,5.53 -2.84,1.9 -8,3.9 -11.49,5.31 -2.26,0.91 -2.93,1.81 -5.68,2.6 -2.06,0.6 -4.29,1.7 -4.29,4.22zm-586.17 260.38c0,6.16 1.21,14.23 1.85,20.84 0.73,7.61 1.97,12.6 2.76,19.7 0.78,7.08 2.5,12.13 3.38,18.86 0.55,4.11 3.23,13.92 4.44,18.02 1.67,5.69 3.49,11.68 4.88,17.37 1.32,5.39 4.31,11.53 5.67,16.79 1.37,5.25 4.49,10.85 6.15,16.09 0.73,2.32 5.66,13.6 6.83,15.63 1.43,2.48 2.18,5.34 3.64,7.48 2.7,3.98 7.76,16.44 11.56,22.03 4.72,6.96 8.28,14.84 12.76,20.61 0.44,0.57 4.21,6.32 4.48,6.86 2.92,5.89 36.74,48.99 40.42,48.99 1.4,0 20.36,-14.68 23.24,-16.66 7.07,-4.88 16.85,-11.91 24.37,-15.76l12.42 -7.42c1.36,-0.99 4.71,-2.63 6.41,-3.62 3.95,-2.31 17.18,-9.15 19.94,-10.16 2.44,-0.89 12.18,-5.3 12.18,-7.88 0,-1.12 -7.55,-17.96 -8.58,-21.29 -0.94,-3 -2.82,-8.12 -4.02,-11.02 -1.43,-3.43 -4.68,-12.76 -5.72,-16.75 -0.53,-2.08 -1.56,-3.26 -2.1,-5.32 -1.04,-3.99 -2.84,-8.26 -3.41,-11.63 -0.82,-4.79 -2.36,-7 -3.21,-11.84 -0.78,-4.44 -2.13,-7.11 -3.03,-12.01 -1.4,-7.61 -4.45,-16.75 -5.52,-24.36 -1.31,-9.24 -2.92,-16.65 -3.83,-26.26 -0.44,-4.47 -1.51,-8.41 -2.02,-13.03 -0.49,-4.44 -0.81,-9.37 -1.06,-13.99 -0.27,-4.78 -0.75,-9.13 -1.17,-13.88 -0.47,-5.33 0.59,-9.87 -4.74,-9.87l-151.12 0c-3.8,0 -7.85,-0.74 -7.85,3.48zm210.22 -46.66l167.26 0c4.04,0 2.61,-8.65 2.61,-12.43 0,-49.24 0,-102 0,-152.66 0,-12.22 1.32,-13.57 -5.66,-13.53 -12.59,0.08 -39.13,-4.4 -51.59,-5.98 -6.36,-0.8 -9.93,-2.28 -16.14,-3.05 -4.81,-0.59 -10.34,-2.39 -15.7,-3.49 -2.79,-0.56 -4.5,-1.79 -7.36,-2.23 -3.47,-0.54 -4.8,-0.85 -7.66,-1.93 -1.77,-0.68 -14.11,-4.46 -15.39,-4.46 -3.59,0 -9.58,16.9 -11.49,20.56 -1.16,2.23 -4.3,8.68 -4.99,10.93 -0.69,2.25 -3.56,9.79 -4.57,11.57 -1.93,3.39 -6.73,19.05 -8.39,23.67 -2.8,7.83 -5.16,16.17 -7.66,24.4 -0.6,1.97 -0.8,4.33 -1.42,6.43 -0.6,2.04 -1.54,4.01 -1.94,6.13 -0.97,5.07 -2.26,8.92 -2.97,13.16 -0.75,4.51 -2.21,9.49 -2.75,13.17 -0.7,4.8 -1.21,9.63 -2.17,13.97 -2.17,9.75 -4.72,32.5 -4.86,43.34 -0.05,4.48 -2.24,12.43 2.84,12.43zm385.98 -2.62c0,-7.79 -0.48,-15.41 -1.15,-23.05 -0.65,-7.47 -1.94,-13.29 -2.59,-20.74 -0.64,-7.25 -2.08,-13.03 -3.24,-20.1 -0.61,-3.78 -1.15,-6.31 -1.92,-9.64 -0.73,-3.15 -1.02,-6.9 -1.83,-9.95 -3.08,-11.53 -5.92,-25.91 -9.95,-36.49 -2.01,-5.29 -3.38,-12.82 -5.7,-17.64 -2.24,-4.65 -3.94,-12.83 -6.35,-16.99 -1.23,-2.14 -2.12,-5.57 -3.4,-8.15 -0.77,-1.57 -0.83,-2.64 -1.41,-4.26 -0.52,-1.46 -1.39,-2.49 -1.99,-3.9 -1.03,-2.43 -9.68,-22.43 -10.91,-23.99 -2.24,-2.86 -4.91,-2.59 -8.13,-0.85 -2.29,1.24 -14.76,4.42 -18.28,5.06 -3.58,0.65 -4.89,1.99 -8.99,2.56 -3.9,0.54 -5.89,1.31 -9.36,2.2 -3.18,0.82 -6.75,0.9 -9.81,1.75 -3.32,0.92 -6.01,1.59 -9.72,2.06 -7.31,0.92 -13.08,2.37 -20.25,3.08 -7.17,0.7 -13.97,1.66 -20.97,2.36 -7.45,0.75 -17,-1.43 -17.16,5.94 -0.15,7.03 0.18,15.62 0.18,23.1l0 139.79c0,12.58 -0.18,10.47 12.21,10.47 50.52,0 101.05,0 151.56,0 3.57,0 9.16,0.99 9.16,-2.62zm-346.07 221.57c2.7,0 12.13,-3.31 15.33,-4.29 4.61,-1.4 10.57,-3.06 15.01,-4.62 2.4,-0.84 5.59,-0.93 8.07,-1.74 4.94,-1.65 18.74,-4.56 24.07,-5.37 5.89,-0.88 10.12,-2.08 16.63,-3 6.07,-0.86 10.73,-2.04 17.03,-2.59 6.02,-0.54 12.28,-1.14 17.96,-1.67 4.27,-0.4 15.62,0.32 15.87,-3.98 0.72,-12.15 -0.01,-26.82 -0.01,-39.25l0 -98.36c0,-9.91 1.85,-10.9 -8.06,-10.9l-160.5 0c-5.92,0 -4.32,3.27 -4.37,8.72 -0.03,4.01 0.36,9.16 0.71,13.25 0.84,9.59 3.02,27.32 5,36.87 0.81,3.87 0.94,8.19 1.97,11.99 1.07,3.98 1.55,7.06 2.26,11.7 0.58,3.8 1.99,6.8 2.81,11.37 0.71,4.02 2.24,7 2.89,11.06 0.72,4.45 2.25,6.71 3.06,10.89 0.73,3.73 2.12,6.83 3.25,10.71 0.56,1.9 1.24,3.27 1.92,5.06 0.7,1.84 0.88,3.89 1.59,5.61 2.67,6.43 5.27,13.69 7.77,20.14 1.44,3.71 2.66,6.51 3.87,10.09 0.79,2.36 2.85,8.31 5.87,8.31zm302.9 0c2.91,0 5.03,-5.28 5.79,-7.72 1.18,-3.81 2.34,-5.98 3.71,-9.82 0.65,-1.81 1.45,-2.51 2.09,-4.45 0.57,-1.75 1.01,-3.41 1.69,-5.07 1.33,-3.2 2.18,-6.81 3.65,-9.87 3.42,-7.04 10.54,-33.93 12.58,-41.28 1.98,-7.15 3.11,-14.85 4.87,-21.95 1.71,-6.87 2.93,-15.49 4.29,-22.54 0.69,-3.55 0.86,-8.29 1.26,-12.04 0.41,-3.74 1.36,-7.58 1.82,-11.71 0.78,-7.06 1.64,-18.45 1.64,-25.4 0,-3.98 -2.67,-3.92 -6.1,-3.92l-159.2 0c-9.34,0 -7.85,1.77 -7.85,10.9l0 98.14c0,12.16 -0.83,27.48 0,39.25 0.29,4.2 11.09,3.79 15.48,4.15 5.68,0.46 12.08,1.12 17.95,1.67 11.07,1.04 23.31,3.71 33.74,5.52 6.07,1.06 10.56,2.35 16.26,3.37 3.4,0.61 4.96,1.18 7.75,2.06 2.47,0.77 5.82,0.88 8.1,1.72 3.62,1.33 28.23,8.99 30.48,8.99zm42.74 15.04c0,3.76 6.58,4.95 8.97,6.52 1.32,0.87 8.76,4.62 10.3,5.18 3.1,1.15 17.42,8.97 20.07,10.89 2.66,1.93 7.22,3.65 9.8,5.69 2.56,2.03 6.73,3.93 9.52,5.95 1.92,1.4 18,12.23 18.97,12.23 1.64,0 1.83,-1.67 1.74,-3.06l-15.14 -120.15c-0.34,-7.73 3.66,-16.29 8.33,-20.56 4.36,-3.98 10.39,-7.58 18.59,-7.58 7.02,0 12.96,2.19 17.04,5.21 2.62,1.95 9.99,8.05 12.15,10.3 1.48,1.53 4.61,3.34 6.3,4.83 1.93,1.69 3.92,3.68 5.94,5.17 1.56,1.15 4.86,3.65 6.16,4.97 1.56,1.57 5.02,3.72 6.29,5.06 3.5,3.69 8.55,6.52 12.14,10.09 1.87,1.87 10.1,8.9 12.17,10.3 3.16,2.15 5.18,-0.73 5.92,-3.66 0.47,-1.82 5.42,-12.35 6.41,-15.84 0.79,-2.82 2.08,-4.68 3.03,-8.3 1.32,-5 4.44,-11.05 5.65,-16.59 0.75,-3.42 1.89,-5.47 2.65,-8.48 0.82,-3.27 1.47,-5.83 2.42,-8.92 2.16,-7.04 6.74,-29.64 7.54,-37.16 0.37,-3.44 1.27,-6.19 1.77,-9.36 0.55,-3.51 2.93,-29.69 2.84,-30.22 -1,-5.34 -11.99,-3.32 -18.07,-3.32l-134.11 0c-12.83,0 -10.43,-0.83 -11.52,10.95 -0.63,6.76 -1.17,13.41 -1.83,20.41 -0.32,3.37 -0.38,6.9 -0.89,10.23 -0.5,3.19 -1.33,6.31 -1.64,9.69 -0.72,7.58 -1.79,12.76 -3.04,19.21 -0.64,3.23 -0.68,6.54 -1.45,9.67 -0.84,3.39 -1.57,5.47 -2.11,9.23 -0.57,4.08 -1.31,5.64 -2.17,8.96 -0.74,2.92 -1.11,6.44 -1.9,9.21 -0.91,3.15 -1.69,5.15 -2.33,8.8 -0.63,3.52 -1.86,5.09 -2.58,8.76 -0.96,4.93 -3.77,12.22 -5.4,16.85 -1.95,5.53 -3.24,11.74 -5.67,16.78 -2.21,4.6 -3.67,11.8 -6.21,16.26 -1.03,1.8 -2.07,5.52 -3.24,7.88 -0.41,0.83 -3.41,7.81 -3.41,7.92zm-258.2 182.75c0,-0.8 -13.8,-13.96 -15.56,-15.84 -2.34,-2.51 -5.64,-5.12 -8.03,-7.67 -2.16,-2.3 -5.41,-6.36 -7.67,-8.25 -3.47,-2.89 -26.71,-30.87 -29.02,-34 -9,-12.23 -17.97,-23.67 -26.47,-36.55 -4.19,-6.35 -7.84,-13.05 -12.06,-19.34 -2.05,-3.05 -3.8,-6.71 -5.82,-9.89 -1.33,-2.08 -3.92,-9.33 -6.58,-9.33 -3.06,0 -15.22,6.78 -18.13,8.26 -3.06,1.55 -5.95,2.9 -8.94,4.36 -2.5,1.23 -5.83,3.69 -8.38,4.92 -5.83,2.81 -11.11,6.57 -16.64,9.75 -3.08,1.77 -13.65,8.59 -15.9,10.71 -1.49,1.4 -5.88,3.69 -7.75,5.33 -2.05,1.82 -5.93,3.99 -7.62,5.69 -3.25,3.27 1.88,5.91 3.65,7.57 2.03,1.91 5.12,4.01 7.38,5.92 4.76,4.03 10.42,7.33 15.17,11.22l15.79 10.81c1.6,0.72 6.62,3.91 8.09,4.99 2.42,1.78 22.59,12.52 25.79,14.13 11.6,5.87 23.7,11.85 36.27,16.72 1.55,0.61 3.49,0.93 5.01,1.53 1.55,0.62 2.7,1.41 4.56,1.98 3.69,1.13 6.37,2.51 9.92,3.38 6.46,1.58 13.9,4.92 20.52,6.09 6.16,1.09 14.65,4.33 20.96,5.43 4.14,0.72 7.45,1.05 11.3,2 1.78,0.43 10.16,3.13 10.16,0.08zm130.19 1.32c4.75,0 10.29,-2.1 15.08,-2.8 6.05,-0.89 8.87,-2.23 14.52,-3.15 2.85,-0.47 4.47,-0.93 6.84,-1.88 2.39,-0.95 4.66,-0.98 7.27,-1.68 3.44,-0.93 10.22,-3.04 13.51,-4.36 3.73,-1.5 9.37,-3.11 13.3,-4.37l25.22 -10.11c3.8,-1.96 8.61,-3.54 12.3,-5.58 4.01,-2.22 7.63,-3.78 11.82,-5.84 8.17,-4.03 27.09,-15.55 33.35,-19.86 6.95,-4.79 14.64,-9.27 21.05,-14.5 2.66,-2.17 19.17,-14.02 19.17,-16.38l0 -0.87c0,-1.53 -7.54,-6.86 -8.96,-7.84 -2.59,-1.79 -7.42,-5.58 -9.95,-6.84 -1.53,-0.77 -2.96,-2.14 -5.01,-3.28l-15.55 -9.95c-3.89,-2.97 -40.66,-22.9 -44.71,-22.9 -2.62,0 -5.33,7.06 -6.61,9.3 -1.92,3.38 -4.03,6.51 -5.97,9.96 -2.03,3.61 -16.05,26.45 -18.76,29.21 -2.32,2.35 -4.33,6.79 -6.65,9.26 -1.51,1.61 -5.32,7.08 -6.78,9.15 -2.38,3.36 -4.67,5.94 -6.99,9.15 -4.54,6.27 -9.81,11.49 -14.41,17.43 -1.96,2.53 -5.18,6.36 -7.32,8.59 -1.67,1.74 -6.65,6.69 -7.81,8.33 -4.89,6.97 -18.09,17.72 -23.94,24.03 -1.12,1.21 -9.7,7.78 -4.01,7.78zm-198.45 -157.67c0,5.11 35.08,56.47 39.75,61.22 1.78,1.82 3.66,4.99 5.46,6.98 2.14,2.38 3.7,4.39 5.68,6.96 3.43,4.43 8.03,9.21 11.77,13.53 7.7,8.89 16.36,17.37 24.62,25.74 2.83,2.88 16.15,15.01 19.92,17.82 4.58,3.43 3.58,-2.22 3.58,-6.64 0,-46.15 0.18,-92.58 0,-138.7 -0.02,-6.72 1.25,-8.94 -4.79,-8.94 -13.94,0 -29.27,3.07 -43.06,4.69 -4.41,0.53 -8.51,1.91 -13.52,2.63 -5.14,0.73 -7.8,1.92 -13.11,2.81 -4.96,0.83 -7.99,2.26 -12.91,3.22 -2.35,0.47 -3.9,1.03 -5.99,1.86 -1.97,0.78 -17.4,3.35 -17.4,6.82zm158.54 -22.03c-6.32,0 -4.58,5.08 -4.58,12.65l0 132.59c0,5.81 -1.42,13.22 5.1,8.15 1.6,-1.24 7.25,-6.45 8.65,-7.92 1.76,-1.85 6.6,-6.75 8.54,-8.04 1.5,-0.99 15.18,-14.91 16.47,-16.68 1.77,-2.42 5.85,-6.2 8.08,-8.49 2.35,-2.41 5.62,-6.33 7.76,-9.03 4.54,-5.79 11.03,-12.22 14.84,-18.31 0.81,-1.29 6.21,-8.22 7.27,-9.31 1.35,-1.39 5.9,-7.75 7.04,-9.53 4.23,-6.56 9.32,-13.18 13.15,-19.99 1.83,-3.26 4.27,-6.8 6.34,-10.24 1.91,-3.16 4.25,-7.71 6.27,-10.52 4.28,-6 -2.9,-5.92 -6.61,-7.42 -3.84,-1.55 -8.63,-2.38 -12.75,-3.82 -2.23,-0.77 -4.4,-0.91 -6.76,-1.53 -2.32,-0.6 -3.8,-1.46 -6.37,-1.91 -4.85,-0.86 -9.37,-2.39 -13.52,-3.06 -17.43,-2.79 -39.39,-7.59 -58.92,-7.59zm-268.44 -536.91l0 1.09c0,2.85 32.38,20.53 36.82,23.36 2.28,1.47 7.34,4.22 9.87,5.18 2.33,0.88 7.16,3.99 9.86,5.19 2.28,1.01 20.15,9.23 20.86,9.23l1.53 0c1.98,0 5.21,-5.97 6.1,-7.63 1.3,-2.42 4.16,-5.84 5.43,-8.32 1.92,-3.76 8.53,-13.04 11.29,-16.4 1.93,-2.35 3.6,-5.61 5.69,-8.05 1.91,-2.25 4.03,-6 6,-7.96 4.19,-4.16 7.76,-11.01 12.42,-15.28l12.75 -14.94c1.69,-2.03 5.45,-5.62 6.53,-7.21 1.06,-1.58 11.99,-12.88 13.53,-14.17l14.01 -13.68c0.47,-0.52 8.87,-6.96 3.51,-6.96 -6.61,0 -8.4,2.07 -14.58,2.66 -4.84,0.46 -7.91,2.02 -12.8,2.89 -4.26,0.76 -32.04,8.31 -36.59,10.52 -2.09,1.01 -3.39,1.42 -5.82,2.03 -2.63,0.65 -3.43,1.66 -5.53,2.31 -3.85,1.19 -8.07,2.7 -11.51,4.2 -3.12,1.36 -7.73,3.84 -10.72,4.97 -7.76,2.93 -14.22,6.47 -21.38,10.03 -3.16,1.57 -7.22,4.24 -10.2,5.5 -2.99,1.26 -6.93,4.42 -9.92,5.79 -4.35,1.99 -37.15,23.55 -37.15,25.65zm306.61 -76.11c0,2.21 3.11,4.82 4.5,5.96 1.71,1.41 4.03,4.25 5.44,5.25 2.42,1.71 8.83,8.26 10.77,10.6 2.34,2.83 7.71,8.16 10.54,10.82 2.17,2.05 8.52,8.93 10.19,11.19 2.82,3.83 6.91,7.54 9.63,11.53 1.03,1.53 4.24,4.33 5.04,5.65 1.27,2.09 3.01,4.27 4.53,6.15 4.09,5.09 23.38,31.12 26.73,37.16 1.39,2.49 7.64,11.18 8.42,12.96 1.21,2.78 3.68,4.18 6.62,2.16 2.79,-1.91 5,-1.74 7.48,-3.21 4.12,-2.43 9.89,-4.57 14.36,-7.01 9.37,-5.11 19.12,-9.04 27.82,-14.92 3.37,-2.28 25.65,-14.64 25.65,-17.09l0 -1.31c0,-1.95 -32.96,-23.6 -37.23,-25.57 -3.04,-1.4 -6.86,-4.42 -9.97,-5.73 -3.09,-1.31 -7.03,-4.1 -10.14,-5.56 -7.16,-3.37 -13.77,-7.13 -21.41,-10 -2.92,-1.09 -7.61,-3.62 -10.75,-4.95 -6.51,-2.74 -16.8,-5.71 -22.8,-8.6 -0.55,-0.26 -11.16,-3.68 -11.87,-3.83 -8.27,-1.76 -16.1,-5.11 -24.86,-6.54 -4.77,-0.78 -7.34,-2.01 -12.81,-2.89 -5.36,-0.87 -9.29,-2.66 -14.36,-2.66 -0.78,0 -0.77,0.26 -1.52,0.44zm-183.62 133.9l0 0.65c0,2.2 7.16,4.02 9.62,4.34 4.12,0.53 6.71,2.11 11.1,2.86 7.44,1.28 15.49,3.54 22.93,4.98 3.91,0.75 8.4,1 12.23,1.72 4.01,0.76 7.51,1.74 11.96,2.01 8.43,0.5 17.88,2.41 25.71,2.41 5.6,0 4.1,-5.28 4.14,-10.9 0.29,-34.85 -0.22,-69.89 0,-104.68l0 -7.2c0,-5.41 0.44,-8.26 -4.74,-4.52 -2.09,1.52 -11.06,10.23 -13.97,12.85 -3.5,3.17 -18.97,17.99 -20.32,20.02 -2.6,3.91 -9.32,9.52 -12.77,14.05 -3.64,4.79 -8.36,9.66 -12.28,14.55 -4.07,5.07 -7.95,9.67 -11.81,15.01 -2.61,3.63 -21.8,29.41 -21.8,31.85zm140.87 -101.19l0 110.13c0,4.55 -1.08,10.03 3.93,10.03 7.62,0 17.3,-1.84 25.51,-2.4 4.45,-0.3 7.9,-1.3 11.96,-2 3.98,-0.68 8.44,-1.04 12.43,-1.74 7.62,-1.34 15.62,-3.75 23.12,-5.01 4.4,-0.75 6.9,-2.07 11.06,-2.9 2.88,-0.57 9.69,-1.61 9.69,-4.49 0,-2.82 -19.11,-28.47 -21.91,-32.17 -7.88,-10.4 -15.55,-20.5 -24.27,-30.03 -1.57,-1.73 -5.32,-5.44 -6.47,-7.05 -1.29,-1.82 -10.98,-11.94 -13.16,-13.88 -2.34,-2.09 -4.56,-4.84 -6.83,-6.69l-6.99 -6.53c-2.07,-2.09 -5.28,-4.59 -6.95,-6.58 -0.18,-0.21 -7.01,-6.37 -7.1,-6.42 -5.42,-2.97 -4.02,3.66 -4.02,7.73z"/>
 </g>
</svg>
