<?xml version="1.0" encoding="UTF-8"?>
<!DOCTYPE svg PUBLIC "-//W3C//DTD SVG 1.1//EN" "http://www.w3.org/Graphics/SVG/1.1/DTD/svg11.dtd">
<!-- Creator: CorelDRAW -->
<svg xmlns="http://www.w3.org/2000/svg" xml:space="preserve" width="11.519mm" height="11.519mm" version="1.1" style="shape-rendering:geometricPrecision; text-rendering:geometricPrecision; image-rendering:optimizeQuality; fill-rule:evenodd; clip-rule:evenodd"
viewBox="0 0 1151.9 1151.9"
 xmlns:xlink="http://www.w3.org/1999/xlink"
 xmlns:xodm="http://www.corel.com/coreldraw/odm/2003">
 <defs>
  <style type="text/css">
   <![CDATA[
    .fil1 {fill:#FEFEFE}
    .fil0 {fill:#4B4B4D}
   ]]>
  </style>
 </defs>
 <g id="Capa_x0020_1">
  <metadata id="CorelCorpID_0Corel-Layer"/>
  <circle class="fil0" cx="575.95" cy="575.95" r="575.96"/>
  <path class="fil1" d="M421 279.94c127.2,-74.1 293.17,-34.89 400.32,67.17l16.63 18.57c8.13,9.7 11.29,12.8 18.26,23.35 6.18,9.37 10.36,18.04 16.57,28.23 36.71,60.28 81.26,285.22 -68.9,212.9 -23.6,-11.37 -47.82,-14.1 -72.22,-3.65 -11.74,5.02 -20.12,11.59 -29.24,18.48 -16.8,12.7 -31.88,37.73 -31.88,67.32 0,41.13 37.46,80.23 7.52,135.53 -47.89,88.44 -164.2,70.02 -249.73,25.51 -72,-37.46 -122.62,-92.05 -155.74,-166.33 -57.78,-175.85 -3.45,-338.61 148.41,-427.08zm358.35 163.55c0,18.85 -23.81,28.98 -37.6,15.19 -13.79,-13.79 -3.66,-37.59 15.19,-37.59 10.85,0 22.41,11.55 22.41,22.4zm-89.61 3.2c0,48.67 68.13,88.97 112.96,45.75 65.6,-63.26 -29.99,-159.16 -93.12,-96.31 -12.64,12.59 -19.84,26.26 -19.84,50.56zm-131.21 -96.01c0,-13.76 17.1,-22.07 29.22,-16.77 5.38,2.35 2.91,1.07 5.83,3.96 28.14,27.82 -35.05,62.7 -35.05,12.81zm-48.01 0c0,10.39 3.33,21.78 6.32,28.89 0.99,2.35 3.73,7.77 5.48,10.51 3.15,4.92 1.7,2.69 4.03,5.57 0.42,0.52 1.03,1.25 1.47,1.74 25.98,29.59 70.77,31.77 99.91,3.29 0.67,-0.65 2.5,-2.59 3.11,-3.29 24.47,-27.92 21.06,-63 -4.18,-89.24 -27.59,-28.69 -66.53,-28.38 -93.08,-1.62 -8.5,8.56 -23.06,29.26 -23.06,44.15zm-108.81 70.41c27.23,0 29.8,43.63 0,43.63 -29.79,0 -27.22,-43.63 0,-43.63zm-67.2 19.2c0,96.96 134.41,85.66 134.41,6.4 0,-96.42 -134.41,-87.76 -134.41,-6.4zm41.6 246.42c-45.91,0 -65.58,-86.41 9.6,-86.41 46.3,0 55.62,86.41 -9.6,86.41zm-86.4 -41.61c0,48.33 46.68,88.39 89.57,88.49 95.51,0.22 126.35,-134.33 33.55,-173.21 -59.7,-25.01 -123.12,21.93 -123.12,84.72zm224.01 131.22c0,-2.34 2.65,-16.14 2.85,-16.7 2.78,-7.96 4.6,-9.16 10.54,-14.72 8.1,-7.59 17.59,-12.72 29.22,-13.02 14.76,-0.39 23.96,6.42 32.07,14.6 39.19,39.61 -23.94,106.89 -64.36,57.84 -5.88,-7.13 -10.32,-17.74 -10.32,-28zm-48 3.19c0,43.04 58.77,111.52 128.89,77.78 90.48,-43.54 53.32,-169.94 -35.98,-170.68 -50.3,-0.42 -92.91,43.19 -92.91,92.9zm-225.43 -33.79c29.26,52.49 62.52,101.53 115.93,136.89 104.18,68.61 264.18,123.94 351.76,2.8 28.98,-40.09 39.01,-91.58 18.83,-139.77 -5.29,-12.64 -11.81,-23.02 -9.65,-38.16 3.81,-26.76 24.13,-45.23 58.25,-39.34 18.96,3.28 82.79,49.5 144,-7.78 74.34,-69.58 12.08,-234.47 -32.22,-305.52 -20.34,-25.06 -36.15,-45.67 -61.24,-66.77 -8.55,-7.19 -15.09,-11.51 -23.71,-17.89 -132.13,-97.64 -289.3,-95.87 -415.26,-18.64 -98.85,60.61 -164.54,155.96 -183.86,270.24 -12.72,75.22 -2.59,152.62 37.17,223.94z"/>
 </g>
</svg>
