<?xml version="1.0" encoding="UTF-8"?>
<!DOCTYPE svg PUBLIC "-//W3C//DTD SVG 1.1//EN" "http://www.w3.org/Graphics/SVG/1.1/DTD/svg11.dtd">
<!-- Creator: CorelDRAW -->
<svg xmlns="http://www.w3.org/2000/svg" xml:space="preserve" width="11.519mm" height="11.519mm" version="1.1" style="shape-rendering:geometricPrecision; text-rendering:geometricPrecision; image-rendering:optimizeQuality; fill-rule:evenodd; clip-rule:evenodd"
viewBox="0 0 1151.9 1151.9"
 xmlns:xlink="http://www.w3.org/1999/xlink"
 xmlns:xodm="http://www.corel.com/coreldraw/odm/2003">
 <defs>
  <style type="text/css">
   <![CDATA[
    .fil0 {fill:#4B4B4D}
    .fil1 {fill:#FEFEFE;fill-rule:nonzero}
   ]]>
  </style>
 </defs>
 <g id="Capa_x0020_1">
  <metadata id="CorelCorpID_0Corel-Layer"/>
  <circle class="fil0" cx="575.95" cy="575.95" r="575.96"/>
  <g id="_2161492796464">
   <path class="fil1" d="M629.95 290.13c0,-48.11 -58.17,-72.19 -92.19,-38.18l-162 162 -69.49 0c-41.09,0 -83.45,23.92 -95.75,68.57 -8.2,29.79 -12.57,61.11 -12.57,93.42 0,32.32 4.37,63.65 12.57,93.42 12.3,44.66 54.66,68.58 95.75,68.58l69.49 0 162 162.01c34.02,34.01 92.19,9.92 92.19,-38.2l0 -571.62z"/>
   <path class="fil1" d="M812.95 327.75c10.54,-10.54 27.65,-10.54 38.19,0 137.07,137.07 137.07,359.31 0,496.38 -10.54,10.55 -27.65,10.55 -38.19,0 -10.55,-10.54 -10.55,-27.63 0,-38.18 115.99,-115.99 115.99,-304.03 0,-420.02 -10.55,-10.54 -10.55,-27.63 0,-38.18z"/>
   <path class="fil1" d="M717.5 423.21c10.55,-10.54 27.65,-10.54 38.19,0 84.35,84.36 84.35,221.12 0,305.48 -10.54,10.54 -27.64,10.54 -38.19,0 -10.54,-10.55 -10.54,-27.65 0,-38.2 63.27,-63.25 63.27,-165.83 0,-229.1 -10.54,-10.54 -10.54,-27.63 0,-38.18z"/>
  </g>
 </g>
</svg>
